<svg width="230" height="466" viewBox="0 0 230 466" fill="none" xmlns="http://www.w3.org/2000/svg">
<g clip-path="url(#clip0_297_29519)">
<rect width="230" height="466" fill="white"/>
<path d="M14.7874 397.621L9.89113 400.264L2.19867 406.211L0 409.365V413.843L3.19649 417.438L3.89844 419.715L2.802 425.001L3.10367 430.727L5.5982 433.811L8.09274 435.281L12.287 436.384L21.0759 436.681L25.6705 436.094C25.6705 436.094 29.2673 436.094 31.7618 436.681C34.2564 437.267 46.5434 443.069 46.5434 443.069L56.4287 447.989L113.252 462.312L116.547 464.583L133.522 465.686L139.114 463.264L142.212 463.409C142.212 463.409 146.505 465.465 147.305 465.686C148.106 465.907 155.996 466.052 156.494 465.982C156.993 465.913 179.862 456.951 179.862 456.951L186.452 452.473L195.543 448.802L198.037 448.215C198.037 448.215 207.522 446.235 209.321 445.207C211.119 444.179 218.011 439.41 218.011 439.41C218.011 439.41 223.801 437.064 224.903 435.815C225.999 434.566 228.099 426.197 228.598 420.621C229.097 415.04 230.698 412.693 230.194 411.079C229.689 409.464 228.494 405.648 228.494 405.648L227.496 380.028C227.496 380.028 225.599 374.668 224.102 373.715C222.605 372.763 219.606 366.228 219.606 366.228L216.613 364.248L212.819 363.295L204.732 356.395L200.439 338.193C200.439 338.193 200.741 335.695 197.045 334.081C193.35 332.466 187.16 333.053 187.16 333.053L170.882 332.948L157.202 332.391L153.31 331.438L98.5806 332.832L75.1146 341.788L65.3279 349.054L62.6303 350.227L56.3359 352.138L44.6522 360.362L41.5543 364.916L41.2527 366.385L38.8568 369.469L34.2622 373.216L24.3768 384.373L21.6793 388.775L17.3863 392.957L14.7874 397.656V397.621Z" fill="#587259"/>
<path d="M14.7874 391.299L9.89113 393.942L2.19867 399.89L0 403.043V407.521L3.19649 411.117L3.89844 413.393L2.802 418.679L3.10367 424.406L5.5982 427.49L8.09274 428.959L12.287 430.063L21.0759 430.359L25.6705 429.772C25.6705 429.772 29.2673 429.772 31.7618 430.359C34.2564 430.945 46.5434 436.748 46.5434 436.748L56.4287 441.667L113.252 455.99L116.547 458.261L133.522 459.364L139.114 456.942L142.212 457.088C142.212 457.088 146.505 459.144 147.305 459.364C148.106 459.585 155.996 459.73 156.494 459.661C156.993 459.591 179.862 450.629 179.862 450.629L186.452 446.151L195.543 442.48L198.037 441.894C198.037 441.894 207.522 439.913 209.321 438.885C211.119 437.857 218.011 433.089 218.011 433.089C218.011 433.089 223.801 430.742 224.903 429.493C225.999 428.245 228.099 419.875 228.598 414.299C229.097 408.718 230.698 406.371 230.194 404.757C229.689 403.142 228.494 399.326 228.494 399.326L227.496 373.707C227.496 373.707 225.599 368.346 224.102 367.393C222.605 366.441 219.606 359.907 219.606 359.907L216.613 357.926L212.819 356.974L204.732 350.074L200.439 331.871C200.439 331.871 200.741 329.374 197.045 327.759C193.35 326.144 187.16 326.731 187.16 326.731L170.882 326.626L157.202 326.069L153.31 325.116L98.5806 326.51L75.1146 335.466L65.3279 342.732L62.6303 343.905L56.3359 345.816L44.6522 354.041L41.5543 358.594L41.2527 360.063L38.8568 363.148L34.2622 366.894L24.3768 378.051L21.6793 382.454L17.3863 386.636L14.7874 391.334V391.299Z" fill="#BDD59B"/>
<path d="M101.485 21.0049L108.336 16.5773L121.057 22.0346L133.933 16.0625L140.629 19.7178L120.851 28.8304L101.537 21.0564L101.485 21.0049Z" fill="#CED8ED"/>
<path d="M121.057 21.9826L108.335 16.5254V6.5376L121.057 12.4067V21.9826Z" fill="#ACB6CB"/>
<path d="M121.057 21.9838L133.624 16.0118V6.59033L121.057 12.4594V22.0353V21.9838Z" fill="#6C7E9E"/>
<path d="M108.335 6.58989L121.057 0L133.624 6.58989L121.057 12.459L108.335 6.58989Z" fill="#CED8ED"/>
<path d="M105.864 82.6311L121.058 89.015L137.488 82.6311" stroke="#4C5173" stroke-width="4.76485" stroke-miterlimit="10"/>
<path d="M113.95 41.5469L45.0879 390.501" stroke="#4C5173" stroke-width="4.76485" stroke-miterlimit="10"/>
<path d="M127.444 41.5471L203.466 393.642" stroke="#4C5173" stroke-width="4.76485" stroke-linecap="round" stroke-linejoin="round"/>
<path d="M103.752 93.3911L121.006 101.011L92.73 149.045L121.006 160.371L79.5447 212.627L121.006 234.867L65.69 286.196L121.676 306.841L54.668 342.004L121.676 378.506L193.01 345.145L121.676 306.893L178.743 279.246L121.006 234.97L165.455 214.634L121.006 160.474L150.93 150.383L121.006 101.114L138.878 94.6267" stroke="#4C5173" stroke-width="4.76485" stroke-linecap="round" stroke-linejoin="round"/>
<path d="M92.73 149.044L121.006 234.866L150.93 150.228" stroke="#4C5173" stroke-width="4.76485" stroke-linecap="round" stroke-linejoin="round"/>
<path d="M79.5444 212.626L121.675 306.841L165.455 214.531" stroke="#4C5173" stroke-width="4.76485" stroke-linecap="round" stroke-linejoin="round"/>
<path d="M65.6899 286.196L121.676 378.506L178.743 279.194" stroke="#4C5173" stroke-width="4.76485" stroke-linecap="round" stroke-linejoin="round"/>
<path d="M121.058 429.886V60.7501L120.852 45.0991" stroke="#4C5173" stroke-width="4.76485" stroke-linecap="round" stroke-linejoin="round"/>
<path d="M149.746 176.382C164.064 176.382 175.704 163.82 175.704 148.324C175.704 132.827 164.115 120.265 149.746 120.265C135.376 120.265 123.787 132.827 123.787 148.324C123.787 163.82 135.376 176.382 149.746 176.382Z" fill="#CED8ED"/>
<path d="M150.93 171.955C161.746 171.955 170.502 162.482 170.502 150.795C170.502 139.108 161.746 129.635 150.93 129.635C140.114 129.635 131.358 139.108 131.358 150.795C131.358 162.482 140.114 171.955 150.93 171.955Z" fill="#8796B8"/>
<path d="M65.6897 317.704C83.2528 317.704 97.4681 300.457 97.4681 279.143C97.4681 257.829 83.2528 240.582 65.6897 240.582C48.1265 240.582 33.9111 257.829 33.9111 279.143C33.9111 300.457 48.1265 317.704 65.6897 317.704Z" fill="#CED8ED"/>
<path d="M65.6896 311.834C79.4928 311.834 90.7209 298.242 90.7209 281.459C90.7209 264.675 79.4928 251.083 65.6896 251.083C51.8863 251.083 40.6582 264.675 40.6582 281.459C40.6582 298.242 51.8863 311.834 65.6896 311.834Z" fill="#8796B8"/>
<path d="M65.6896 288.307C69.4494 288.307 72.4367 284.651 72.4367 280.121C72.4367 275.59 69.3979 271.935 65.6896 271.935C61.9812 271.935 58.9424 275.59 58.9424 280.121C58.9424 284.651 61.9812 288.307 65.6896 288.307Z" fill="#E0EAFD" stroke="#6C7E9E" stroke-width="1.0578" stroke-miterlimit="10"/>
<path d="M151.857 157.591C155.617 157.591 158.604 154.553 158.604 150.846C158.604 147.14 155.565 144.102 151.857 144.102C148.149 144.102 145.11 147.14 145.11 150.846C145.11 154.553 148.149 157.591 151.857 157.591Z" fill="#E0EAFD" stroke="#6C7E9E" stroke-width="1.0578" stroke-miterlimit="10"/>
<path d="M66.1016 277.135L52.968 273.686C52.968 273.686 49.7231 274.304 49.7231 276.26C49.7231 278.216 52.5559 278.525 52.5559 278.525L66.0502 282.026C66.0502 282.026 68.0589 277.599 66.0502 277.084L66.1016 277.135Z" fill="#E0EAFD" stroke="#6C7E9E" stroke-miterlimit="10"/>
<path d="M151.188 147.757L161.18 145.132C161.18 145.132 163.652 145.595 163.652 147.088C163.652 148.581 161.489 148.838 161.489 148.838L151.188 151.516C151.188 151.516 149.643 148.169 151.188 147.757Z" fill="#E0EAFD" stroke="#6C7E9E" stroke-miterlimit="10"/>
<path d="M121.057 45.0991L101.485 37.4796V21.0049L120.8 28.7789L121.006 45.0991H121.057Z" fill="#ACB6CB"/>
<path d="M121.057 45.0991L140.629 35.7291V19.6663L120.851 28.7788L121.057 45.0991Z" fill="#6C7E9E"/>
</g>
<defs>
<clipPath id="clip0_297_29519">
<rect width="230" height="466" fill="white"/>
</clipPath>
</defs>
</svg>
