<svg width="776" height="494" viewBox="0 0 776 494" fill="none" xmlns="http://www.w3.org/2000/svg">
<circle cx="382.1" cy="194.477" r="113.977" stroke="#83A8E0" stroke-width="15"/>
<circle cx="121.477" cy="194.477" r="113.977" stroke="#2F376F" stroke-width="15"/>
<circle cx="251.788" cy="304.91" r="113.977" stroke="#99CA9C" stroke-width="15"/>
<circle cx="514.62" cy="304.91" r="113.977" stroke="#FFBB00" stroke-width="15"/>
<circle cx="642.723" cy="194.477" r="113.977" stroke="#FF5B4F" stroke-width="15"/>
<path d="M52.5354 10.32L46.2714 27H43.1034L36.8154 10.32H39.7434L44.6874 24.192L49.6554 10.32H52.5354ZM66.9434 20.064C66.9434 20.56 66.9114 21.008 66.8474 21.408H56.7434C56.8234 22.464 57.2154 23.312 57.9194 23.952C58.6234 24.592 59.4874 24.912 60.5114 24.912C61.9834 24.912 63.0234 24.296 63.6314 23.064H66.5834C66.1834 24.28 65.4554 25.28 64.3994 26.064C63.3594 26.832 62.0634 27.216 60.5114 27.216C59.2474 27.216 58.1114 26.936 57.1034 26.376C56.1114 25.8 55.3274 25 54.7514 23.976C54.1914 22.936 53.9114 21.736 53.9114 20.376C53.9114 19.016 54.1834 17.824 54.7274 16.8C55.2874 15.76 56.0634 14.96 57.0554 14.4C58.0634 13.84 59.2154 13.56 60.5114 13.56C61.7594 13.56 62.8714 13.832 63.8474 14.376C64.8234 14.92 65.5834 15.688 66.1274 16.68C66.6714 17.656 66.9434 18.784 66.9434 20.064ZM64.0874 19.2C64.0714 18.192 63.7114 17.384 63.0074 16.776C62.3034 16.168 61.4314 15.864 60.3914 15.864C59.4474 15.864 58.6394 16.168 57.9674 16.776C57.2954 17.368 56.8954 18.176 56.7674 19.2H64.0874ZM76.3079 13.56C77.3479 13.56 78.2759 13.776 79.0919 14.208C79.9239 14.64 80.5719 15.28 81.0359 16.128C81.4999 16.976 81.7319 18 81.7319 19.2V27H79.0199V19.608C79.0199 18.424 78.7239 17.52 78.1319 16.896C77.5399 16.256 76.7319 15.936 75.7079 15.936C74.6839 15.936 73.8679 16.256 73.2599 16.896C72.6679 17.52 72.3719 18.424 72.3719 19.608V27H69.6359V13.776H72.3719V15.288C72.8199 14.744 73.3879 14.32 74.0759 14.016C74.7799 13.712 75.5239 13.56 76.3079 13.56ZM97.1979 13.776V27H94.4619V25.44C94.0299 25.984 93.4619 26.416 92.7579 26.736C92.0699 27.04 91.3339 27.192 90.5499 27.192C89.5099 27.192 88.5739 26.976 87.7419 26.544C86.9259 26.112 86.2779 25.472 85.7979 24.624C85.3339 23.776 85.1019 22.752 85.1019 21.552V13.776H87.8139V21.144C87.8139 22.328 88.1099 23.24 88.7019 23.88C89.2939 24.504 90.1019 24.816 91.1259 24.816C92.1499 24.816 92.9579 24.504 93.5499 23.88C94.1579 23.24 94.4619 22.328 94.4619 21.144V13.776H97.1979ZM112.928 20.064C112.928 20.56 112.896 21.008 112.832 21.408H102.728C102.808 22.464 103.2 23.312 103.904 23.952C104.608 24.592 105.472 24.912 106.496 24.912C107.968 24.912 109.008 24.296 109.616 23.064H112.568C112.168 24.28 111.44 25.28 110.384 26.064C109.344 26.832 108.048 27.216 106.496 27.216C105.232 27.216 104.096 26.936 103.088 26.376C102.096 25.8 101.312 25 100.736 23.976C100.176 22.936 99.8958 21.736 99.8958 20.376C99.8958 19.016 100.168 17.824 100.712 16.8C101.272 15.76 102.048 14.96 103.04 14.4C104.048 13.84 105.2 13.56 106.496 13.56C107.744 13.56 108.856 13.832 109.832 14.376C110.808 14.92 111.568 15.688 112.112 16.68C112.656 17.656 112.928 18.784 112.928 20.064ZM110.072 19.2C110.056 18.192 109.696 17.384 108.992 16.776C108.288 16.168 107.416 15.864 106.376 15.864C105.432 15.864 104.624 16.168 103.952 16.776C103.28 17.368 102.88 18.176 102.752 19.2H110.072ZM120.42 27.216C119.38 27.216 118.444 27.032 117.612 26.664C116.796 26.28 116.148 25.768 115.668 25.128C115.188 24.472 114.932 23.744 114.9 22.944H117.732C117.78 23.504 118.044 23.976 118.524 24.36C119.02 24.728 119.636 24.912 120.372 24.912C121.14 24.912 121.732 24.768 122.148 24.48C122.58 24.176 122.796 23.792 122.796 23.328C122.796 22.832 122.556 22.464 122.076 22.224C121.612 21.984 120.868 21.72 119.844 21.432C118.852 21.16 118.044 20.896 117.42 20.64C116.796 20.384 116.252 19.992 115.788 19.464C115.34 18.936 115.116 18.24 115.116 17.376C115.116 16.672 115.324 16.032 115.74 15.456C116.156 14.864 116.748 14.4 117.516 14.064C118.3 13.728 119.196 13.56 120.204 13.56C121.708 13.56 122.916 13.944 123.828 14.712C124.756 15.464 125.252 16.496 125.316 17.808H122.58C122.532 17.216 122.292 16.744 121.86 16.392C121.428 16.04 120.844 15.864 120.108 15.864C119.388 15.864 118.836 16 118.452 16.272C118.068 16.544 117.876 16.904 117.876 17.352C117.876 17.704 118.004 18 118.26 18.24C118.516 18.48 118.828 18.672 119.196 18.816C119.564 18.944 120.108 19.112 120.828 19.32C121.788 19.576 122.572 19.84 123.18 20.112C123.804 20.368 124.34 20.752 124.788 21.264C125.236 21.776 125.468 22.456 125.484 23.304C125.484 24.056 125.276 24.728 124.86 25.32C124.444 25.912 123.852 26.376 123.084 26.712C122.332 27.048 121.444 27.216 120.42 27.216Z" fill="#2F376F"/>
<path d="M345.709 10.32V12.552H341.269V27H338.533V12.552H334.069V10.32H345.709ZM360.456 13.776V27H357.72V25.44C357.288 25.984 356.72 26.416 356.016 26.736C355.328 27.04 354.592 27.192 353.808 27.192C352.768 27.192 351.832 26.976 351 26.544C350.184 26.112 349.536 25.472 349.056 24.624C348.592 23.776 348.36 22.752 348.36 21.552V13.776H351.072V21.144C351.072 22.328 351.368 23.24 351.96 23.88C352.552 24.504 353.36 24.816 354.384 24.816C355.408 24.816 356.216 24.504 356.808 23.88C357.416 23.24 357.72 22.328 357.72 21.144V13.776H360.456ZM366.802 15.696C367.202 15.024 367.73 14.504 368.386 14.136C369.058 13.752 369.85 13.56 370.762 13.56V16.392H370.066C368.994 16.392 368.178 16.664 367.618 17.208C367.074 17.752 366.802 18.696 366.802 20.04V27H364.066V13.776H366.802V15.696ZM374.669 12.024C374.173 12.024 373.757 11.856 373.421 11.52C373.085 11.184 372.917 10.768 372.917 10.272C372.917 9.776 373.085 9.36 373.421 9.024C373.757 8.688 374.173 8.52 374.669 8.52C375.149 8.52 375.557 8.688 375.893 9.024C376.229 9.36 376.397 9.776 376.397 10.272C376.397 10.768 376.229 11.184 375.893 11.52C375.557 11.856 375.149 12.024 374.669 12.024ZM376.013 13.776V27H373.277V13.776H376.013ZM384.405 27.216C383.365 27.216 382.429 27.032 381.597 26.664C380.781 26.28 380.133 25.768 379.653 25.128C379.173 24.472 378.917 23.744 378.885 22.944H381.717C381.765 23.504 382.029 23.976 382.509 24.36C383.005 24.728 383.621 24.912 384.357 24.912C385.125 24.912 385.717 24.768 386.133 24.48C386.565 24.176 386.781 23.792 386.781 23.328C386.781 22.832 386.541 22.464 386.061 22.224C385.597 21.984 384.853 21.72 383.829 21.432C382.837 21.16 382.029 20.896 381.405 20.64C380.781 20.384 380.237 19.992 379.773 19.464C379.325 18.936 379.101 18.24 379.101 17.376C379.101 16.672 379.309 16.032 379.725 15.456C380.141 14.864 380.733 14.4 381.501 14.064C382.285 13.728 383.181 13.56 384.189 13.56C385.693 13.56 386.901 13.944 387.813 14.712C388.741 15.464 389.237 16.496 389.301 17.808H386.565C386.517 17.216 386.277 16.744 385.845 16.392C385.413 16.04 384.829 15.864 384.093 15.864C383.373 15.864 382.821 16 382.437 16.272C382.053 16.544 381.861 16.904 381.861 17.352C381.861 17.704 381.989 18 382.245 18.24C382.501 18.48 382.813 18.672 383.181 18.816C383.549 18.944 384.093 19.112 384.813 19.32C385.773 19.576 386.557 19.84 387.165 20.112C387.789 20.368 388.325 20.752 388.773 21.264C389.221 21.776 389.453 22.456 389.469 23.304C389.469 24.056 389.261 24.728 388.845 25.32C388.429 25.912 387.837 26.376 387.069 26.712C386.317 27.048 385.429 27.216 384.405 27.216ZM408.433 13.56C409.473 13.56 410.401 13.776 411.217 14.208C412.049 14.64 412.697 15.28 413.161 16.128C413.641 16.976 413.881 18 413.881 19.2V27H411.169V19.608C411.169 18.424 410.873 17.52 410.281 16.896C409.689 16.256 408.881 15.936 407.857 15.936C406.833 15.936 406.017 16.256 405.409 16.896C404.817 17.52 404.521 18.424 404.521 19.608V27H401.809V19.608C401.809 18.424 401.513 17.52 400.921 16.896C400.329 16.256 399.521 15.936 398.497 15.936C397.473 15.936 396.657 16.256 396.049 16.896C395.457 17.52 395.161 18.424 395.161 19.608V27H392.425V13.776H395.161V15.288C395.609 14.744 396.177 14.32 396.865 14.016C397.553 13.712 398.289 13.56 399.073 13.56C400.129 13.56 401.073 13.784 401.905 14.232C402.737 14.68 403.377 15.328 403.825 16.176C404.225 15.376 404.849 14.744 405.697 14.28C406.545 13.8 407.457 13.56 408.433 13.56ZM423.099 27.216C421.851 27.216 420.723 26.936 419.715 26.376C418.707 25.8 417.915 25 417.339 23.976C416.763 22.936 416.475 21.736 416.475 20.376C416.475 19.032 416.771 17.84 417.363 16.8C417.955 15.76 418.763 14.96 419.787 14.4C420.811 13.84 421.955 13.56 423.219 13.56C424.483 13.56 425.627 13.84 426.651 14.4C427.675 14.96 428.483 15.76 429.075 16.8C429.667 17.84 429.963 19.032 429.963 20.376C429.963 21.72 429.659 22.912 429.051 23.952C428.443 24.992 427.611 25.8 426.555 26.376C425.515 26.936 424.363 27.216 423.099 27.216ZM423.099 24.84C423.803 24.84 424.459 24.672 425.067 24.336C425.691 24 426.195 23.496 426.579 22.824C426.963 22.152 427.155 21.336 427.155 20.376C427.155 19.416 426.971 18.608 426.603 17.952C426.235 17.28 425.747 16.776 425.139 16.44C424.531 16.104 423.875 15.936 423.171 15.936C422.467 15.936 421.811 16.104 421.203 16.44C420.611 16.776 420.139 17.28 419.787 17.952C419.435 18.608 419.259 19.416 419.259 20.376C419.259 21.8 419.619 22.904 420.339 23.688C421.075 24.456 421.995 24.84 423.099 24.84Z" fill="#83A8E0"/>
<path d="M504.208 479.592H497.224L496.024 483H493.168L499.144 466.296H502.312L508.288 483H505.408L504.208 479.592ZM503.44 477.36L500.728 469.608L497.992 477.36H503.44ZM522.862 469.776V483H520.126V481.44C519.694 481.984 519.126 482.416 518.422 482.736C517.734 483.04 516.998 483.192 516.214 483.192C515.174 483.192 514.238 482.976 513.406 482.544C512.59 482.112 511.942 481.472 511.462 480.624C510.998 479.776 510.766 478.752 510.766 477.552V469.776H513.478V477.144C513.478 478.328 513.774 479.24 514.366 479.88C514.958 480.504 515.766 480.816 516.79 480.816C517.814 480.816 518.622 480.504 519.214 479.88C519.822 479.24 520.126 478.328 520.126 477.144V469.776H522.862ZM525.56 476.328C525.56 475 525.832 473.824 526.376 472.8C526.936 471.776 527.688 470.984 528.632 470.424C529.592 469.848 530.656 469.56 531.824 469.56C532.688 469.56 533.536 469.752 534.368 470.136C535.216 470.504 535.888 471 536.384 471.624V465.24H539.144V483H536.384V481.008C535.936 481.648 535.312 482.176 534.512 482.592C533.728 483.008 532.824 483.216 531.8 483.216C530.648 483.216 529.592 482.928 528.632 482.352C527.688 481.76 526.936 480.944 526.376 479.904C525.832 478.848 525.56 477.656 525.56 476.328ZM536.384 476.376C536.384 475.464 536.192 474.672 535.808 474C535.44 473.328 534.952 472.816 534.344 472.464C533.736 472.112 533.08 471.936 532.376 471.936C531.672 471.936 531.016 472.112 530.408 472.464C529.8 472.8 529.304 473.304 528.92 473.976C528.552 474.632 528.368 475.416 528.368 476.328C528.368 477.24 528.552 478.04 528.92 478.728C529.304 479.416 529.8 479.944 530.408 480.312C531.032 480.664 531.688 480.84 532.376 480.84C533.08 480.84 533.736 480.664 534.344 480.312C534.952 479.96 535.44 479.448 535.808 478.776C536.192 478.088 536.384 477.288 536.384 476.376ZM544.13 468.024C543.634 468.024 543.218 467.856 542.882 467.52C542.546 467.184 542.378 466.768 542.378 466.272C542.378 465.776 542.546 465.36 542.882 465.024C543.218 464.688 543.634 464.52 544.13 464.52C544.61 464.52 545.018 464.688 545.354 465.024C545.69 465.36 545.858 465.776 545.858 466.272C545.858 466.768 545.69 467.184 545.354 467.52C545.018 467.856 544.61 468.024 544.13 468.024ZM545.474 469.776V483H542.738V469.776H545.474ZM561.186 476.064C561.186 476.56 561.154 477.008 561.09 477.408H550.986C551.066 478.464 551.458 479.312 552.162 479.952C552.866 480.592 553.73 480.912 554.754 480.912C556.226 480.912 557.266 480.296 557.874 479.064H560.826C560.426 480.28 559.698 481.28 558.642 482.064C557.602 482.832 556.306 483.216 554.754 483.216C553.49 483.216 552.354 482.936 551.346 482.376C550.354 481.8 549.57 481 548.994 479.976C548.434 478.936 548.154 477.736 548.154 476.376C548.154 475.016 548.426 473.824 548.97 472.8C549.53 471.76 550.306 470.96 551.298 470.4C552.306 469.84 553.458 469.56 554.754 469.56C556.002 469.56 557.114 469.832 558.09 470.376C559.066 470.92 559.826 471.688 560.37 472.68C560.914 473.656 561.186 474.784 561.186 476.064ZM558.33 475.2C558.314 474.192 557.954 473.384 557.25 472.776C556.546 472.168 555.674 471.864 554.634 471.864C553.69 471.864 552.882 472.168 552.21 472.776C551.538 473.368 551.138 474.176 551.01 475.2H558.33ZM570.55 469.56C571.59 469.56 572.518 469.776 573.334 470.208C574.166 470.64 574.814 471.28 575.278 472.128C575.742 472.976 575.974 474 575.974 475.2V483H573.262V475.608C573.262 474.424 572.966 473.52 572.374 472.896C571.782 472.256 570.974 471.936 569.95 471.936C568.926 471.936 568.11 472.256 567.502 472.896C566.91 473.52 566.614 474.424 566.614 475.608V483H563.878V469.776H566.614V471.288C567.062 470.744 567.63 470.32 568.318 470.016C569.022 469.712 569.766 469.56 570.55 469.56ZM578.552 476.376C578.552 475.016 578.824 473.824 579.368 472.8C579.928 471.76 580.696 470.96 581.672 470.4C582.648 469.84 583.768 469.56 585.032 469.56C586.632 469.56 587.952 469.944 588.992 470.712C590.048 471.464 590.76 472.544 591.128 473.952H588.176C587.936 473.296 587.552 472.784 587.024 472.416C586.496 472.048 585.832 471.864 585.032 471.864C583.912 471.864 583.016 472.264 582.344 473.064C581.688 473.848 581.36 474.952 581.36 476.376C581.36 477.8 581.688 478.912 582.344 479.712C583.016 480.512 583.912 480.912 585.032 480.912C586.616 480.912 587.664 480.216 588.176 478.824H591.128C590.744 480.168 590.024 481.24 588.968 482.04C587.912 482.824 586.6 483.216 585.032 483.216C583.768 483.216 582.648 482.936 581.672 482.376C580.696 481.8 579.928 481 579.368 479.976C578.824 478.936 578.552 477.736 578.552 476.376ZM595.247 468.024C594.751 468.024 594.335 467.856 593.999 467.52C593.663 467.184 593.495 466.768 593.495 466.272C593.495 465.776 593.663 465.36 593.999 465.024C594.335 464.688 594.751 464.52 595.247 464.52C595.727 464.52 596.135 464.688 596.471 465.024C596.807 465.36 596.975 465.776 596.975 466.272C596.975 466.768 596.807 467.184 596.471 467.52C596.135 467.856 595.727 468.024 595.247 468.024ZM596.591 469.776V483H593.855V469.776H596.591ZM599.271 476.328C599.271 475 599.543 473.824 600.087 472.8C600.647 471.776 601.399 470.984 602.343 470.424C603.303 469.848 604.359 469.56 605.511 469.56C606.551 469.56 607.455 469.768 608.223 470.184C609.007 470.584 609.631 471.088 610.095 471.696V469.776H612.855V483H610.095V481.032C609.631 481.656 608.999 482.176 608.199 482.592C607.399 483.008 606.487 483.216 605.463 483.216C604.327 483.216 603.287 482.928 602.343 482.352C601.399 481.76 600.647 480.944 600.087 479.904C599.543 478.848 599.271 477.656 599.271 476.328ZM610.095 476.376C610.095 475.464 609.903 474.672 609.519 474C609.151 473.328 608.663 472.816 608.055 472.464C607.447 472.112 606.791 471.936 606.087 471.936C605.383 471.936 604.727 472.112 604.119 472.464C603.511 472.8 603.015 473.304 602.631 473.976C602.263 474.632 602.079 475.416 602.079 476.328C602.079 477.24 602.263 478.04 602.631 478.728C603.015 479.416 603.511 479.944 604.119 480.312C604.743 480.664 605.399 480.84 606.087 480.84C606.791 480.84 607.447 480.664 608.055 480.312C608.663 479.96 609.151 479.448 609.519 478.776C609.903 478.088 610.095 477.288 610.095 476.376Z" fill="#FFBB00"/>
<path d="M659.684 12.528V17.424H665.444V19.656H659.684V24.768H666.164V27H656.948V10.296H666.164V12.528H659.684ZM668.622 20.376C668.622 19.016 668.894 17.824 669.438 16.8C669.998 15.76 670.766 14.96 671.742 14.4C672.718 13.84 673.838 13.56 675.102 13.56C676.702 13.56 678.022 13.944 679.062 14.712C680.118 15.464 680.83 16.544 681.198 17.952H678.246C678.006 17.296 677.622 16.784 677.094 16.416C676.566 16.048 675.902 15.864 675.102 15.864C673.982 15.864 673.086 16.264 672.414 17.064C671.758 17.848 671.43 18.952 671.43 20.376C671.43 21.8 671.758 22.912 672.414 23.712C673.086 24.512 673.982 24.912 675.102 24.912C676.686 24.912 677.734 24.216 678.246 22.824H681.198C680.814 24.168 680.094 25.24 679.038 26.04C677.982 26.824 676.67 27.216 675.102 27.216C673.838 27.216 672.718 26.936 671.742 26.376C670.766 25.8 669.998 25 669.438 23.976C668.894 22.936 668.622 21.736 668.622 20.376ZM689.661 27.216C688.413 27.216 687.285 26.936 686.277 26.376C685.269 25.8 684.477 25 683.901 23.976C683.325 22.936 683.037 21.736 683.037 20.376C683.037 19.032 683.333 17.84 683.925 16.8C684.517 15.76 685.325 14.96 686.349 14.4C687.373 13.84 688.517 13.56 689.781 13.56C691.045 13.56 692.189 13.84 693.213 14.4C694.237 14.96 695.045 15.76 695.637 16.8C696.229 17.84 696.525 19.032 696.525 20.376C696.525 21.72 696.221 22.912 695.613 23.952C695.005 24.992 694.173 25.8 693.117 26.376C692.077 26.936 690.925 27.216 689.661 27.216ZM689.661 24.84C690.365 24.84 691.021 24.672 691.629 24.336C692.253 24 692.757 23.496 693.141 22.824C693.525 22.152 693.717 21.336 693.717 20.376C693.717 19.416 693.533 18.608 693.165 17.952C692.797 17.28 692.309 16.776 691.701 16.44C691.093 16.104 690.437 15.936 689.733 15.936C689.029 15.936 688.373 16.104 687.765 16.44C687.173 16.776 686.701 17.28 686.349 17.952C685.997 18.608 685.821 19.416 685.821 20.376C685.821 21.8 686.181 22.904 686.901 23.688C687.637 24.456 688.557 24.84 689.661 24.84ZM705.902 13.56C706.942 13.56 707.87 13.776 708.686 14.208C709.518 14.64 710.166 15.28 710.63 16.128C711.094 16.976 711.326 18 711.326 19.2V27H708.614V19.608C708.614 18.424 708.318 17.52 707.726 16.896C707.134 16.256 706.326 15.936 705.302 15.936C704.278 15.936 703.462 16.256 702.854 16.896C702.262 17.52 701.966 18.424 701.966 19.608V27H699.23V13.776H701.966V15.288C702.414 14.744 702.982 14.32 703.67 14.016C704.374 13.712 705.118 13.56 705.902 13.56ZM720.552 27.216C719.304 27.216 718.176 26.936 717.168 26.376C716.16 25.8 715.368 25 714.792 23.976C714.216 22.936 713.928 21.736 713.928 20.376C713.928 19.032 714.224 17.84 714.816 16.8C715.408 15.76 716.216 14.96 717.24 14.4C718.264 13.84 719.408 13.56 720.672 13.56C721.936 13.56 723.08 13.84 724.104 14.4C725.128 14.96 725.936 15.76 726.528 16.8C727.12 17.84 727.416 19.032 727.416 20.376C727.416 21.72 727.112 22.912 726.504 23.952C725.896 24.992 725.064 25.8 724.008 26.376C722.968 26.936 721.816 27.216 720.552 27.216ZM720.552 24.84C721.256 24.84 721.912 24.672 722.52 24.336C723.144 24 723.648 23.496 724.032 22.824C724.416 22.152 724.608 21.336 724.608 20.376C724.608 19.416 724.424 18.608 724.056 17.952C723.688 17.28 723.2 16.776 722.592 16.44C721.984 16.104 721.328 15.936 720.624 15.936C719.92 15.936 719.264 16.104 718.656 16.44C718.064 16.776 717.592 17.28 717.24 17.952C716.888 18.608 716.712 19.416 716.712 20.376C716.712 21.8 717.072 22.904 717.792 23.688C718.528 24.456 719.448 24.84 720.552 24.84ZM746.128 13.56C747.168 13.56 748.096 13.776 748.912 14.208C749.744 14.64 750.392 15.28 750.856 16.128C751.336 16.976 751.576 18 751.576 19.2V27H748.864V19.608C748.864 18.424 748.568 17.52 747.976 16.896C747.384 16.256 746.576 15.936 745.552 15.936C744.528 15.936 743.712 16.256 743.104 16.896C742.512 17.52 742.216 18.424 742.216 19.608V27H739.504V19.608C739.504 18.424 739.208 17.52 738.616 16.896C738.024 16.256 737.216 15.936 736.192 15.936C735.168 15.936 734.352 16.256 733.744 16.896C733.152 17.52 732.856 18.424 732.856 19.608V27H730.12V13.776H732.856V15.288C733.304 14.744 733.872 14.32 734.56 14.016C735.248 13.712 735.984 13.56 736.768 13.56C737.824 13.56 738.768 13.784 739.6 14.232C740.432 14.68 741.072 15.328 741.52 16.176C741.92 15.376 742.544 14.744 743.392 14.28C744.24 13.8 745.152 13.56 746.128 13.56ZM757.794 13.776V27H755.058V13.776H757.794ZM758.898 10.224L753.594 12.84V10.824L758.898 7.896V10.224ZM760.474 20.328C760.474 19 760.746 17.824 761.29 16.8C761.85 15.776 762.602 14.984 763.546 14.424C764.506 13.848 765.562 13.56 766.714 13.56C767.754 13.56 768.658 13.768 769.426 14.184C770.21 14.584 770.834 15.088 771.298 15.696V13.776H774.058V27H771.298V25.032C770.834 25.656 770.202 26.176 769.402 26.592C768.602 27.008 767.69 27.216 766.666 27.216C765.53 27.216 764.49 26.928 763.546 26.352C762.602 25.76 761.85 24.944 761.29 23.904C760.746 22.848 760.474 21.656 760.474 20.328ZM771.298 20.376C771.298 19.464 771.106 18.672 770.722 18C770.354 17.328 769.866 16.816 769.258 16.464C768.65 16.112 767.994 15.936 767.29 15.936C766.586 15.936 765.93 16.112 765.322 16.464C764.714 16.8 764.218 17.304 763.834 17.976C763.466 18.632 763.282 19.416 763.282 20.328C763.282 21.24 763.466 22.04 763.834 22.728C764.218 23.416 764.714 23.944 765.322 24.312C765.946 24.664 766.602 24.84 767.29 24.84C767.994 24.84 768.65 24.664 769.258 24.312C769.866 23.96 770.354 23.448 770.722 22.776C771.106 22.088 771.298 21.288 771.298 20.376Z" fill="#FF5B4F"/>
<path d="M176.985 466.32V483H174.249V466.32H176.985ZM187.249 469.56C188.289 469.56 189.217 469.776 190.033 470.208C190.865 470.64 191.513 471.28 191.977 472.128C192.441 472.976 192.673 474 192.673 475.2V483H189.961V475.608C189.961 474.424 189.665 473.52 189.073 472.896C188.481 472.256 187.673 471.936 186.649 471.936C185.625 471.936 184.809 472.256 184.201 472.896C183.609 473.52 183.313 474.424 183.313 475.608V483H180.577V469.776H183.313V471.288C183.761 470.744 184.329 470.32 185.017 470.016C185.721 469.712 186.465 469.56 187.249 469.56ZM201.707 472.008H199.259V483H196.499V472.008H194.939V469.776H196.499V468.84C196.499 467.32 196.899 466.216 197.699 465.528C198.515 464.824 199.787 464.472 201.515 464.472V466.752C200.683 466.752 200.099 466.912 199.763 467.232C199.427 467.536 199.259 468.072 199.259 468.84V469.776H201.707V472.008ZM206.868 471.696C207.268 471.024 207.796 470.504 208.452 470.136C209.124 469.752 209.916 469.56 210.828 469.56V472.392H210.132C209.06 472.392 208.244 472.664 207.684 473.208C207.14 473.752 206.868 474.696 206.868 476.04V483H204.132V469.776H206.868V471.696ZM212.431 476.328C212.431 475 212.703 473.824 213.247 472.8C213.807 471.776 214.559 470.984 215.503 470.424C216.463 469.848 217.519 469.56 218.671 469.56C219.711 469.56 220.615 469.768 221.383 470.184C222.167 470.584 222.791 471.088 223.255 471.696V469.776H226.015V483H223.255V481.032C222.791 481.656 222.159 482.176 221.359 482.592C220.559 483.008 219.647 483.216 218.623 483.216C217.487 483.216 216.447 482.928 215.503 482.352C214.559 481.76 213.807 480.944 213.247 479.904C212.703 478.848 212.431 477.656 212.431 476.328ZM223.255 476.376C223.255 475.464 223.063 474.672 222.679 474C222.311 473.328 221.823 472.816 221.215 472.464C220.607 472.112 219.951 471.936 219.247 471.936C218.543 471.936 217.887 472.112 217.279 472.464C216.671 472.8 216.175 473.304 215.791 473.976C215.423 474.632 215.239 475.416 215.239 476.328C215.239 477.24 215.423 478.04 215.791 478.728C216.175 479.416 216.671 479.944 217.279 480.312C217.903 480.664 218.559 480.84 219.247 480.84C219.951 480.84 220.607 480.664 221.215 480.312C221.823 479.96 222.311 479.448 222.679 478.776C223.063 478.088 223.255 477.288 223.255 476.376ZM241.729 476.064C241.729 476.56 241.697 477.008 241.633 477.408H231.529C231.609 478.464 232.001 479.312 232.705 479.952C233.409 480.592 234.273 480.912 235.297 480.912C236.769 480.912 237.809 480.296 238.417 479.064H241.369C240.969 480.28 240.241 481.28 239.185 482.064C238.145 482.832 236.849 483.216 235.297 483.216C234.033 483.216 232.897 482.936 231.889 482.376C230.897 481.8 230.113 481 229.537 479.976C228.977 478.936 228.697 477.736 228.697 476.376C228.697 475.016 228.969 473.824 229.513 472.8C230.073 471.76 230.849 470.96 231.841 470.4C232.849 469.84 234.001 469.56 235.297 469.56C236.545 469.56 237.657 469.832 238.633 470.376C239.609 470.92 240.369 471.688 240.913 472.68C241.457 473.656 241.729 474.784 241.729 476.064ZM238.873 475.2C238.857 474.192 238.497 473.384 237.793 472.776C237.089 472.168 236.217 471.864 235.177 471.864C234.233 471.864 233.425 472.168 232.753 472.776C232.081 473.368 231.681 474.176 231.553 475.2H238.873ZM249.221 483.216C248.181 483.216 247.245 483.032 246.413 482.664C245.597 482.28 244.949 481.768 244.469 481.128C243.989 480.472 243.733 479.744 243.701 478.944H246.533C246.581 479.504 246.845 479.976 247.325 480.36C247.821 480.728 248.437 480.912 249.173 480.912C249.941 480.912 250.533 480.768 250.949 480.48C251.381 480.176 251.597 479.792 251.597 479.328C251.597 478.832 251.357 478.464 250.877 478.224C250.413 477.984 249.669 477.72 248.645 477.432C247.653 477.16 246.845 476.896 246.221 476.64C245.597 476.384 245.053 475.992 244.589 475.464C244.141 474.936 243.917 474.24 243.917 473.376C243.917 472.672 244.125 472.032 244.541 471.456C244.957 470.864 245.549 470.4 246.317 470.064C247.101 469.728 247.997 469.56 249.005 469.56C250.509 469.56 251.717 469.944 252.629 470.712C253.557 471.464 254.053 472.496 254.117 473.808H251.381C251.333 473.216 251.093 472.744 250.661 472.392C250.229 472.04 249.645 471.864 248.909 471.864C248.189 471.864 247.637 472 247.253 472.272C246.869 472.544 246.677 472.904 246.677 473.352C246.677 473.704 246.805 474 247.061 474.24C247.317 474.48 247.629 474.672 247.997 474.816C248.365 474.944 248.909 475.112 249.629 475.32C250.589 475.576 251.373 475.84 251.981 476.112C252.605 476.368 253.141 476.752 253.589 477.264C254.037 477.776 254.269 478.456 254.285 479.304C254.285 480.056 254.077 480.728 253.661 481.32C253.245 481.912 252.653 482.376 251.885 482.712C251.133 483.048 250.245 483.216 249.221 483.216ZM260.433 472.008V479.328C260.433 479.824 260.545 480.184 260.769 480.408C261.009 480.616 261.409 480.72 261.969 480.72H263.649V483H261.489C260.257 483 259.313 482.712 258.657 482.136C258.001 481.56 257.673 480.624 257.673 479.328V472.008H256.113V469.776H257.673V466.488H260.433V469.776H263.649V472.008H260.433ZM268.907 471.696C269.307 471.024 269.835 470.504 270.491 470.136C271.163 469.752 271.955 469.56 272.867 469.56V472.392H272.171C271.099 472.392 270.283 472.664 269.723 473.208C269.179 473.752 268.907 474.696 268.907 476.04V483H266.171V469.776H268.907V471.696ZM287.358 469.776V483H284.622V481.44C284.19 481.984 283.622 482.416 282.918 482.736C282.23 483.04 281.494 483.192 280.71 483.192C279.67 483.192 278.734 482.976 277.902 482.544C277.086 482.112 276.438 481.472 275.958 480.624C275.494 479.776 275.262 478.752 275.262 477.552V469.776H277.974V477.144C277.974 478.328 278.27 479.24 278.862 479.88C279.454 480.504 280.262 480.816 281.286 480.816C282.31 480.816 283.118 480.504 283.71 479.88C284.318 479.24 284.622 478.328 284.622 477.144V469.776H287.358ZM290.056 476.376C290.056 475.016 290.328 473.824 290.872 472.8C291.432 471.76 292.2 470.96 293.176 470.4C294.152 469.84 295.272 469.56 296.536 469.56C298.136 469.56 299.456 469.944 300.496 470.712C301.552 471.464 302.264 472.544 302.632 473.952H299.68C299.44 473.296 299.056 472.784 298.528 472.416C298 472.048 297.336 471.864 296.536 471.864C295.416 471.864 294.52 472.264 293.848 473.064C293.192 473.848 292.864 474.952 292.864 476.376C292.864 477.8 293.192 478.912 293.848 479.712C294.52 480.512 295.416 480.912 296.536 480.912C298.12 480.912 299.168 480.216 299.68 478.824H302.632C302.248 480.168 301.528 481.24 300.472 482.04C299.416 482.824 298.104 483.216 296.536 483.216C295.272 483.216 294.152 482.936 293.176 482.376C292.2 481.8 291.432 481 290.872 479.976C290.328 478.936 290.056 477.736 290.056 476.376ZM308.551 472.008V479.328C308.551 479.824 308.663 480.184 308.887 480.408C309.127 480.616 309.527 480.72 310.087 480.72H311.767V483H309.607C308.375 483 307.431 482.712 306.775 482.136C306.119 481.56 305.791 480.624 305.791 479.328V472.008H304.231V469.776H305.791V466.488H308.551V469.776H311.767V472.008H308.551ZM326.264 469.776V483H323.528V481.44C323.096 481.984 322.528 482.416 321.824 482.736C321.136 483.04 320.4 483.192 319.616 483.192C318.576 483.192 317.64 482.976 316.808 482.544C315.992 482.112 315.344 481.472 314.864 480.624C314.4 479.776 314.168 478.752 314.168 477.552V469.776H316.88V477.144C316.88 478.328 317.176 479.24 317.768 479.88C318.36 480.504 319.168 480.816 320.192 480.816C321.216 480.816 322.024 480.504 322.616 479.88C323.224 479.24 323.528 478.328 323.528 477.144V469.776H326.264ZM332.61 471.696C333.01 471.024 333.538 470.504 334.194 470.136C334.866 469.752 335.658 469.56 336.57 469.56V472.392H335.874C334.802 472.392 333.986 472.664 333.426 473.208C332.882 473.752 332.61 474.696 332.61 476.04V483H329.874V469.776H332.61V471.696ZM338.173 476.328C338.173 475 338.445 473.824 338.989 472.8C339.549 471.776 340.301 470.984 341.245 470.424C342.205 469.848 343.261 469.56 344.413 469.56C345.453 469.56 346.357 469.768 347.125 470.184C347.909 470.584 348.533 471.088 348.997 471.696V469.776H351.757V483H348.997V481.032C348.533 481.656 347.901 482.176 347.101 482.592C346.301 483.008 345.389 483.216 344.365 483.216C343.229 483.216 342.189 482.928 341.245 482.352C340.301 481.76 339.549 480.944 338.989 479.904C338.445 478.848 338.173 477.656 338.173 476.328ZM348.997 476.376C348.997 475.464 348.805 474.672 348.421 474C348.053 473.328 347.565 472.816 346.957 472.464C346.349 472.112 345.693 471.936 344.989 471.936C344.285 471.936 343.629 472.112 343.021 472.464C342.413 472.8 341.917 473.304 341.533 473.976C341.165 474.632 340.981 475.416 340.981 476.328C340.981 477.24 341.165 478.04 341.533 478.728C341.917 479.416 342.413 479.944 343.021 480.312C343.645 480.664 344.301 480.84 344.989 480.84C345.693 480.84 346.349 480.664 346.957 480.312C347.565 479.96 348.053 479.448 348.421 478.776C348.805 478.088 348.997 477.288 348.997 476.376Z" fill="#99CA9C"/>
</svg>
