<svg width="1158" height="536" viewBox="0 0 1158 536" fill="none" xmlns="http://www.w3.org/2000/svg">
<circle cx="184.039" cy="184.039" r="170.039" stroke="#2F376F" stroke-width="28"/>
<circle cx="381.463" cy="351.348" r="170.039" stroke="#2F376F" stroke-width="28"/>
<circle cx="578.888" cy="184.039" r="170.039" fill="#E0EAFD" stroke="#2F376F" stroke-width="28"/>
<circle cx="779.658" cy="351.348" r="170.039" stroke="#2F376F" stroke-width="28"/>
<circle cx="973.735" cy="184.039" r="170.039" stroke="#2F376F" stroke-width="28"/>
<path d="M467.657 116.048V121.64H473.753V123.44H467.657V129.2H474.473V131H465.473V114.248H474.473V116.048H467.657ZM479.962 113.24V131H477.778V113.24H479.962ZM502.082 123.92C502.082 124.336 502.058 124.776 502.01 125.24H491.498C491.578 126.536 492.018 127.552 492.818 128.288C493.634 129.008 494.618 129.368 495.77 129.368C496.714 129.368 497.498 129.152 498.122 128.72C498.762 128.272 499.21 127.68 499.466 126.944H501.818C501.466 128.208 500.762 129.24 499.706 130.04C498.65 130.824 497.338 131.216 495.77 131.216C494.522 131.216 493.402 130.936 492.41 130.376C491.434 129.816 490.666 129.024 490.106 128C489.546 126.96 489.266 125.76 489.266 124.4C489.266 123.04 489.538 121.848 490.082 120.824C490.626 119.8 491.386 119.016 492.362 118.472C493.354 117.912 494.49 117.632 495.77 117.632C497.018 117.632 498.122 117.904 499.082 118.448C500.042 118.992 500.778 119.744 501.29 120.704C501.818 121.648 502.082 122.72 502.082 123.92ZM499.826 123.464C499.826 122.632 499.642 121.92 499.274 121.328C498.906 120.72 498.402 120.264 497.762 119.96C497.138 119.64 496.442 119.48 495.674 119.48C494.57 119.48 493.626 119.832 492.842 120.536C492.074 121.24 491.634 122.216 491.522 123.464H499.826ZM509.861 128.984L513.941 117.848H516.269L511.109 131H508.565L503.405 117.848H505.757L509.861 128.984ZM530.418 123.92C530.418 124.336 530.394 124.776 530.346 125.24H519.834C519.914 126.536 520.354 127.552 521.154 128.288C521.97 129.008 522.954 129.368 524.106 129.368C525.05 129.368 525.834 129.152 526.458 128.72C527.098 128.272 527.546 127.68 527.802 126.944H530.154C529.802 128.208 529.098 129.24 528.042 130.04C526.986 130.824 525.674 131.216 524.106 131.216C522.858 131.216 521.738 130.936 520.746 130.376C519.77 129.816 519.002 129.024 518.442 128C517.882 126.96 517.602 125.76 517.602 124.4C517.602 123.04 517.874 121.848 518.418 120.824C518.962 119.8 519.722 119.016 520.698 118.472C521.69 117.912 522.826 117.632 524.106 117.632C525.354 117.632 526.458 117.904 527.418 118.448C528.378 118.992 529.114 119.744 529.626 120.704C530.154 121.648 530.418 122.72 530.418 123.92ZM528.162 123.464C528.162 122.632 527.978 121.92 527.61 121.328C527.242 120.72 526.738 120.264 526.098 119.96C525.474 119.64 524.778 119.48 524.01 119.48C522.906 119.48 521.962 119.832 521.178 120.536C520.41 121.24 519.97 122.216 519.858 123.464H528.162ZM539.709 117.608C541.309 117.608 542.605 118.096 543.597 119.072C544.589 120.032 545.085 121.424 545.085 123.248V131H542.925V123.56C542.925 122.248 542.597 121.248 541.941 120.56C541.285 119.856 540.389 119.504 539.253 119.504C538.101 119.504 537.181 119.864 536.493 120.584C535.821 121.304 535.485 122.352 535.485 123.728V131H533.301V117.848H535.485V119.72C535.917 119.048 536.501 118.528 537.237 118.16C537.989 117.792 538.813 117.608 539.709 117.608ZM551.317 119.648V127.4C551.317 128.04 551.453 128.496 551.725 128.768C551.997 129.024 552.469 129.152 553.141 129.152H554.749V131H552.781C551.565 131 550.653 130.72 550.045 130.16C549.437 129.6 549.133 128.68 549.133 127.4V119.648H547.429V117.848H549.133V114.536H551.317V117.848H554.749V119.648H551.317ZM563.131 131.216C561.899 131.216 560.779 130.936 559.771 130.376C558.779 129.816 557.995 129.024 557.419 128C556.859 126.96 556.579 125.76 556.579 124.4C556.579 123.056 556.867 121.872 557.443 120.848C558.035 119.808 558.835 119.016 559.843 118.472C560.851 117.912 561.979 117.632 563.227 117.632C564.475 117.632 565.603 117.912 566.611 118.472C567.619 119.016 568.411 119.8 568.987 120.824C569.579 121.848 569.875 123.04 569.875 124.4C569.875 125.76 569.571 126.96 568.963 128C568.371 129.024 567.563 129.816 566.539 130.376C565.515 130.936 564.379 131.216 563.131 131.216ZM563.131 129.296C563.915 129.296 564.651 129.112 565.339 128.744C566.027 128.376 566.579 127.824 566.995 127.088C567.427 126.352 567.643 125.456 567.643 124.4C567.643 123.344 567.435 122.448 567.019 121.712C566.603 120.976 566.059 120.432 565.387 120.08C564.715 119.712 563.987 119.528 563.203 119.528C562.403 119.528 561.667 119.712 560.995 120.08C560.339 120.432 559.811 120.976 559.411 121.712C559.011 122.448 558.811 123.344 558.811 124.4C558.811 125.472 559.003 126.376 559.387 127.112C559.787 127.848 560.315 128.4 560.971 128.768C561.627 129.12 562.347 129.296 563.131 129.296ZM578.329 124.376C578.329 123.032 578.601 121.856 579.145 120.848C579.689 119.824 580.433 119.032 581.377 118.472C582.337 117.912 583.409 117.632 584.593 117.632C585.617 117.632 586.569 117.872 587.449 118.352C588.329 118.816 589.001 119.432 589.465 120.2V113.24H591.673V131H589.465V128.528C589.033 129.312 588.393 129.96 587.545 130.472C586.697 130.968 585.705 131.216 584.569 131.216C583.401 131.216 582.337 130.928 581.377 130.352C580.433 129.776 579.689 128.968 579.145 127.928C578.601 126.888 578.329 125.704 578.329 124.376ZM589.465 124.4C589.465 123.408 589.265 122.544 588.865 121.808C588.465 121.072 587.921 120.512 587.233 120.128C586.561 119.728 585.817 119.528 585.001 119.528C584.185 119.528 583.441 119.72 582.769 120.104C582.097 120.488 581.561 121.048 581.161 121.784C580.761 122.52 580.561 123.384 580.561 124.376C580.561 125.384 580.761 126.264 581.161 127.016C581.561 127.752 582.097 128.32 582.769 128.72C583.441 129.104 584.185 129.296 585.001 129.296C585.817 129.296 586.561 129.104 587.233 128.72C587.921 128.32 588.465 127.752 588.865 127.016C589.265 126.264 589.465 125.392 589.465 124.4ZM607.364 123.92C607.364 124.336 607.34 124.776 607.292 125.24H596.78C596.86 126.536 597.3 127.552 598.1 128.288C598.916 129.008 599.9 129.368 601.052 129.368C601.996 129.368 602.78 129.152 603.404 128.72C604.044 128.272 604.492 127.68 604.748 126.944H607.1C606.748 128.208 606.044 129.24 604.988 130.04C603.932 130.824 602.62 131.216 601.052 131.216C599.804 131.216 598.684 130.936 597.692 130.376C596.716 129.816 595.948 129.024 595.388 128C594.828 126.96 594.548 125.76 594.548 124.4C594.548 123.04 594.82 121.848 595.364 120.824C595.908 119.8 596.668 119.016 597.644 118.472C598.636 117.912 599.772 117.632 601.052 117.632C602.3 117.632 603.404 117.904 604.364 118.448C605.324 118.992 606.06 119.744 606.572 120.704C607.1 121.648 607.364 122.72 607.364 123.92ZM605.108 123.464C605.108 122.632 604.924 121.92 604.556 121.328C604.188 120.72 603.684 120.264 603.044 119.96C602.42 119.64 601.724 119.48 600.956 119.48C599.852 119.48 598.908 119.832 598.124 120.536C597.356 121.24 596.916 122.216 596.804 123.464H605.108ZM612.43 120.272C612.862 119.52 613.502 118.896 614.35 118.4C615.214 117.888 616.214 117.632 617.35 117.632C618.518 117.632 619.574 117.912 620.518 118.472C621.478 119.032 622.23 119.824 622.774 120.848C623.318 121.856 623.59 123.032 623.59 124.376C623.59 125.704 623.318 126.888 622.774 127.928C622.23 128.968 621.478 129.776 620.518 130.352C619.574 130.928 618.518 131.216 617.35 131.216C616.23 131.216 615.238 130.968 614.374 130.472C613.526 129.96 612.878 129.328 612.43 128.576V137.24H610.246V117.848H612.43V120.272ZM621.358 124.376C621.358 123.384 621.158 122.52 620.758 121.784C620.358 121.048 619.814 120.488 619.126 120.104C618.454 119.72 617.71 119.528 616.894 119.528C616.094 119.528 615.35 119.728 614.662 120.128C613.99 120.512 613.446 121.08 613.03 121.832C612.63 122.568 612.43 123.424 612.43 124.4C612.43 125.392 612.63 126.264 613.03 127.016C613.446 127.752 613.99 128.32 614.662 128.72C615.35 129.104 616.094 129.296 616.894 129.296C617.71 129.296 618.454 129.104 619.126 128.72C619.814 128.32 620.358 127.752 620.758 127.016C621.158 126.264 621.358 125.384 621.358 124.376ZM632.201 131.216C630.969 131.216 629.849 130.936 628.841 130.376C627.849 129.816 627.065 129.024 626.489 128C625.929 126.96 625.649 125.76 625.649 124.4C625.649 123.056 625.937 121.872 626.513 120.848C627.105 119.808 627.905 119.016 628.913 118.472C629.921 117.912 631.049 117.632 632.297 117.632C633.545 117.632 634.673 117.912 635.681 118.472C636.689 119.016 637.481 119.8 638.057 120.824C638.649 121.848 638.945 123.04 638.945 124.4C638.945 125.76 638.641 126.96 638.033 128C637.441 129.024 636.633 129.816 635.609 130.376C634.585 130.936 633.449 131.216 632.201 131.216ZM632.201 129.296C632.985 129.296 633.721 129.112 634.409 128.744C635.097 128.376 635.649 127.824 636.065 127.088C636.497 126.352 636.713 125.456 636.713 124.4C636.713 123.344 636.505 122.448 636.089 121.712C635.673 120.976 635.129 120.432 634.457 120.08C633.785 119.712 633.057 119.528 632.273 119.528C631.473 119.528 630.737 119.712 630.065 120.08C629.409 120.432 628.881 120.976 628.481 121.712C628.081 122.448 627.881 123.344 627.881 124.4C627.881 125.472 628.073 126.376 628.457 127.112C628.857 127.848 629.385 128.4 630.041 128.768C630.697 129.12 631.417 129.296 632.201 129.296ZM644.001 119.984C644.385 119.232 644.929 118.648 645.633 118.232C646.353 117.816 647.225 117.608 648.249 117.608V119.864H647.673C645.225 119.864 644.001 121.192 644.001 123.848V131H641.817V117.848H644.001V119.984ZM653.434 119.648V127.4C653.434 128.04 653.57 128.496 653.842 128.768C654.114 129.024 654.586 129.152 655.258 129.152H656.866V131H654.898C653.682 131 652.77 130.72 652.162 130.16C651.554 129.6 651.25 128.68 651.25 127.4V119.648H649.546V117.848H651.25V114.536H653.434V117.848H656.866V119.648H653.434ZM660.64 115.712C660.224 115.712 659.872 115.568 659.584 115.28C659.296 114.992 659.152 114.64 659.152 114.224C659.152 113.808 659.296 113.456 659.584 113.168C659.872 112.88 660.224 112.736 660.64 112.736C661.04 112.736 661.376 112.88 661.648 113.168C661.936 113.456 662.08 113.808 662.08 114.224C662.08 114.64 661.936 114.992 661.648 115.28C661.376 115.568 661.04 115.712 660.64 115.712ZM661.696 117.848V131H659.512V117.848H661.696ZM670.314 128.984L674.394 117.848H676.722L671.562 131H669.018L663.858 117.848H666.21L670.314 128.984ZM684.607 131.216C683.375 131.216 682.255 130.936 681.247 130.376C680.255 129.816 679.471 129.024 678.895 128C678.335 126.96 678.055 125.76 678.055 124.4C678.055 123.056 678.343 121.872 678.919 120.848C679.511 119.808 680.311 119.016 681.319 118.472C682.327 117.912 683.455 117.632 684.703 117.632C685.951 117.632 687.079 117.912 688.087 118.472C689.095 119.016 689.887 119.8 690.463 120.824C691.055 121.848 691.351 123.04 691.351 124.4C691.351 125.76 691.047 126.96 690.439 128C689.847 129.024 689.039 129.816 688.015 130.376C686.991 130.936 685.855 131.216 684.607 131.216ZM684.607 129.296C685.391 129.296 686.127 129.112 686.815 128.744C687.503 128.376 688.055 127.824 688.471 127.088C688.903 126.352 689.119 125.456 689.119 124.4C689.119 123.344 688.911 122.448 688.495 121.712C688.079 120.976 687.535 120.432 686.863 120.08C686.191 119.712 685.463 119.528 684.679 119.528C683.879 119.528 683.143 119.712 682.471 120.08C681.815 120.432 681.287 120.976 680.887 121.712C680.487 122.448 680.287 123.344 680.287 124.4C680.287 125.472 680.479 126.376 680.863 127.112C681.263 127.848 681.791 128.4 682.447 128.768C683.103 129.12 683.823 129.296 684.607 129.296ZM483.15 153.464C484.814 153.464 486.134 153.968 487.11 154.976C488.102 155.984 488.598 157.384 488.598 159.176V167H484.518V159.728C484.518 158.864 484.286 158.2 483.822 157.736C483.374 157.256 482.75 157.016 481.95 157.016C481.15 157.016 480.518 157.256 480.054 157.736C479.606 158.2 479.382 158.864 479.382 159.728V167H475.302V159.728C475.302 158.864 475.07 158.2 474.606 157.736C474.158 157.256 473.534 157.016 472.734 157.016C471.934 157.016 471.302 157.256 470.838 157.736C470.39 158.2 470.166 158.864 470.166 159.728V167H466.062V153.608H470.166V155.288C470.582 154.728 471.126 154.288 471.798 153.968C472.47 153.632 473.23 153.464 474.078 153.464C475.086 153.464 475.982 153.68 476.766 154.112C477.566 154.544 478.19 155.16 478.638 155.96C479.102 155.224 479.734 154.624 480.534 154.16C481.334 153.696 482.206 153.464 483.15 153.464ZM490.652 160.28C490.652 158.904 490.908 157.696 491.42 156.656C491.948 155.616 492.66 154.816 493.556 154.256C494.452 153.696 495.452 153.416 496.556 153.416C497.5 153.416 498.324 153.608 499.028 153.992C499.748 154.376 500.3 154.88 500.684 155.504V153.608H504.788V167H500.684V165.104C500.284 165.728 499.724 166.232 499.004 166.616C498.3 167 497.476 167.192 496.532 167.192C495.444 167.192 494.452 166.912 493.556 166.352C492.66 165.776 491.948 164.968 491.42 163.928C490.908 162.872 490.652 161.656 490.652 160.28ZM500.684 160.304C500.684 159.28 500.396 158.472 499.82 157.88C499.26 157.288 498.572 156.992 497.756 156.992C496.94 156.992 496.244 157.288 495.668 157.88C495.108 158.456 494.828 159.256 494.828 160.28C494.828 161.304 495.108 162.12 495.668 162.728C496.244 163.32 496.94 163.616 497.756 163.616C498.572 163.616 499.26 163.32 499.82 162.728C500.396 162.136 500.684 161.328 500.684 160.304ZM500.996 150.272L495.212 152.696V149.864L500.996 147.08V150.272ZM513.206 167.192C512.038 167.192 510.998 166.992 510.086 166.592C509.174 166.192 508.454 165.648 507.926 164.96C507.398 164.256 507.102 163.472 507.038 162.608H511.094C511.142 163.072 511.358 163.448 511.742 163.736C512.126 164.024 512.598 164.168 513.158 164.168C513.67 164.168 514.062 164.072 514.334 163.88C514.622 163.672 514.766 163.408 514.766 163.088C514.766 162.704 514.566 162.424 514.166 162.248C513.766 162.056 513.118 161.848 512.222 161.624C511.262 161.4 510.462 161.168 509.822 160.928C509.182 160.672 508.63 160.28 508.166 159.752C507.702 159.208 507.47 158.48 507.47 157.568C507.47 156.8 507.678 156.104 508.094 155.48C508.526 154.84 509.15 154.336 509.966 153.968C510.798 153.6 511.782 153.416 512.918 153.416C514.598 153.416 515.918 153.832 516.878 154.664C517.854 155.496 518.414 156.6 518.558 157.976H514.766C514.702 157.512 514.494 157.144 514.142 156.872C513.806 156.6 513.358 156.464 512.798 156.464C512.318 156.464 511.95 156.56 511.694 156.752C511.438 156.928 511.31 157.176 511.31 157.496C511.31 157.88 511.51 158.168 511.91 158.36C512.326 158.552 512.966 158.744 513.83 158.936C514.822 159.192 515.63 159.448 516.254 159.704C516.878 159.944 517.422 160.344 517.886 160.904C518.366 161.448 518.614 162.184 518.63 163.112C518.63 163.896 518.406 164.6 517.958 165.224C517.526 165.832 516.894 166.312 516.062 166.664C515.246 167.016 514.294 167.192 513.206 167.192ZM538.85 160.088C538.85 160.472 538.826 160.872 538.778 161.288H529.49C529.554 162.12 529.818 162.76 530.282 163.208C530.762 163.64 531.346 163.856 532.034 163.856C533.058 163.856 533.77 163.424 534.17 162.56H538.538C538.314 163.44 537.906 164.232 537.314 164.936C536.738 165.64 536.01 166.192 535.13 166.592C534.25 166.992 533.266 167.192 532.178 167.192C530.866 167.192 529.698 166.912 528.674 166.352C527.65 165.792 526.85 164.992 526.274 163.952C525.698 162.912 525.41 161.696 525.41 160.304C525.41 158.912 525.69 157.696 526.25 156.656C526.826 155.616 527.626 154.816 528.65 154.256C529.674 153.696 530.85 153.416 532.178 153.416C533.474 153.416 534.626 153.688 535.634 154.232C536.642 154.776 537.426 155.552 537.986 156.56C538.562 157.568 538.85 158.744 538.85 160.088ZM534.65 159.008C534.65 158.304 534.41 157.744 533.93 157.328C533.45 156.912 532.85 156.704 532.13 156.704C531.442 156.704 530.858 156.904 530.378 157.304C529.914 157.704 529.626 158.272 529.514 159.008H534.65ZM558.103 153.464C559.767 153.464 561.087 153.968 562.063 154.976C563.055 155.984 563.551 157.384 563.551 159.176V167H559.471V159.728C559.471 158.864 559.239 158.2 558.775 157.736C558.327 157.256 557.703 157.016 556.903 157.016C556.103 157.016 555.471 157.256 555.007 157.736C554.559 158.2 554.335 158.864 554.335 159.728V167H550.255V159.728C550.255 158.864 550.023 158.2 549.559 157.736C549.111 157.256 548.487 157.016 547.687 157.016C546.887 157.016 546.255 157.256 545.791 157.736C545.343 158.2 545.119 158.864 545.119 159.728V167H541.015V153.608H545.119V155.288C545.535 154.728 546.079 154.288 546.751 153.968C547.423 153.632 548.183 153.464 549.031 153.464C550.039 153.464 550.935 153.68 551.719 154.112C552.519 154.544 553.143 155.16 553.591 155.96C554.055 155.224 554.687 154.624 555.487 154.16C556.287 153.696 557.159 153.464 558.103 153.464ZM570.526 155.504C570.91 154.88 571.462 154.376 572.182 153.992C572.902 153.608 573.726 153.416 574.654 153.416C575.758 153.416 576.758 153.696 577.654 154.256C578.55 154.816 579.254 155.616 579.766 156.656C580.294 157.696 580.558 158.904 580.558 160.28C580.558 161.656 580.294 162.872 579.766 163.928C579.254 164.968 578.55 165.776 577.654 166.352C576.758 166.912 575.758 167.192 574.654 167.192C573.71 167.192 572.886 167.008 572.182 166.64C571.478 166.256 570.926 165.752 570.526 165.128V167H566.422V149.24H570.526V155.504ZM576.382 160.28C576.382 159.256 576.094 158.456 575.518 157.88C574.958 157.288 574.262 156.992 573.43 156.992C572.614 156.992 571.918 157.288 571.342 157.88C570.782 158.472 570.502 159.28 570.502 160.304C570.502 161.328 570.782 162.136 571.342 162.728C571.918 163.32 572.614 163.616 573.43 163.616C574.246 163.616 574.942 163.32 575.518 162.728C576.094 162.12 576.382 161.304 576.382 160.28ZM586.815 149.24V167H582.711V149.24H586.815ZM602.413 160.088C602.413 160.472 602.389 160.872 602.341 161.288H593.053C593.117 162.12 593.381 162.76 593.845 163.208C594.325 163.64 594.909 163.856 595.597 163.856C596.621 163.856 597.333 163.424 597.733 162.56H602.101C601.877 163.44 601.469 164.232 600.877 164.936C600.301 165.64 599.573 166.192 598.693 166.592C597.813 166.992 596.829 167.192 595.741 167.192C594.429 167.192 593.261 166.912 592.237 166.352C591.213 165.792 590.413 164.992 589.837 163.952C589.261 162.912 588.973 161.696 588.973 160.304C588.973 158.912 589.253 157.696 589.813 156.656C590.389 155.616 591.189 154.816 592.213 154.256C593.237 153.696 594.413 153.416 595.741 153.416C597.037 153.416 598.189 153.688 599.197 154.232C600.205 154.776 600.989 155.552 601.549 156.56C602.125 157.568 602.413 158.744 602.413 160.088ZM598.213 159.008C598.213 158.304 597.973 157.744 597.493 157.328C597.013 156.912 596.413 156.704 595.693 156.704C595.005 156.704 594.421 156.904 593.941 157.304C593.477 157.704 593.189 158.272 593.077 159.008H598.213ZM621.666 153.464C623.33 153.464 624.65 153.968 625.626 154.976C626.618 155.984 627.114 157.384 627.114 159.176V167H623.034V159.728C623.034 158.864 622.802 158.2 622.338 157.736C621.89 157.256 621.266 157.016 620.466 157.016C619.666 157.016 619.034 157.256 618.57 157.736C618.122 158.2 617.898 158.864 617.898 159.728V167H613.818V159.728C613.818 158.864 613.586 158.2 613.122 157.736C612.674 157.256 612.05 157.016 611.25 157.016C610.45 157.016 609.818 157.256 609.354 157.736C608.906 158.2 608.682 158.864 608.682 159.728V167H604.578V153.608H608.682V155.288C609.098 154.728 609.642 154.288 610.314 153.968C610.986 153.632 611.746 153.464 612.594 153.464C613.602 153.464 614.498 153.68 615.282 154.112C616.082 154.544 616.706 155.16 617.154 155.96C617.618 155.224 618.25 154.624 619.05 154.16C619.85 153.696 620.722 153.464 621.666 153.464ZM629.168 160.28C629.168 158.904 629.424 157.696 629.936 156.656C630.464 155.616 631.176 154.816 632.072 154.256C632.968 153.696 633.968 153.416 635.072 153.416C636.016 153.416 636.84 153.608 637.544 153.992C638.264 154.376 638.816 154.88 639.2 155.504V153.608H643.304V167H639.2V165.104C638.8 165.728 638.24 166.232 637.52 166.616C636.816 167 635.992 167.192 635.048 167.192C633.96 167.192 632.968 166.912 632.072 166.352C631.176 165.776 630.464 164.968 629.936 163.928C629.424 162.872 629.168 161.656 629.168 160.28ZM639.2 160.304C639.2 159.28 638.912 158.472 638.336 157.88C637.776 157.288 637.088 156.992 636.272 156.992C635.456 156.992 634.76 157.288 634.184 157.88C633.624 158.456 633.344 159.256 633.344 160.28C633.344 161.304 633.624 162.12 634.184 162.728C634.76 163.32 635.456 163.616 636.272 163.616C637.088 163.616 637.776 163.32 638.336 162.728C638.912 162.136 639.2 161.328 639.2 160.304ZM639.512 150.272L633.728 152.696V149.864L639.512 147.08V150.272ZM653.737 163.52V167H651.649C650.161 167 649.001 166.64 648.169 165.92C647.337 165.184 646.921 163.992 646.921 162.344V157.016H645.289V153.608H646.921V150.344H651.025V153.608H653.713V157.016H651.025V162.392C651.025 162.792 651.121 163.08 651.313 163.256C651.505 163.432 651.825 163.52 652.273 163.52H653.737ZM658.087 152.216C657.367 152.216 656.775 152.008 656.311 151.592C655.863 151.16 655.639 150.632 655.639 150.008C655.639 149.368 655.863 148.84 656.311 148.424C656.775 147.992 657.367 147.776 658.087 147.776C658.791 147.776 659.367 147.992 659.815 148.424C660.279 148.84 660.511 149.368 660.511 150.008C660.511 150.632 660.279 151.16 659.815 151.592C659.367 152.008 658.791 152.216 658.087 152.216ZM660.127 153.608V167H656.023V153.608H660.127ZM662.285 160.304C662.285 158.912 662.565 157.696 663.125 156.656C663.701 155.616 664.493 154.816 665.501 154.256C666.525 153.696 667.693 153.416 669.005 153.416C670.685 153.416 672.085 153.856 673.205 154.736C674.341 155.616 675.085 156.856 675.437 158.456H671.069C670.701 157.432 669.989 156.92 668.933 156.92C668.181 156.92 667.581 157.216 667.133 157.808C666.685 158.384 666.461 159.216 666.461 160.304C666.461 161.392 666.685 162.232 667.133 162.824C667.581 163.4 668.181 163.688 668.933 163.688C669.989 163.688 670.701 163.176 671.069 162.152H675.437C675.085 163.72 674.341 164.952 673.205 165.848C672.069 166.744 670.669 167.192 669.005 167.192C667.693 167.192 666.525 166.912 665.501 166.352C664.493 165.792 663.701 164.992 663.125 163.952C662.565 162.912 662.285 161.696 662.285 160.304ZM683.729 167.192C682.417 167.192 681.233 166.912 680.177 166.352C679.137 165.792 678.313 164.992 677.705 163.952C677.113 162.912 676.817 161.696 676.817 160.304C676.817 158.928 677.121 157.72 677.729 156.68C678.337 155.624 679.169 154.816 680.225 154.256C681.281 153.696 682.465 153.416 683.777 153.416C685.089 153.416 686.273 153.696 687.329 154.256C688.385 154.816 689.217 155.624 689.825 156.68C690.433 157.72 690.737 158.928 690.737 160.304C690.737 161.68 690.425 162.896 689.801 163.952C689.193 164.992 688.353 165.792 687.281 166.352C686.225 166.912 685.041 167.192 683.729 167.192ZM683.729 163.64C684.513 163.64 685.177 163.352 685.721 162.776C686.281 162.2 686.561 161.376 686.561 160.304C686.561 159.232 686.289 158.408 685.745 157.832C685.217 157.256 684.561 156.968 683.777 156.968C682.977 156.968 682.313 157.256 681.785 157.832C681.257 158.392 680.993 159.216 680.993 160.304C680.993 161.376 681.249 162.2 681.761 162.776C682.289 163.352 682.945 163.64 683.729 163.64ZM512.391 196.28C512.391 194.904 512.647 193.696 513.159 192.656C513.687 191.616 514.399 190.816 515.295 190.256C516.191 189.696 517.191 189.416 518.295 189.416C519.175 189.416 519.975 189.6 520.695 189.968C521.431 190.336 522.007 190.832 522.423 191.456V185.24H526.527V203H522.423V201.08C522.039 201.72 521.487 202.232 520.767 202.616C520.063 203 519.239 203.192 518.295 203.192C517.191 203.192 516.191 202.912 515.295 202.352C514.399 201.776 513.687 200.968 513.159 199.928C512.647 198.872 512.391 197.656 512.391 196.28ZM522.423 196.304C522.423 195.28 522.135 194.472 521.559 193.88C520.999 193.288 520.311 192.992 519.495 192.992C518.679 192.992 517.983 193.288 517.407 193.88C516.847 194.456 516.567 195.256 516.567 196.28C516.567 197.304 516.847 198.12 517.407 198.728C517.983 199.32 518.679 199.616 519.495 199.616C520.311 199.616 520.999 199.32 521.559 198.728C522.135 198.136 522.423 197.328 522.423 196.304ZM542.12 196.088C542.12 196.472 542.096 196.872 542.048 197.288H532.76C532.824 198.12 533.088 198.76 533.552 199.208C534.032 199.64 534.616 199.856 535.304 199.856C536.328 199.856 537.04 199.424 537.44 198.56H541.808C541.584 199.44 541.176 200.232 540.584 200.936C540.008 201.64 539.28 202.192 538.4 202.592C537.52 202.992 536.536 203.192 535.448 203.192C534.136 203.192 532.968 202.912 531.944 202.352C530.92 201.792 530.12 200.992 529.544 199.952C528.968 198.912 528.68 197.696 528.68 196.304C528.68 194.912 528.96 193.696 529.52 192.656C530.096 191.616 530.896 190.816 531.92 190.256C532.944 189.696 534.12 189.416 535.448 189.416C536.744 189.416 537.896 189.688 538.904 190.232C539.912 190.776 540.696 191.552 541.256 192.56C541.832 193.568 542.12 194.744 542.12 196.088ZM537.92 195.008C537.92 194.304 537.68 193.744 537.2 193.328C536.72 192.912 536.12 192.704 535.4 192.704C534.712 192.704 534.128 192.904 533.648 193.304C533.184 193.704 532.896 194.272 532.784 195.008H537.92ZM548.389 185.24V203H544.285V185.24H548.389ZM573.537 189.464C575.201 189.464 576.521 189.968 577.497 190.976C578.489 191.984 578.985 193.384 578.985 195.176V203H574.905V195.728C574.905 194.864 574.673 194.2 574.209 193.736C573.761 193.256 573.137 193.016 572.337 193.016C571.537 193.016 570.905 193.256 570.441 193.736C569.993 194.2 569.769 194.864 569.769 195.728V203H565.689V195.728C565.689 194.864 565.457 194.2 564.993 193.736C564.545 193.256 563.921 193.016 563.121 193.016C562.321 193.016 561.689 193.256 561.225 193.736C560.777 194.2 560.553 194.864 560.553 195.728V203H556.449V189.608H560.553V191.288C560.969 190.728 561.513 190.288 562.185 189.968C562.857 189.632 563.617 189.464 564.465 189.464C565.473 189.464 566.369 189.68 567.153 190.112C567.953 190.544 568.577 191.16 569.025 191.96C569.489 191.224 570.121 190.624 570.921 190.16C571.721 189.696 572.593 189.464 573.537 189.464ZM595.079 189.608V203H590.975V201.176C590.559 201.768 589.991 202.248 589.271 202.616C588.567 202.968 587.783 203.144 586.919 203.144C585.895 203.144 584.991 202.92 584.207 202.472C583.423 202.008 582.815 201.344 582.383 200.48C581.951 199.616 581.735 198.6 581.735 197.432V189.608H585.815V196.88C585.815 197.776 586.047 198.472 586.511 198.968C586.975 199.464 587.599 199.712 588.383 199.712C589.183 199.712 589.815 199.464 590.279 198.968C590.743 198.472 590.975 197.776 590.975 196.88V189.608H595.079ZM606.187 189.464C607.755 189.464 609.003 189.976 609.931 191C610.875 192.008 611.347 193.4 611.347 195.176V203H607.267V195.728C607.267 194.832 607.035 194.136 606.571 193.64C606.107 193.144 605.483 192.896 604.699 192.896C603.915 192.896 603.291 193.144 602.827 193.64C602.363 194.136 602.131 194.832 602.131 195.728V203H598.027V189.608H602.131V191.384C602.547 190.792 603.107 190.328 603.811 189.992C604.515 189.64 605.307 189.464 606.187 189.464ZM613.383 196.28C613.383 194.904 613.639 193.696 614.151 192.656C614.679 191.616 615.391 190.816 616.287 190.256C617.183 189.696 618.183 189.416 619.287 189.416C620.167 189.416 620.967 189.6 621.687 189.968C622.423 190.336 622.999 190.832 623.415 191.456V185.24H627.519V203H623.415V201.08C623.031 201.72 622.479 202.232 621.759 202.616C621.055 203 620.231 203.192 619.287 203.192C618.183 203.192 617.183 202.912 616.287 202.352C615.391 201.776 614.679 200.968 614.151 199.928C613.639 198.872 613.383 197.656 613.383 196.28ZM623.415 196.304C623.415 195.28 623.127 194.472 622.551 193.88C621.991 193.288 621.303 192.992 620.487 192.992C619.671 192.992 618.975 193.288 618.399 193.88C617.839 194.456 617.559 195.256 617.559 196.28C617.559 197.304 617.839 198.12 618.399 198.728C618.975 199.32 619.671 199.616 620.487 199.616C621.303 199.616 621.991 199.32 622.551 198.728C623.127 198.136 623.415 197.328 623.415 196.304ZM636.584 203.192C635.272 203.192 634.088 202.912 633.032 202.352C631.992 201.792 631.168 200.992 630.56 199.952C629.968 198.912 629.672 197.696 629.672 196.304C629.672 194.928 629.976 193.72 630.584 192.68C631.192 191.624 632.024 190.816 633.08 190.256C634.136 189.696 635.32 189.416 636.632 189.416C637.944 189.416 639.128 189.696 640.184 190.256C641.24 190.816 642.072 191.624 642.68 192.68C643.288 193.72 643.592 194.928 643.592 196.304C643.592 197.68 643.28 198.896 642.656 199.952C642.048 200.992 641.208 201.792 640.136 202.352C639.08 202.912 637.896 203.192 636.584 203.192ZM636.584 199.64C637.368 199.64 638.032 199.352 638.576 198.776C639.136 198.2 639.416 197.376 639.416 196.304C639.416 195.232 639.144 194.408 638.6 193.832C638.072 193.256 637.416 192.968 636.632 192.968C635.832 192.968 635.168 193.256 634.64 193.832C634.112 194.392 633.848 195.216 633.848 196.304C633.848 197.376 634.104 198.2 634.616 198.776C635.144 199.352 635.8 199.64 636.584 199.64Z" fill="#2A305C"/>
</svg>
