<svg width="249" height="188" viewBox="0 0 249 188" fill="none" xmlns="http://www.w3.org/2000/svg">
<g clip-path="url(#clip0_288_28220)">
<rect width="249" height="188" fill="white"/>
<path d="M15.9887 114.179L10.6947 117.032L2.3773 123.453L0 126.857V131.692L3.45618 135.573L4.21516 138.031L3.02964 143.737L3.35582 149.92L6.05301 153.249L8.75021 154.836L13.2853 156.027L22.7882 156.347L27.756 155.714C27.756 155.714 31.645 155.714 34.3422 156.347C37.0394 156.98 50.3247 163.244 50.3247 163.244L61.0131 168.555L122.453 184.018L126.016 186.47L144.369 187.661L150.416 185.046L153.765 185.203C153.765 185.203 158.407 187.423 159.273 187.661C160.138 187.899 168.669 188.056 169.208 187.981C169.748 187.906 194.474 178.231 194.474 178.231L201.6 173.396L211.429 169.433L214.126 168.8C214.126 168.8 224.382 166.662 226.326 165.552C228.271 164.442 235.723 159.294 235.723 159.294C235.723 159.294 241.983 156.761 243.174 155.413C244.36 154.065 246.631 145.029 247.17 139.009C247.709 132.984 249.441 130.45 248.895 128.707C248.349 126.964 247.057 122.844 247.057 122.844L245.978 95.1859C245.978 95.1859 243.927 89.3983 242.309 88.37C240.69 87.3416 237.448 80.2875 237.448 80.2875L234.211 78.1493L230.109 77.121L221.365 69.6718L216.723 50.0205C216.723 50.0205 217.049 47.3242 213.054 45.581C209.058 43.8379 202.365 44.4712 202.365 44.4712L184.764 44.3583L169.974 43.7564L165.765 42.728L106.59 44.2329L81.217 53.9018L70.6352 61.746L67.7185 63.0126L60.9128 65.0756L48.2798 73.9544L44.9303 78.8704L44.6041 80.4568L42.0136 83.7863L37.0457 87.8307L26.3573 99.8761L23.4405 104.629L18.7988 109.144L15.9887 114.216V114.179Z" fill="#587259"/>
<path d="M15.9887 107.451L10.6947 110.304L2.3773 116.725L0 120.129V124.964L3.45618 128.845L4.21516 131.303L3.02964 137.009L3.35582 143.192L6.05301 146.521L8.75021 148.108L13.2853 149.299L22.7882 149.619L27.756 148.986C27.756 148.986 31.645 148.986 34.3422 149.619C37.0394 150.252 50.3247 156.516 50.3247 156.516L61.0131 161.827L122.453 177.29L126.016 179.742L144.369 180.933L150.416 178.318L153.765 178.475C153.765 178.475 158.407 180.695 159.273 180.933C160.138 181.171 168.669 181.328 169.208 181.253C169.748 181.178 194.474 171.502 194.474 171.502L201.6 166.668L211.429 162.705L214.126 162.072C214.126 162.072 224.382 159.934 226.326 158.824C228.271 157.714 235.723 152.566 235.723 152.566C235.723 152.566 241.983 150.033 243.174 148.685C244.36 147.337 246.631 138.301 247.17 132.281C247.709 126.256 249.441 123.722 248.895 121.979C248.349 120.236 247.057 116.116 247.057 116.116L245.978 88.4578C245.978 88.4578 243.927 82.6703 242.309 81.6419C240.69 80.6136 237.448 73.5595 237.448 73.5595L234.211 71.4213L230.109 70.3929L221.365 62.9437L216.723 43.2924C216.723 43.2924 217.049 40.5962 213.054 38.853C209.058 37.1099 202.365 37.7432 202.365 37.7432L184.764 37.6303L169.974 37.0283L165.765 36L106.59 37.5049L81.217 47.1738L70.6352 55.018L67.7185 56.2846L60.9128 58.3476L48.2798 67.2264L44.9303 72.1424L44.6041 73.7288L42.0136 77.0583L37.0457 81.1027L26.3573 93.1481L23.4405 97.901L18.7988 102.416L15.9887 107.488V107.451Z" fill="#BDD59B"/>
<path d="M61.3761 78L52 85.7395L89.4708 110L116 96.725L109.216 83.3988L61.3761 78Z" fill="#2A305C"/>
<path d="M61.8762 85.7271V28.5078C61.8762 28.5078 60.2116 2.22425 79.8815 0L107.093 16.0452C107.093 16.0452 114.142 18.7618 114.142 27.54V92.1622L91.2961 103.895L61.8762 85.7271Z" fill="#E0EAFD"/>
<path d="M70.8276 89.2252V77.1531L80.5607 83.2995V95.2867L70.8276 89.2252Z" fill="#8796B8"/>
<path d="M91.415 45.5378C91.415 45.5378 90.9394 23.5669 104.902 18.7958C114.142 15.6377 114.125 27.523 114.125 27.523V92.1452L91.415 103.878V46.0132" fill="#8796B8"/>
<path d="M92.6551 45.9623C92.6551 45.9623 92.2304 24.8403 104.664 20.239C112.885 17.1998 112.886 28.6267 112.886 28.6267V90.8039L92.6551 102.095V46.4377" fill="#4C5173"/>
<path d="M63.1841 27.7945L89.9372 44.8584C89.9372 44.8584 88.952 20.7821 106.278 16.826L79.5247 1.05249C79.5247 1.05249 63.1841 1.69769 63.1841 27.7945Z" fill="#8796B8"/>
<path d="M82.7012 10.1029L90.9055 4.73755L93.2665 6.19775L85.2661 11.5631L82.7012 10.1029Z" fill="#E0EAFD"/>
<path d="M82.7012 10.1023V22.5819L85.3 24.076V11.5625L82.7012 10.1023Z" fill="#73809D"/>
<path d="M85.3003 24.0759L93.2668 18.1333V6.19702L85.3003 11.5624V24.0759Z" fill="#4C5173"/>
<path d="M87.5933 13.6335V26.1131L90.1921 27.6073V15.0937L87.5933 13.6335Z" fill="#73809D"/>
<path d="M90.1919 27.6077L98.1584 16.5883V9.72876L90.1919 15.0941V27.6077Z" fill="#4C5173"/>
<path d="M87.5933 13.6005L95.7975 8.23511L98.1586 9.6953L90.1582 15.0607L87.5933 13.6005Z" fill="#E0EAFD"/>
<path d="M61.9951 32.7014L91.4151 51.3953" stroke="#8796B8" stroke-width="0.37071" stroke-linecap="round" stroke-linejoin="round"/>
<path d="M61.9951 51.5823L91.4151 70.2762" stroke="#8796B8" stroke-width="0.37071" stroke-linecap="round" stroke-linejoin="round"/>
<path d="M61.9951 68.4768L91.4151 87.1707" stroke="#8796B8" stroke-width="0.37071" stroke-linecap="round" stroke-linejoin="round"/>
<path opacity="0.62" d="M63.8975 38.7966V49.0859L67.9062 51.5818V41.2926L63.8975 38.7966Z" fill="#8796B8"/>
<path opacity="0.62" d="M64.3901 39.1023V48.7803L67.9063 50.9367V41.2926L64.3901 39.1023Z" fill="#4C5173"/>
<path opacity="0.62" d="M70.0464 42.4646V52.7709L74.0551 55.2668V44.9605L70.0464 42.4646Z" fill="#8796B8"/>
<path opacity="0.62" d="M70.522 42.7703V52.4653L74.0551 54.6216V44.9606L70.522 42.7703Z" fill="#4C5173"/>
<path opacity="0.62" d="M77.2827 46.9802V57.2865L81.2914 59.7654V49.4761L77.2827 46.9802Z" fill="#8796B8"/>
<path opacity="0.62" d="M77.7583 47.2864V56.9644L81.2914 59.1208V49.4767L77.7583 47.2864Z" fill="#4C5173"/>
<path opacity="0.62" d="M83.5674 51.1736V61.4629L87.5931 63.9588V53.6695L83.5674 51.1736Z" fill="#8796B8"/>
<path opacity="0.62" d="M84.0601 51.4797V61.1578L87.5932 63.3141V53.6531L84.0601 51.4797Z" fill="#4C5173"/>
<path opacity="0.62" d="M63.8975 56.3875V66.6937L67.9062 69.1896V58.8834L63.8975 56.3875Z" fill="#8796B8"/>
<path opacity="0.62" d="M64.3901 56.6941V66.3721L67.9063 68.5455V58.8844L64.3901 56.6941Z" fill="#4C5173"/>
<path opacity="0.62" d="M70.0464 60.0725V70.3618L74.0551 72.8577V62.5684L70.0464 60.0725Z" fill="#8796B8"/>
<path opacity="0.62" d="M70.522 60.3777V70.0557L74.0551 72.2121V62.568L70.522 60.3777Z" fill="#4C5173"/>
<path opacity="0.62" d="M77.2827 64.5891V74.8784L81.2914 77.3743V67.068L77.2827 64.5891Z" fill="#8796B8"/>
<path opacity="0.62" d="M77.7583 64.8777V74.5727L81.2914 76.729V67.068L77.7583 64.8777Z" fill="#4C5173"/>
<path opacity="0.62" d="M83.5674 68.7659V79.0721L87.5931 81.5511V71.2618L83.5674 68.7659Z" fill="#8796B8"/>
<path opacity="0.62" d="M84.0601 69.0715V78.7496L87.5932 80.9059V71.2618L84.0601 69.0715Z" fill="#4C5173"/>
<path d="M71.8643 88.5797V77.781L80.5611 83.2652V94.013L71.8643 88.5797Z" fill="#4C5173"/>
<path d="M106.374 106L97 113.981L134.478 139L161 125.31L154.201 111.568L106.374 106Z" fill="#2A305C"/>
<path d="M152.374 133L143 140.739L180.478 165L207 151.725L200.201 138.399L152.374 133Z" fill="#2A305C"/>
<path d="M107.095 113.391V56.1721C107.095 56.1721 105.431 29.8886 125.101 27.6643L152.312 43.7095C152.312 43.7095 159.362 46.4261 159.362 55.2043V119.826L136.515 131.559L107.095 113.391Z" fill="#E0EAFD"/>
<path d="M116.064 116.906V104.817L125.78 110.964V122.968L116.064 116.906Z" fill="#8796B8"/>
<path d="M136.651 73.2194C136.651 73.2194 136.176 51.2485 150.138 46.4774C159.379 43.3193 159.362 55.2047 159.362 55.2047V119.827L136.651 131.559V73.6948" fill="#8796B8"/>
<path d="M137.891 73.6268C137.891 73.6268 137.467 52.5049 149.901 47.9036C158.122 44.8643 158.122 56.2912 158.122 56.2912V118.468L137.891 129.759V74.1022" fill="#4C5173"/>
<path d="M108.403 55.4595L135.156 72.5234C135.156 72.5234 134.171 48.4472 151.497 44.491L124.744 28.7175C124.744 28.7175 108.403 29.3627 108.403 55.4595Z" fill="#8796B8"/>
<path d="M127.92 37.7846L136.125 32.4192L138.486 33.8794L130.502 39.2448L127.92 37.7846Z" fill="#E0EAFD"/>
<path d="M127.92 37.7839V50.2465L130.519 51.7407V39.2441L127.92 37.7839Z" fill="#73809D"/>
<path d="M130.519 51.7406L138.486 45.8149V33.8787L130.519 39.244V51.7406Z" fill="#4C5173"/>
<path d="M132.812 41.2991V53.7787L135.411 55.2728V42.7762L132.812 41.2991Z" fill="#73809D"/>
<path d="M135.411 55.2723L143.378 44.2699V37.4104L135.411 42.7758V55.2723Z" fill="#4C5173"/>
<path d="M132.812 41.265L141.017 35.8997L143.378 37.3768L135.377 42.7422L132.812 41.265Z" fill="#E0EAFD"/>
<path d="M107.231 60.3665L136.651 79.0604" stroke="#8796B8" stroke-width="0.37071" stroke-linecap="round" stroke-linejoin="round"/>
<path d="M107.231 79.2639L136.651 97.9578" stroke="#8796B8" stroke-width="0.37071" stroke-linecap="round" stroke-linejoin="round"/>
<path d="M107.231 96.158L136.651 114.852" stroke="#8796B8" stroke-width="0.37071" stroke-linecap="round" stroke-linejoin="round"/>
<path opacity="0.62" d="M109.117 66.4622V76.7684L113.125 79.2643V68.9581L109.117 66.4622Z" fill="#8796B8"/>
<path opacity="0.62" d="M109.609 66.7673V76.4624L113.126 78.6187V68.9576L109.609 66.7673Z" fill="#4C5173"/>
<path opacity="0.62" d="M115.266 70.1462V80.4355L119.274 82.9314V72.6422L115.266 70.1462Z" fill="#8796B8"/>
<path opacity="0.62" d="M115.758 70.4524L115.741 80.1304L119.274 82.2868V72.6427L115.758 70.4524Z" fill="#4C5173"/>
<path opacity="0.62" d="M122.502 74.6624V84.9516L126.511 87.4476V77.1413L122.502 74.6624Z" fill="#8796B8"/>
<path opacity="0.62" d="M122.995 74.969V84.647L126.511 86.8034V77.1423L122.995 74.969Z" fill="#4C5173"/>
<path opacity="0.62" d="M128.804 78.8396V89.1459L132.812 91.6248V81.3355L128.804 78.8396Z" fill="#8796B8"/>
<path opacity="0.62" d="M129.279 79.1448V88.8228L132.812 90.9792V81.3351L129.279 79.1448Z" fill="#4C5173"/>
<path opacity="0.62" d="M109.117 84.0691V94.3584L113.125 96.8543V86.565L109.117 84.0691Z" fill="#8796B8"/>
<path opacity="0.62" d="M109.609 84.3748V94.0528L113.126 96.2091V86.565L109.609 84.3748Z" fill="#4C5173"/>
<path opacity="0.62" d="M115.266 87.7366V98.0428L119.274 100.539V90.2325L115.266 87.7366Z" fill="#8796B8"/>
<path opacity="0.62" d="M115.758 88.0427L115.741 97.7208L119.274 99.8941V90.233L115.758 88.0427Z" fill="#4C5173"/>
<path opacity="0.62" d="M122.502 92.2537V102.543L126.511 105.039V94.7496L122.502 92.2537Z" fill="#8796B8"/>
<path opacity="0.62" d="M122.995 92.5588V102.237L126.511 104.393V94.7491L122.995 92.5588Z" fill="#4C5173"/>
<path opacity="0.62" d="M128.804 96.4475V106.737L132.812 109.233V98.9264L128.804 96.4475Z" fill="#8796B8"/>
<path opacity="0.62" d="M129.279 96.7356V106.431L132.812 108.587V98.9259L129.279 96.7356Z" fill="#4C5173"/>
<path d="M117.083 116.261V105.446L125.78 110.947V121.678L117.083 116.261Z" fill="#4C5173"/>
<path d="M152.481 141.056V83.8364C152.481 83.8364 150.816 57.5529 170.486 55.3286L197.698 71.3738C197.698 71.3738 204.747 74.0904 204.747 82.8686V147.491L181.901 159.223L152.481 141.056Z" fill="#E0EAFD"/>
<path d="M161.449 144.57V132.481L171.165 138.627V150.632L161.449 144.57Z" fill="#8796B8"/>
<path d="M182.037 100.883C182.037 100.883 181.561 78.9124 195.524 74.1413C204.764 70.9832 204.747 82.8685 204.747 82.8685V147.491L182.037 159.223V101.359" fill="#8796B8"/>
<path d="M183.277 101.291C183.277 101.291 182.852 80.1692 195.286 75.5679C203.507 72.5286 203.507 83.9555 203.507 83.9555V146.133L183.277 157.424V101.767" fill="#4C5173"/>
<path d="M153.789 83.1233L180.542 100.187C180.542 100.187 179.556 76.111 196.882 72.1549L170.129 56.3813C170.129 56.3813 153.789 57.0265 153.789 83.1233Z" fill="#8796B8"/>
<path d="M173.306 65.4484L181.51 60.083L183.871 61.5432L175.888 66.9086L173.306 65.4484Z" fill="#E0EAFD"/>
<path d="M173.306 65.4482V77.9108L175.905 79.405V66.9084L173.306 65.4482Z" fill="#73809D"/>
<path d="M175.904 79.4049L183.871 73.4792V61.543L175.904 66.9083V79.4049Z" fill="#4C5173"/>
<path d="M178.198 68.9629V81.4425L180.797 82.9366V70.4401L178.198 68.9629Z" fill="#73809D"/>
<path d="M180.796 82.9366L188.763 71.9342V65.0747L180.796 70.4401V82.9366Z" fill="#4C5173"/>
<path d="M178.198 68.9288L186.402 63.5635L188.763 65.0407L180.763 70.406L178.198 68.9288Z" fill="#E0EAFD"/>
<path d="M152.617 88.0303L182.037 106.724" stroke="#8796B8" stroke-width="0.37071" stroke-linecap="round" stroke-linejoin="round"/>
<path d="M152.617 106.928L182.037 125.622" stroke="#8796B8" stroke-width="0.37071" stroke-linecap="round" stroke-linejoin="round"/>
<path d="M152.617 123.822L182.037 142.516" stroke="#8796B8" stroke-width="0.37071" stroke-linecap="round" stroke-linejoin="round"/>
<path opacity="0.62" d="M154.502 94.1255V104.432L158.511 106.928V96.6214L154.502 94.1255Z" fill="#8796B8"/>
<path opacity="0.62" d="M154.995 94.4312V104.126L158.511 106.283V96.6214L154.995 94.4312Z" fill="#4C5173"/>
<path opacity="0.62" d="M160.651 97.8096V108.099L164.66 110.595V100.305L160.651 97.8096Z" fill="#8796B8"/>
<path opacity="0.62" d="M161.143 98.1157L161.126 107.794L164.66 109.95V100.306L161.143 98.1157Z" fill="#4C5173"/>
<path opacity="0.62" d="M167.887 102.326V112.615L171.896 115.111V104.805L167.887 102.326Z" fill="#8796B8"/>
<path opacity="0.62" d="M168.379 102.632V112.31L171.896 114.467V104.806L168.379 102.632Z" fill="#4C5173"/>
<path opacity="0.62" d="M174.189 106.503V116.809L178.198 119.288V108.999L174.189 106.503Z" fill="#8796B8"/>
<path opacity="0.62" d="M174.665 106.809V116.487L178.198 118.643V108.999L174.665 106.809Z" fill="#4C5173"/>
<path opacity="0.62" d="M154.502 111.733V122.022L158.511 124.518V114.229L154.502 111.733Z" fill="#8796B8"/>
<path opacity="0.62" d="M154.995 112.038V121.716L158.511 123.872V114.228L154.995 112.038Z" fill="#4C5173"/>
<path opacity="0.62" d="M160.651 115.4V125.707L164.66 128.203V117.896L160.651 115.4Z" fill="#8796B8"/>
<path opacity="0.62" d="M161.143 115.706L161.126 125.384L164.66 127.557V117.896L161.143 115.706Z" fill="#4C5173"/>
<path opacity="0.62" d="M167.887 119.917V130.206L171.896 132.702V122.413L167.887 119.917Z" fill="#8796B8"/>
<path opacity="0.62" d="M168.379 120.223V129.901L171.896 132.057V122.413L168.379 120.223Z" fill="#4C5173"/>
<path opacity="0.62" d="M174.189 124.111V134.4L178.198 136.896V126.59L174.189 124.111Z" fill="#8796B8"/>
<path opacity="0.62" d="M174.665 124.399V134.094L178.198 136.25V126.589L174.665 124.399Z" fill="#4C5173"/>
<path d="M162.468 143.925V133.109L171.165 138.611V149.341L162.468 143.925Z" fill="#4C5173"/>
<path d="M131.876 140.688C131.876 140.688 130.347 140.823 129.889 141.655V149.16C129.889 149.16 132.946 151.622 136.802 149.143V141.621C136.802 141.621 136.292 140.789 135.035 140.704" fill="#8796B8"/>
<path d="M133.286 142.845C135.228 142.845 136.802 142.305 136.802 141.639C136.802 140.973 135.228 140.434 133.286 140.434C131.344 140.434 129.77 140.973 129.77 141.639C129.77 142.305 131.344 142.845 133.286 142.845Z" fill="#AFBEDF"/>
<path d="M115.858 104.184V106.51C115.858 106.51 119.51 107.257 120.512 106.51C121.514 105.763 122.109 104.184 122.109 104.184V103.046L115.858 104.2V104.184Z" fill="#8796B8"/>
<path d="M122.109 102.129C121.939 102.18 117.964 102.299 117.964 102.299C117.964 102.299 114.618 103.657 116.316 104.744C118.015 105.83 120.937 104.065 120.937 104.065L122.109 103.029V102.129Z" fill="#AFBEDF"/>
<path d="M122.109 104.183C122.109 104.183 126.186 103.215 129.005 105.677C131.825 108.156 131.791 110.193 131.791 110.193L132.827 109.022C132.827 109.022 130.908 103.877 126.933 103.028C122.958 102.179 122.109 103.028 122.109 103.028V104.166V104.183Z" fill="#6C73AB"/>
<path d="M122.109 103.029C122.109 103.029 131.417 102.57 131.876 110.992C132.335 119.413 131.876 141.469 131.876 141.469C131.876 141.469 133.286 142.488 135.035 141.469V110.38C135.035 110.38 132.335 100.023 122.109 102.129V103.029Z" fill="#8796B8"/>
<path d="M122.109 102.128V102.502C122.109 102.502 126.338 101.806 128.563 103.402C130.789 104.998 133.948 107.51 133.846 114.319C133.744 121.128 133.897 141.876 133.897 141.876L135.018 141.469C135.018 141.469 135.596 113.844 135.018 110.38C134.441 106.916 130.534 100.481 122.092 102.128H122.109Z" fill="#AFBEDF"/>
<path opacity="0.42" d="M116.69 106.831L110.847 153.337C110.847 153.337 110.439 158.159 117.591 158.159C124.232 158.159 124.504 153.897 124.504 153.897L118.525 106.831H116.69Z" fill="white"/>
<path opacity="0.58" d="M117.676 158.16C121.447 158.16 124.504 156.464 124.504 154.373C124.504 152.282 121.447 150.587 117.676 150.587C113.904 150.587 110.847 152.282 110.847 154.373C110.847 156.464 113.904 158.16 117.676 158.16Z" fill="#E0EAFD"/>
<path d="M177.261 168.352C177.261 168.352 175.733 168.488 175.274 169.32V176.825C175.274 176.825 178.331 179.287 182.187 176.808V169.286C182.187 169.286 181.678 168.454 180.421 168.369" fill="#8796B8"/>
<path d="M178.671 170.509C180.613 170.509 182.187 169.969 182.187 169.304C182.187 168.638 180.613 168.098 178.671 168.098C176.729 168.098 175.155 168.638 175.155 169.304C175.155 169.969 176.729 170.509 178.671 170.509Z" fill="#AFBEDF"/>
<path d="M161.243 131.848V134.174C161.243 134.174 164.895 134.921 165.897 134.174C166.9 133.427 167.494 131.848 167.494 131.848V130.71L161.243 131.865V131.848Z" fill="#8796B8"/>
<path d="M167.494 129.793C167.324 129.844 163.349 129.963 163.349 129.963C163.349 129.963 160.003 131.322 161.702 132.408C163.4 133.495 166.322 131.729 166.322 131.729L167.494 130.693V129.793Z" fill="#AFBEDF"/>
<path d="M167.494 131.847C167.494 131.847 171.571 130.88 174.39 133.341C177.21 135.82 177.176 137.858 177.176 137.858L178.212 136.686C178.212 136.686 176.293 131.542 172.318 130.693C168.343 129.844 167.494 130.693 167.494 130.693V131.83V131.847Z" fill="#6C73AB"/>
<path d="M167.494 130.693C167.494 130.693 176.803 130.235 177.261 138.656C177.72 147.078 177.261 169.134 177.261 169.134C177.261 169.134 178.671 170.152 180.421 169.134V138.045C180.421 138.045 177.72 127.688 167.494 129.793V130.693Z" fill="#8796B8"/>
<path d="M167.494 129.793V130.167C167.494 130.167 171.724 129.471 173.949 131.067C176.174 132.663 179.333 135.176 179.231 141.984C179.13 148.793 179.282 169.541 179.282 169.541L180.404 169.134C180.404 169.134 180.981 141.509 180.404 138.045C179.826 134.581 175.919 128.146 167.477 129.793H167.494Z" fill="#AFBEDF"/>
<path opacity="0.42" d="M162.076 134.496L156.232 181.001C156.232 181.001 155.825 185.823 162.976 185.823C169.617 185.823 169.889 181.561 169.889 181.561L163.91 134.496H162.076Z" fill="white"/>
<path opacity="0.58" d="M163.061 185.824C166.832 185.824 169.889 184.129 169.889 182.038C169.889 179.947 166.832 178.251 163.061 178.251C159.29 178.251 156.232 179.947 156.232 182.038C156.232 184.129 159.29 185.824 163.061 185.824Z" fill="#E0EAFD"/>
<path d="M85.3341 109.497C85.3341 109.497 83.8053 109.633 83.3467 110.465V117.97C83.3467 117.97 86.4042 120.432 90.26 117.953V110.431C90.26 110.431 89.7504 109.599 88.4935 109.514" fill="#8796B8"/>
<path d="M86.7266 111.636C88.6685 111.636 90.2427 111.097 90.2427 110.431C90.2427 109.765 88.6685 109.225 86.7266 109.225C84.7847 109.225 83.2104 109.765 83.2104 110.431C83.2104 111.097 84.7847 111.636 86.7266 111.636Z" fill="#AFBEDF"/>
<path d="M69.3159 72.9752V75.3014C69.3159 75.3014 72.9679 76.0484 73.9701 75.3014C74.9723 74.5543 75.5668 72.9752 75.5668 72.9752V71.8376L69.3159 72.9922V72.9752Z" fill="#8796B8"/>
<path d="M75.5667 70.9382C75.3968 70.9892 71.4221 71.108 71.4221 71.108C71.4221 71.108 68.0758 72.4663 69.7744 73.553C71.473 74.6397 74.3946 72.8738 74.3946 72.8738L75.5667 71.8381V70.9382Z" fill="#AFBEDF"/>
<path d="M75.5669 72.9755C75.5669 72.9755 79.6436 72.0077 82.4632 74.4696C85.2829 76.9486 85.249 78.9861 85.249 78.9861L86.2851 77.8145C86.2851 77.8145 84.3657 72.6699 80.3909 71.8209C76.4162 70.972 75.5669 71.8209 75.5669 71.8209V72.9585V72.9755Z" fill="#6C73AB"/>
<path d="M75.5669 71.8378C75.5669 71.8378 84.8753 71.3794 85.3339 79.801C85.7925 88.2056 85.3339 110.278 85.3339 110.278C85.3339 110.278 86.7438 111.297 88.4933 110.278V79.1897C88.4933 79.1897 85.7925 68.8325 75.5669 70.9379V71.8378Z" fill="#8796B8"/>
<path d="M75.5668 70.9369V71.3104C75.5668 71.3104 79.7963 70.6143 82.0215 72.2103C84.2467 73.8063 87.4061 76.3192 87.3042 83.1278C87.2023 89.9364 87.3551 110.685 87.3551 110.685L88.4762 110.277C88.4762 110.277 89.0538 82.6524 88.4762 79.1887C87.8987 75.742 83.9919 69.2899 75.5498 70.9369H75.5668Z" fill="#AFBEDF"/>
<path opacity="0.42" d="M70.1483 75.6404L64.3051 122.146C64.3051 122.146 63.8974 126.968 71.0485 126.968C77.6901 126.968 77.9619 122.706 77.9619 122.706L71.9828 75.6404H70.1483Z" fill="white"/>
<path opacity="0.58" d="M71.1336 126.969C74.9048 126.969 77.962 125.274 77.962 123.183C77.962 121.091 74.9048 119.396 71.1336 119.396C67.3624 119.396 64.3052 121.091 64.3052 123.183C64.3052 125.274 67.3624 126.969 71.1336 126.969Z" fill="#E0EAFD"/>
</g>
<defs>
<clipPath id="clip0_288_28220">
<rect width="249" height="188" fill="white"/>
</clipPath>
</defs>
</svg>
