<svg width="648" height="198" viewBox="0 0 648 198" fill="none" xmlns="http://www.w3.org/2000/svg">
<g clip-path="url(#clip0_291_28830)">
<rect width="648" height="198" fill="white"/>
<path d="M317.468 102.079L120.543 195.063L0 138.145L196.925 45.1611L317.468 102.079Z" fill="#2A305C"/>
<path d="M317.468 104.895L120.543 197.879V195.063L317.468 102.078V104.895Z" fill="#21274C"/>
<path d="M0 140.962L120.543 197.879V195.063L0 138.145V140.962Z" fill="#1E2346"/>
<path d="M70.4206 160.091L247.979 76.2905L201.269 54.2349L24.6592 137.586L29.0695 140.266C39.0115 146.308 48.7449 151.936 59.9963 156.169L70.4206 160.091Z" fill="#2A305C"/>
<path d="M201.063 91.1057L195.725 88.4034L177.411 98.6465L116.115 131.217L110.804 128.03L91.3179 139.309V121.814L193.825 76.2441L202.7 80.3964L201.063 91.1057Z" fill="#191E41"/>
<path d="M110.279 127.847C110.279 132.369 106.373 137.879 101.554 140.153C99.658 141.048 101.686 143.241 100.256 142.953C99.8678 142.874 95.7223 140.825 95.3862 140.668C93.8066 139.932 92.8301 138.346 92.8301 136.085C92.8301 131.562 96.7362 126.053 101.554 123.778C103.781 122.727 105.813 122.55 107.354 123.111C107.501 123.164 111.327 125.015 111.465 125.082C113.01 125.831 110.279 125.614 110.279 127.847Z" fill="#4D5373"/>
<path d="M114.664 129.909C114.664 134.431 110.758 139.941 105.94 142.216C101.121 144.491 97.2148 142.67 97.2148 138.149C97.2148 133.626 101.121 128.117 105.94 125.842C110.758 123.566 114.664 125.387 114.664 129.909Z" fill="#6C7790"/>
<path d="M114.456 130.205C114.456 134.615 110.646 139.99 105.946 142.209C101.247 144.428 97.4365 142.652 97.4365 138.241C97.4365 133.831 101.246 128.456 105.946 126.237C110.646 124.018 114.456 125.794 114.456 130.205Z" fill="#4D5373"/>
<path d="M112.014 131.161C112.014 134.31 109.294 138.147 105.94 139.731C102.585 141.314 99.8643 140.047 99.8643 136.898C99.8643 133.749 102.584 129.912 105.94 128.329C109.294 126.744 112.014 128.012 112.014 131.161Z" fill="#E0EAFD"/>
<path d="M100.373 136.619C100.373 139.514 102.874 140.68 105.958 139.224C109.043 137.767 111.543 134.24 111.543 131.345C111.543 128.451 109.043 127.284 105.958 128.741C102.873 130.197 100.373 133.724 100.373 136.619Z" fill="#6C7790"/>
<path d="M100.543 136.741C100.543 139.054 102.541 139.986 105.006 138.821C107.471 137.657 109.469 134.839 109.469 132.526C109.469 130.213 107.471 129.281 105.006 130.445C102.541 131.609 100.543 134.428 100.543 136.741Z" fill="#4D5373"/>
<path d="M100.68 135.781C100.68 138.094 102.678 139.026 105.143 137.862C107.608 136.697 109.606 133.879 109.606 131.566C109.606 129.253 107.608 128.321 105.143 129.485C102.679 130.649 100.68 133.468 100.68 135.781Z" fill="#4D5373"/>
<path d="M109.233 128.191C110.076 128.711 110.587 129.664 110.587 130.971C110.587 133.866 108.086 137.393 105.002 138.85C103.778 139.427 102.647 139.591 101.726 139.399C102.75 140.031 104.265 140.023 105.957 139.224C109.042 137.768 111.543 134.24 111.543 131.346C111.543 129.598 110.632 128.483 109.233 128.191Z" fill="#6C7790"/>
<path d="M101.454 136.202C101.454 138.515 103.452 139.447 105.917 138.282C108.382 137.118 110.38 134.3 110.38 131.987C110.38 129.673 108.382 128.742 105.917 129.906C103.452 131.07 101.454 133.889 101.454 136.202Z" fill="#8896B7"/>
<path d="M104.638 135.071C104.638 136.011 105.449 136.389 106.45 135.917C107.451 135.444 108.263 134.299 108.263 133.359C108.263 132.419 107.451 132.041 106.45 132.514C105.449 132.986 104.638 134.132 104.638 135.071Z" fill="#E0EAFD"/>
<path d="M104.821 135.16C104.821 136.1 105.633 136.478 106.634 136.005C107.634 135.533 108.446 134.387 108.446 133.448C108.446 132.508 107.634 132.13 106.634 132.602C105.633 133.076 104.821 134.22 104.821 135.16Z" fill="#E0EAFD"/>
<path d="M195.21 87.6712C195.21 92.1935 191.304 97.7032 186.486 99.9787C184.59 100.874 186.619 103.066 185.188 102.778C184.8 102.7 180.654 100.651 180.318 100.494C178.739 99.7577 177.762 98.1712 177.762 95.9101C177.762 91.3886 181.668 85.8781 186.486 83.6034C188.713 82.5524 190.745 82.3754 192.286 82.936C192.433 82.9899 196.259 84.8405 196.397 84.907C197.941 85.6553 195.21 85.4388 195.21 87.6712Z" fill="#4D5373"/>
<path d="M199.595 89.7335C199.595 94.255 195.689 99.7655 190.871 102.04C186.052 104.316 182.147 102.494 182.147 97.9724C182.147 93.4509 186.053 87.9404 190.871 85.6657C195.689 83.3911 199.595 85.2121 199.595 89.7335Z" fill="#6C7790"/>
<path d="M199.387 90.0293C199.387 94.4393 195.578 99.8142 190.877 102.033C186.178 104.252 182.368 102.476 182.368 98.0651C182.368 93.6551 186.177 88.2802 190.877 86.0612C195.578 83.8423 199.387 85.6183 199.387 90.0293Z" fill="#4D5373"/>
<path d="M196.945 90.9844C196.945 94.1331 194.225 97.97 190.871 99.5538C187.516 101.138 184.796 99.8701 184.796 96.7213C184.796 93.5725 187.516 89.7357 190.871 88.1518C194.225 86.5671 196.945 87.8356 196.945 90.9844Z" fill="#A5A9B2"/>
<path d="M185.34 96.4866C185.345 97.7937 185.865 98.7478 186.717 99.258C187.737 99.8707 189.234 99.85 190.898 99.0577C193.955 97.6023 196.427 94.0934 196.416 91.2186C196.408 89.3258 195.326 88.1777 193.714 88.0321C192.881 87.9549 191.901 88.1471 190.857 88.6448C187.8 90.0993 185.329 93.6091 185.34 96.4866Z" fill="#6C7790"/>
<path d="M185.34 96.4867C185.345 97.7938 185.865 98.7478 186.717 99.2581C187.551 99.3354 188.531 99.1431 189.574 98.6454C192.631 97.1901 195.103 93.6811 195.092 90.8072C195.086 89.4965 194.567 88.5434 193.714 88.0331C192.881 87.9559 191.901 88.1481 190.857 88.6458C187.8 90.0993 185.329 93.6092 185.34 96.4867Z" fill="#8896B7"/>
<path d="M186.001 95.3565C186.004 96.1058 186.3 96.6511 186.788 96.9431C187.37 97.2934 188.227 97.2817 189.178 96.828C190.927 95.9962 192.34 93.9892 192.333 92.3434C192.329 91.2609 191.71 90.606 190.789 90.5234C190.312 90.4784 189.752 90.5889 189.154 90.8737C187.408 91.7065 185.994 93.7125 186.001 95.3565Z" fill="#4D5373"/>
<path d="M186.271 94.5792C186.274 95.3284 186.57 95.8737 187.058 96.1657C187.64 96.516 188.497 96.5044 189.448 96.0507C191.196 95.2188 192.61 93.2119 192.604 91.5661C192.6 90.4836 191.981 89.8287 191.06 89.746C190.583 89.7011 190.023 89.8116 189.425 90.0964C187.677 90.9283 186.264 92.9352 186.271 94.5792Z" fill="#4D5373"/>
<path d="M187.135 94.922C187.138 95.6712 187.435 96.2165 187.922 96.5085C188.506 96.8588 189.361 96.8471 190.314 96.3935C192.061 95.5616 193.475 93.5547 193.468 91.9089C193.464 90.8263 192.846 90.1714 191.924 90.0888C191.447 90.0439 190.887 90.1543 190.29 90.4391C188.543 91.2719 187.129 93.278 187.135 94.922Z" fill="#E0EAFD"/>
<path d="M28.1777 85.0703L26.7387 119.245L26.4312 126.882L27.4307 132.143L52.5479 120.283V118.096C52.5479 112.86 57.0713 106.478 62.6504 103.844C68.2294 101.21 72.7528 103.319 72.7528 108.555V110.744L137.495 80.1733V77.9849C137.495 72.7493 142.019 66.3673 147.598 63.7333C153.177 61.0994 157.7 63.2087 157.7 68.4443V70.6327L181.08 59.5928L202.697 45.5272L195.486 4.0625H194.286L156.701 21.8096L144.894 29.6451L32.8153 82.5665L28.1777 85.0703Z" fill="#E0E4EA"/>
<path d="M26.4312 126.882L35.9042 133.59C41.6568 137.663 48.2607 140.854 55.3984 143.01L69.7925 147.356L70.1001 139.719L26.7387 119.245L26.4312 126.882Z" fill="#8595AD"/>
<path d="M54.637 134.997L51.3669 141.661L39.407 135.897L34.7319 125.107L54.637 134.997Z" fill="#8595AD"/>
<path d="M26.4717 125.865L35.8151 132.453C41.3601 136.362 47.6926 139.455 54.5305 141.593L69.7913 146.364V142.354L54.1581 137.359C47.3411 135.18 41.0382 132.051 35.5295 128.11L26.6354 121.747L26.4717 125.865Z" fill="#2A305C"/>
<path d="M35.5317 129.299L26.6375 122.936L26.4969 126.429L26.4717 126.411L26.6375 122.293L35.5317 128.656C41.0404 132.597 47.3433 135.726 54.1603 137.905L69.7935 142.9V143.543L54.1603 138.548C47.3433 136.369 41.0404 133.24 35.5317 129.299Z" fill="#8595AD"/>
<path d="M35.5317 130.436L26.6375 124.073L26.4969 127.566L26.4717 127.548L26.6375 123.43L35.5317 129.793C41.0404 133.734 47.3433 136.863 54.1603 139.042L69.7935 144.037V144.68L54.1603 139.685C47.3433 137.507 41.0404 134.378 35.5317 130.436Z" fill="#8595AD"/>
<path d="M35.5317 131.574L26.6375 125.211L26.4969 128.704L26.4717 128.686L26.6375 124.568L35.5317 130.931C41.0404 134.872 47.3433 138.001 54.1603 140.18L69.7935 145.174V145.818L54.1603 140.823C47.3433 138.644 41.0404 135.515 35.5317 131.574Z" fill="#8595AD"/>
<path d="M31.5269 111.356L175.53 43.3597L184.827 36.3246L198.352 29.9382L190.823 9.56787L31.5269 84.7848V111.356Z" fill="#322920"/>
<path d="M169.231 44.9293L174.209 42.5783L184.915 34.5192L196.707 28.9511V13.5981L169.231 26.5723V44.9293Z" fill="#4D5258"/>
<path d="M135.616 60.8013L167.953 45.5319V27.1748L135.616 42.4442V60.8013Z" fill="#4D5258"/>
<path d="M135.616 49.8314L167.953 34.5628V33.7534L135.616 49.0219V49.8314Z" fill="#322920"/>
<path d="M152.292 41.148L151.278 41.626V35.0482L152.292 34.5693V41.148Z" fill="#322920"/>
<path d="M82.5288 85.8684L100.106 77.5684V59.2104L82.5288 67.5113V85.8684Z" fill="#4D5258"/>
<path d="M48.9141 101.74L81.2513 86.4708V68.1138L48.9141 83.3832V101.74Z" fill="#4D5258"/>
<path d="M58.4302 77.6225L81.2516 66.8466V62.0781L58.4302 72.854V77.6225Z" fill="#1A1006"/>
<path d="M48.9141 90.7708L81.2513 75.5023V74.6929L48.9141 89.9614V90.7708Z" fill="#322920"/>
<path d="M65.5885 82.0875L64.5757 82.5654V75.9876L65.5885 75.5088V82.0875Z" fill="#322920"/>
<path d="M199.761 39.8569L202.697 38.4707L204.695 38.4779V44.8446L201.656 47.0662L199.761 48.1667V39.8569Z" fill="#8595AD"/>
<path d="M97.2437 84.7016L100.106 83.3496V81.9023L97.2437 83.2544V84.7016Z" fill="#8796B8"/>
<path d="M182.502 56.2974V43.3395L196.485 35.5166V45.7732L182.502 56.2974ZM183.068 43.5839V55.2419L195.917 45.5701V36.3943L183.068 43.5839Z" fill="#ABABAB"/>
<path d="M175.678 48.5206L184.871 39.6529V37.5444L175.678 44.5103V48.5206Z" fill="#8796B8"/>
<path d="M184.871 39.6525L202.698 31.1306V29.1255L184.871 37.544V39.6525Z" fill="#8796B8"/>
<path d="M138.964 77.3292C138.964 81.8048 142.831 83.607 147.599 81.3557C152.368 79.1035 156.234 73.6504 156.234 69.1748C156.234 64.6992 152.368 62.8971 147.599 65.1484C142.831 67.4006 138.964 72.8536 138.964 77.3292Z" fill="#3A3E40"/>
<path d="M136.263 78.4952V80.7546L137.496 80.1725V77.9841C137.496 72.7484 142.02 66.3665 147.599 63.7325C153.178 61.0985 157.701 63.2078 157.701 68.4435V70.6319L158.935 70.0498V67.7904C158.935 61.9142 153.86 59.5461 147.599 62.5026C141.338 65.4582 136.263 72.62 136.263 78.4952Z" fill="#8595AD"/>
<path d="M30.0583 116.791L27.355 118.954L26.7388 119.245L28.0613 87.9004L30.0583 87.0767V116.791Z" fill="#322920"/>
<path d="M116.114 54.8599L103.896 60.6291V89.3128L116.114 83.5436V54.8599Z" fill="#4D5258"/>
<path d="M131.563 47.5645L119.345 53.3328V82.0175L131.563 76.2482V47.5645Z" fill="#4D5258"/>
<path d="M101.998 96.0992V57.2523L102.14 57.1849L118.013 49.6899V88.5368L117.872 88.6042L101.998 96.0992ZM102.564 57.5191V95.2979L117.447 88.2709V50.4922L102.564 57.5191Z" fill="#ABABAB"/>
<path d="M117.447 88.8043V49.9574L117.588 49.89L133.461 42.395V81.2419L133.319 81.3093L117.447 88.8043ZM118.014 50.2242V88.0029L132.895 80.976V43.1972L118.014 50.2242Z" fill="#ABABAB"/>
<path d="M29.4124 112.355L26.7388 117.292L28.1777 92.375L29.4124 91.792V112.355Z" fill="#4D5258"/>
<path d="M28.1777 85.0702L144.075 30.3457L144.896 29.645L32.8176 82.5656L28.1777 85.0702Z" fill="#8595AD"/>
<path d="M144.896 29.6455L144.075 30.3462L157.296 22.0912L195.487 4.06201H194.289L156.703 21.8091L144.896 29.6455Z" fill="#8595AD"/>
<path d="M71.539 105.545L69.7925 147.356L70.7921 152.618L95.9092 140.758V138.57C95.9092 133.334 100.433 126.952 106.013 124.318C111.592 121.684 116.115 123.793 116.115 129.029V131.217L180.858 100.647V98.4582C180.858 93.2226 185.381 86.8407 190.96 84.2067C196.539 81.5718 201.063 83.6811 201.063 88.9177V91.1061L224.442 80.067L238.532 69.5562V24.6823L234.368 23.1074L196.782 40.8545L186.304 49.2353L74.2258 102.157L71.539 105.545Z" fill="#8595AD"/>
<path d="M161.09 106.965L145.642 114.26V116.172L161.09 108.877V106.965Z" fill="#4C5173"/>
<path d="M176.54 99.6699L161.09 106.965V108.877L176.54 101.583V99.6699Z" fill="#4C5173"/>
<path d="M74.8882 131.83L218.892 63.8343L228.188 56.7992L234.184 53.9676V30.0425L74.8882 105.259V131.83Z" fill="#4C5173"/>
<path d="M212.592 65.4029L217.57 63.0518L228.276 54.9927L232.54 52.9794V37.6265L212.592 47.0458V65.4029Z" fill="#E0EAFD"/>
<path d="M178.978 81.2759L211.315 66.0065V47.6494L178.978 62.9188V81.2759Z" fill="#E0EAFD"/>
<path d="M178.978 70.306L211.315 55.0375V54.228L178.978 69.4966V70.306Z" fill="#4C5173"/>
<path d="M195.652 61.6226L194.639 62.1005V55.5228L195.652 55.0439V61.6226Z" fill="#4C5173"/>
<path d="M125.891 106.343L143.469 98.0421V79.6851L125.891 87.985V106.343Z" fill="#E0EAFD"/>
<path d="M92.2754 122.214L124.613 106.944V88.5874L92.2754 103.856V122.214Z" fill="#E0EAFD"/>
<path d="M92.2754 111.245L124.613 95.9764V95.167L92.2754 110.436V111.245Z" fill="#4C5173"/>
<path d="M108.95 102.561L107.938 103.04V96.4613L108.95 95.9834V102.561Z" fill="#4C5173"/>
<path d="M235.595 63.8852L238.531 62.499L240.529 62.5071V68.8738L237.488 71.0945L235.595 72.1959V63.8852Z" fill="#8595AD"/>
<path d="M140.605 105.175L143.469 103.823V102.376L140.605 103.728V105.175Z" fill="#8796B8"/>
<path d="M90.3369 129.765L219.039 68.9942V64.9839L90.3369 125.754V129.765Z" fill="#4D5373"/>
<path d="M219.039 68.9951L228.232 60.1274V58.0181L219.039 64.9848V68.9951Z" fill="#4D5373"/>
<path d="M228.232 60.1269L238.532 55.1599V53.1548L228.232 58.0176V60.1269Z" fill="#4D5373"/>
<path d="M179.625 98.9698V101.229L180.858 100.647V98.4587C180.858 93.223 185.381 86.8411 190.961 84.2071C196.54 81.5722 201.063 83.6816 201.063 88.9181V91.1065L202.297 90.5244V88.265C202.297 82.3888 197.222 80.0207 190.961 82.9772C184.699 85.9328 179.625 93.0937 179.625 98.9698Z" fill="#8595AD"/>
<path d="M94.6758 139.081V141.341L95.9093 140.758V138.571C95.9093 133.335 100.433 126.953 106.013 124.319C111.592 121.685 116.115 123.794 116.115 129.03V131.218L117.349 130.636V128.376C117.349 122.5 112.274 120.132 106.013 123.089C99.7506 126.044 94.6758 133.205 94.6758 139.081Z" fill="#8595AD"/>
<path d="M73.4196 137.265L70.6548 139.459L70.0386 139.75L71.5401 108.439L73.4196 107.551V137.265Z" fill="#3A3E58"/>
<path d="M28.0612 87.9004L71.539 108.439L70.0385 139.749L54.6371 134.997C47.3104 132.737 40.5615 129.383 34.7321 125.107L26.7397 119.244L28.0612 87.9004Z" fill="#4C5173"/>
<path d="M71.1425 114.779L28.1777 92.3745L26.7388 117.291L34.2522 122.734C40.1124 126.978 46.8393 130.347 54.1264 132.688L70.0386 137.796L71.1425 114.779Z" fill="#E0EAFD"/>
<path d="M27.7793 94.304L38.8956 101.34C43.6849 104.372 48.9179 106.901 54.476 108.869L71.1439 114.778L71.5405 108.438L53.5599 101.866C49.2727 100.3 45.2172 98.3556 41.4506 96.0639L28.0649 87.9014L27.7793 94.304Z" fill="#4C5173"/>
<path d="M45.0146 130.638H45.9593L48.4781 103.062H47.5345L45.0146 130.638Z" fill="#4C5173"/>
<path d="M63.4171 109.206C63.3523 109.781 63.7434 110.327 64.3893 110.561L67.4188 111.839C67.9285 112.053 68.5348 111.754 68.5403 111.285L68.5414 111.214L68.6458 110.272C68.6963 109.816 68.3854 109.383 67.8725 109.197L65.6151 108.381L64.3618 107.925C63.985 107.788 63.5544 107.995 63.516 108.331L63.4171 109.206Z" fill="#E0EAFD"/>
<path d="M30.7657 94.0846L33.4942 95.8975C33.7513 96.0682 34.116 95.8894 34.1445 95.5777L34.1972 95.0081L34.239 94.5634C34.2862 94.0585 34.061 93.5797 33.6436 93.3021L31.9872 92.2016L30.9129 91.4901C30.6558 91.3194 30.2912 91.5 30.2626 91.8108L30.1692 92.8269C30.1242 93.3318 30.3505 93.8088 30.7657 94.0846Z" fill="#E0EAFD"/>
<path d="M28.0635 87.9014L41.4492 96.0639C45.2158 98.3556 49.2713 100.3 53.5585 101.866L71.5391 108.438L28.0635 87.9014Z" fill="#322920"/>
<path d="M74.8882 143.958L90.3368 129.766V125.755L74.8882 139.948V143.958Z" fill="#4D5373"/>
<path d="M69.7925 146.363L74.8882 143.958V139.947L69.7925 142.353V146.363Z" fill="#4D5373"/>
<path d="M159.475 75.3335L147.257 81.1019V109.787L159.475 104.017V75.3335Z" fill="#E0EAFD"/>
<path d="M88.7221 108.742L76.5029 114.511V143.195L88.7221 137.426V108.742Z" fill="#E0EAFD"/>
<path d="M174.924 68.0391L162.706 73.8074V102.492L174.924 96.7228V68.0391Z" fill="#E0EAFD"/>
<path d="M74.6841 149.87V111.171L74.7862 111.123L90.5413 103.684V142.382L90.4392 142.429L74.6841 149.87ZM75.0927 111.364V149.292L90.1338 142.19V104.262L75.0927 111.364Z" fill="#2A305C"/>
<path d="M90.3368 140.282L74.8882 147.577V149.58L90.3368 142.286V140.282Z" fill="#4C5173"/>
<path d="M145.358 116.573V77.7257L145.5 77.6584L161.374 70.1633V109.01L161.232 109.078L145.358 116.573ZM145.925 77.9925V115.771L160.808 108.744V70.9656L145.925 77.9925Z" fill="#2A305C"/>
<path d="M160.808 109.278V70.431L160.95 70.3637L176.824 62.8687V101.716L176.682 101.783L160.808 109.278ZM161.374 70.6979V108.477L176.257 101.45V63.6709L161.374 70.6979Z" fill="#2A305C"/>
<path d="M71.5391 105.544L187.437 50.8199L186.305 49.2334L74.227 102.155L71.5391 105.544Z" fill="#8595AD"/>
<path d="M186.305 49.2334L187.437 50.8199L199.111 43.2944L238.532 24.6804L234.369 23.1064L196.783 40.8535L186.305 49.2334Z" fill="#8595AD"/>
<path d="M32.8174 82.5656L48.8756 92.6002L74.2268 102.155L186.305 49.2337L145.522 29.2632L32.8174 82.5656Z" fill="#E0EAFD"/>
<path d="M157.296 22.0908L145.521 29.2633L153.065 35.0496L172.347 44.9289L186.305 49.2339L196.783 40.8539L157.296 22.0908Z" fill="#D0D9E9"/>
<path d="M28.1777 85.0701L47.6895 96.1226L71.5391 105.545L74.227 102.155L60.3393 96.7406C53.2312 93.9701 46.4603 90.6551 40.1157 86.8425L32.8187 82.5654L28.1777 85.0701Z" fill="#4C5173"/>
<path d="M26.4312 126.882L27.4307 132.144L35.6625 138.04C41.1295 141.956 47.3819 145.073 54.1429 147.252L70.791 152.618L69.7914 147.356L55.3973 143.01C48.2596 140.855 41.6557 137.664 35.9031 133.59L26.4312 126.882Z" fill="#8595AD"/>
<path d="M28.0635 87.9007L41.4492 96.0632C45.2158 98.3549 49.2713 100.299 53.5585 101.866L71.5391 108.437V105.545L56.5804 99.6359C50.6619 97.2957 44.9741 94.5826 39.5698 91.5219L28.1766 85.0708L28.0635 87.9007Z" fill="#3A3E58"/>
<path d="M26.5079 124.996L26.4562 126.221L26.4299 126.882L28.8256 128.546L39.407 135.897L51.3669 141.662L69.7319 147.338L69.7934 147.356L71.1423 146.759L72.3407 147.356L70.3745 150.421L71.1423 153.162L50.7243 147.047L39.7365 141.929L26.5079 131.83L24.7899 129.484L24.7295 126.577L26.5079 124.996Z" fill="#8595AD"/>
<path d="M50.7245 147.048L50.0972 143.608L38.77 138.228L38.7755 141.197L39.7367 141.93L48.8714 146.223L50.7245 147.048Z" fill="#A0B4D1"/>
<path d="M72.3398 147.356L70.0386 148.655L70.1001 151.561L71.1425 153.163L73.4196 151.998V149.294L72.3398 147.356Z" fill="#8595AD"/>
<path d="M26.5079 124.996L26.4299 126.882L39.407 135.897L51.3669 141.662L69.7319 147.338L69.7934 147.356L71.1423 146.759L72.3407 147.356L70.0636 148.521L49.6456 142.405L38.3624 136.757L24.7295 126.577L26.5079 124.996Z" fill="#A0B4D1"/>
<path d="M70.523 140.082L69.9991 140.182L67.9889 139.562L66.9366 141.672L66.6675 146.194L69.7937 147.201L71.1426 146.233V141.717L70.523 140.082Z" fill="#4C5173"/>
<path d="M67.7659 144.48C67.7648 144.507 67.7648 144.534 67.767 144.56C67.7889 145.075 68.1877 145.645 68.6896 145.862C68.9698 145.983 69.2257 145.971 69.4069 145.853C69.5695 145.748 69.6717 145.56 69.6805 145.308C69.6991 144.773 69.285 144.154 68.7567 143.925C68.2272 143.698 67.7845 143.946 67.7659 144.48Z" fill="#B9C1D7"/>
<path d="M67.7659 144.48C67.7648 144.507 67.7648 144.534 67.767 144.56C67.767 144.56 68.5732 144.476 68.8698 144.79C69.1477 145.084 69.3894 145.395 69.4069 145.854C69.5695 145.748 69.6717 145.561 69.6805 145.308C69.6991 144.774 69.285 144.155 68.7567 143.926C68.2272 143.697 67.7845 143.945 67.7659 144.48Z" fill="#606C70"/>
<path d="M26.7199 119.713L28.8256 121.294L29.2595 123.623L29.053 128.2L26.4717 126.495V121.502L26.7199 119.713Z" fill="#4C5173"/>
<path d="M26.7462 125.027C26.744 125.052 26.7429 125.077 26.7418 125.102C26.7341 125.591 27.09 126.209 27.5679 126.517C27.8337 126.689 28.0841 126.73 28.2676 126.657C28.4323 126.592 28.5433 126.437 28.5652 126.202C28.6136 125.703 28.2467 125.036 27.7436 124.71C27.2416 124.387 26.7956 124.528 26.7462 125.027Z" fill="#B9C1D7"/>
<path d="M26.7461 125.027C26.7439 125.052 26.7428 125.077 26.7417 125.102C26.7417 125.102 27.5337 125.191 27.805 125.547C28.0587 125.881 28.2773 126.224 28.2674 126.657C28.4322 126.592 28.5431 126.437 28.5651 126.202C28.6134 125.703 28.2466 125.036 27.7435 124.71C27.2415 124.387 26.7955 124.528 26.7461 125.027Z" fill="#606C70"/>
<path d="M27.5207 125.195C27.4965 125.446 27.681 125.782 27.9337 125.946C28.1863 126.109 28.4104 126.038 28.4357 125.787C28.4598 125.536 28.2753 125.2 28.0227 125.036C27.77 124.873 27.5459 124.945 27.5207 125.195Z" fill="#D7D7D7"/>
<path d="M36.25 128.613C41.4259 132.206 47.2741 135.093 53.5726 137.166L51.8414 140.694C47.1862 139.034 42.7946 136.921 38.7578 134.404L36.25 128.613Z" fill="#8595AD"/>
<path d="M238.532 24.6809L226.388 17.556C220.022 13.8216 213.252 10.5713 206.162 7.84747L195.996 3.94141L194.288 4.06269H195.487L205.844 8.21939C212.02 10.698 217.943 13.579 223.554 16.8338L234.368 23.107L238.532 24.6809Z" fill="#687C9A"/>
<path d="M195.487 4.06152L205.844 8.21825C212.02 10.6968 217.943 13.5779 223.554 16.8326L234.368 23.1059L196.782 40.853L181.385 35.9551L164.929 27.5482L157.294 22.0898L195.487 4.06152Z" fill="#E0EAFD"/>
<path d="M648 91.247L434.617 192.003L304 130.328L517.383 29.5728L648 91.247Z" fill="#2A305C"/>
<path d="M648 94.2998L434.617 195.055V192.003L648 91.2471V94.2998Z" fill="#2A305C"/>
<path d="M304 133.381L434.617 195.055V192.003L304 130.328V133.381Z" fill="#2A305C"/>
<path d="M583.404 60.7996L370.027 161.551L363.409 158.436L361.719 157.637L333.248 144.194L331.546 143.386L320.905 138.363L534.294 37.6025L544.935 42.6352L546.637 43.4334L575.096 56.8766L576.798 57.6749L583.404 60.7996Z" fill="#E0EAFD"/>
<path d="M546.637 43.4325L333.248 144.193L331.546 143.385L544.935 42.6343L546.637 43.4325Z" fill="#8796B8"/>
<path d="M576.798 57.6742L363.409 158.435L361.719 157.637L575.096 56.876L576.798 57.6742Z" fill="#8796B8"/>
<path d="M370.753 154.289L582.971 56.0793L548.288 39.7031L336.775 137.578L340.049 139.567C347.431 144.053 354.66 148.232 363.014 151.375L370.753 154.289Z" fill="#7583A0"/>
<path d="M527.811 3.43134L535.077 0L536.559 0.980213L537.657 3.33206L533.007 14.4955L530.999 34.6447L521.631 40.4143L444.764 76.709L450.945 39.7261L527.811 3.43134Z" fill="#8796B8"/>
<path d="M444.764 68.8386V76.7089L521.631 40.4142V32.5439L444.764 68.8386Z" fill="#8796B8"/>
<path d="M521.631 32.5441L531.75 27.1123L531.14 33.2362L521.631 38.6213V32.5441Z" fill="#8796B8"/>
<path d="M450.945 41.4053L536.559 0.980213L535.077 0L450.945 39.7261V41.4053Z" fill="#8796B8"/>
<path d="M521.631 38.6211L444.764 74.9158V76.7089L521.631 40.4142V38.6211Z" fill="#2A305C"/>
<path d="M521.631 38.6204L531.14 33.2354L530.999 34.6439L521.631 40.4135V38.6204Z" fill="#2A305C"/>
<path d="M560.238 18.7424L567.503 15.312L568.985 16.2913L570.085 18.6431L576.741 35.1459L576.283 48.1403L574.733 55.2941L565.363 61.0637L489.299 95.944V89.8659L483.371 55.0372L560.238 18.7424Z" fill="#8796B8"/>
<path d="M489.299 89.8665V96.6465L566.164 60.3518V53.5728L489.299 89.8665Z" fill="#8796B8"/>
<path d="M566.164 59.6499L489.299 95.9447V97.102L566.164 60.8073V59.6499Z" fill="#2A305C"/>
<path d="M566.164 53.572L576.284 48.1401L575.674 54.2641L566.164 59.6491V53.572Z" fill="#8796B8"/>
<path d="M488.497 87.0409L569.761 48.6688L571.49 38.4185L564.636 21.2168L483.371 59.5879L488.497 87.0409Z" fill="#2A305C"/>
<path d="M566.89 47.0877L563.54 48.6695L559.804 27.9158L563.188 26.3184L568.352 39.2281L566.89 47.0877Z" fill="#7583A0"/>
<path d="M483.371 56.7163L568.985 16.2913L567.503 15.312L483.371 55.0372V56.7163Z" fill="#4D5373"/>
<path d="M566.164 59.6487L575.674 54.2637L575.534 55.0366L566.164 60.8062V59.6487Z" fill="#2A305C"/>
<path d="M450.945 39.7261L483.371 55.0373L567.503 15.3122L535.077 0L450.945 39.7261Z" fill="#8796B8"/>
<path d="M450.945 39.7266L444.764 76.7095L489.299 97.1021V89.8665L483.647 56.5866L483.371 55.0378L450.945 39.7266Z" fill="#8796B8"/>
<path d="M436.85 49.5417L447.94 44.3055V41.9849L436.85 47.221V49.5417Z" fill="#2A305C"/>
<path d="M430.669 78.7883L441.76 73.5522L447.94 44.3052L436.85 49.5413L430.669 78.7883Z" fill="#2A305C"/>
<path d="M427.263 54.069L438.352 48.8319V46.5122L427.263 51.7483V54.069Z" fill="#2A305C"/>
<path d="M421.082 83.3157L432.173 78.0785L438.353 48.8315L427.263 54.0687L421.082 83.3157Z" fill="#2A305C"/>
<path d="M475.905 102.407L486.996 97.1713V93.4917L475.905 98.7288V102.407Z" fill="#2A305C"/>
<path d="M470.78 64.1418L481.869 58.9056V56.585L470.78 61.8221V64.1418Z" fill="#2A305C"/>
<path d="M481.869 56.5852L449.442 41.2739L438.353 46.511L470.78 64.142V61.8223L481.869 56.5852Z" fill="#2A305C"/>
<path d="M475.905 98.7282L486.996 93.4911L481.869 58.9058L470.78 64.1419L475.905 98.7282Z" fill="#2A305C"/>
<path d="M439.855 44.9619L433.675 81.9449L477.408 102.594V95.209L472.558 61.8229L472.282 60.2732L439.855 44.9619Z" fill="#8796B8"/>
<path d="M464.815 107.646L475.905 102.409V98.73L464.815 103.966V107.646Z" fill="#2A305C"/>
<path d="M464.815 103.966L475.905 98.7294L470.78 64.1431L459.689 69.3802L464.815 103.966Z" fill="#2A305C"/>
<path d="M459.689 69.3801L470.78 64.1429V61.8232L459.689 67.0593V69.3801Z" fill="#2A305C"/>
<path d="M470.78 61.8235L438.352 46.5122L427.263 51.7483L459.689 69.3803V67.0596L470.78 61.8235Z" fill="#2A305C"/>
<path d="M368.609 146.957C368.609 146.957 359.014 147.456 353.391 144.859C347.768 142.262 342.592 137.991 342.592 137.991L338.921 132.615L353.624 140.316L364.835 144.859L368.609 146.957Z" fill="#8796B8"/>
<path d="M364.834 144.859L360.817 144.474C352.379 143.186 342.863 138.076 338.92 132.614L338.534 129.933L366.707 140.848L364.834 144.859Z" fill="#8796B8"/>
<path d="M354.494 109.016L421.082 77.5741L427.263 55.4595L368.609 83.1548L354.494 107.042V109.016Z" fill="#2A305C"/>
<path d="M375.056 98.3865L412.805 80.5619C414.309 79.8513 415.529 80.6057 415.529 82.2459V87.4178L372.332 107.815V102.643C372.332 101.003 373.552 99.0971 375.056 98.3865Z" fill="#8796B8"/>
<path d="M346.772 122.881C346.772 122.881 350.826 95.7676 360.674 88.0677C368.61 83.1548 368.61 83.1548 368.61 83.1548L354.494 107.042L346.772 122.881Z" fill="#2A305C"/>
<path d="M392.186 88.4815L371.32 98.3337L377.501 83.8907L398.366 74.0386L392.186 88.4815Z" fill="#E0EAFD"/>
<path d="M392.186 76.5708L371.32 86.423V87.23L392.186 77.3778V76.5708Z" fill="#2A305C"/>
<path d="M417.425 76.5635L396.56 86.4167L402.74 71.9738L423.605 62.1206L417.425 76.5635Z" fill="#E0EAFD"/>
<path d="M417.425 64.6533L396.56 74.5055V75.3135L417.425 65.4603V64.6533Z" fill="#2A305C"/>
<path d="M374.044 101.579L413.817 82.7992C415.321 82.0886 416.541 82.843 416.541 84.4832V90.0357L371.32 111.388V105.836C371.32 104.194 372.54 102.288 374.044 101.579Z" fill="#8796B8"/>
<path d="M356.204 87.2847L350.81 94.4073L346.772 102.596L341.646 115.077L339.343 122.881L340.199 126.209L343.282 118.158L351.362 98.853L356.204 87.2847Z" fill="#4D5373"/>
<path d="M427.263 52.5887L367.844 80.6442L360.674 85.1746L357.805 88.2555L356.205 87.2851L359.527 83.9442L367.128 79.4128L426.365 51.3223L427.263 52.5887Z" fill="#8796B8"/>
<path d="M421.082 86.9953L432.173 81.7582V78.0786L421.082 83.3157V86.9953Z" fill="#2A305C"/>
<path d="M355.402 111.032L366.11 105.976L372.29 86.3511L361.582 91.4072L355.402 111.032Z" fill="#E0EAFD"/>
<path d="M354.03 118.073L360.374 91.0346L360.506 90.9722L373.661 84.7607L367.316 111.799L367.184 111.861L354.03 118.073ZM360.972 91.3821L354.957 117.006L366.718 111.452L372.734 85.8276L360.972 91.3821Z" fill="#7583A0"/>
<path d="M345.971 128.761L348.204 131.23L348.019 122.389L421.082 87.8905L418.849 84.6685L345.971 128.761Z" fill="#2A305C"/>
<path d="M364.448 142.178L364.834 143.654V144.86L391.753 143.041L464.815 108.542L465.616 103.683V101.049L459.954 67.7751L458.791 66.6362L399.556 94.7219L391.161 98.6916L387.937 102.704L376.035 110.472L369.404 130.117L366.324 138.167L364.448 142.178Z" fill="#8796B8"/>
<path d="M364.834 144.859L368.609 146.957L380.067 146.275L392.554 142.327L465.616 107.828V101.048L395.87 133.981L377.511 143.098L364.834 144.859Z" fill="#8796B8"/>
<path d="M398.227 129.665L464.815 98.223L459.689 70.77L401.036 98.4654L398.227 127.691V129.665Z" fill="#2A305C"/>
<path d="M370.057 135.654C370.057 135.654 377.577 114.163 387.424 106.462C395.359 101.549 401.035 98.4653 401.035 98.4653L398.226 129.665L383.527 136.136L370.057 135.654Z" fill="#2A305C"/>
<path d="M459.954 67.7751L400.272 95.9562L392.308 99.924L387.937 102.704L386.684 101.693L391.16 98.6936L399.554 94.7239L458.792 66.6333L459.954 67.7751Z" fill="#4D5373"/>
<path d="M391.072 108.058L392.229 127.884L381.514 133.088L373.568 132.615L381.339 116.343L386.244 111.032L391.072 108.058Z" fill="#E0EAFD"/>
<path d="M380.067 145.236L368.609 146.957L380.067 146.276L391.753 143.04L465.616 108.284V107.127L391.244 142.352L380.067 145.236Z" fill="#2A305C"/>
<path d="M364.448 142.178L360.431 141.793C352.728 141.054 342.477 135.395 338.534 129.933V127.059L339.344 122.881L340.199 126.209L367.048 136.277L364.448 142.178Z" fill="#2A305C"/>
<path d="M341.415 132.203C341.415 132.203 345.415 136.847 355.345 140.144C356.193 137.771 356.193 137.771 356.193 137.771C356.193 137.771 347.347 135.913 341.409 129.131C340.764 130.665 341.415 132.203 341.415 132.203Z" fill="#4D5274"/>
<path d="M346.726 132.846L350.221 134.674L359.013 136.674L340.199 126.209L340.186 126.48L346.726 132.846Z" fill="#4D5373"/>
<path d="M340.201 126.209C340.201 126.209 340.203 126.211 340.204 126.214C344.509 131.355 350.967 135.027 358.357 136.539L359.014 136.673L363.442 137.578L369.087 126.977L376.334 110.895L386.682 101.692L356.205 87.2837L350.496 96.3815L340.201 126.209Z" fill="#8796B8"/>
<path d="M350.498 96.3824C350.498 96.3824 353.696 101.521 359.674 104.319C365.653 107.117 375.396 110.136 375.396 110.136L386.684 101.693L356.205 87.2847L350.498 96.3824Z" fill="#4D5373"/>
<path d="M355.342 140.143L357 139.396L357.493 139.885L359.094 139.317H359.733L361.059 138.715L362.061 139.052L362.425 139.191C363.186 138.384 363.444 137.577 363.444 137.577C363.444 137.577 359.126 136.572 359.013 136.671C358.908 136.777 357.824 138.08 356.191 137.769C354.565 137.458 355.342 140.143 355.342 140.143Z" fill="#2A305C"/>
<path d="M458.792 66.6335L426.364 51.3223L367.127 79.4128L359.526 83.9432L356.204 87.2841C359.013 94.0543 374.26 99.6818 379.547 100.755L386.682 101.692L391.159 98.6928L399.554 94.7231L458.792 66.6335Z" fill="#8796B8"/>
<path d="M386.683 101.692L387.937 102.703L378.085 112.725L369.405 130.116L367.047 136.277L363.441 137.578L359.014 136.673L375.396 110.136L386.683 101.692Z" fill="#4D5373"/>
<path d="M342.182 124.443L343.419 125.96C346.653 129.058 351.533 131.569 356.813 132.702L358.812 132.901L360.657 130.008L372.331 111.7L364.116 108.95L355.393 104.477L350.498 100.154L342.182 124.443Z" fill="#8796B8"/>
<path d="M340.201 126.209C340.201 126.209 340.203 126.211 340.204 126.215C344.509 131.356 350.967 135.028 358.357 136.54L359.014 136.674L359.893 135.252C359.893 135.252 353.849 133.797 351.941 133.089C350.201 132.443 348.385 131.382 345.562 129.65C342.738 127.917 340.81 124.444 340.81 124.444L340.201 126.209Z" fill="#4D5373"/>
<path d="M356.13 138.619C356.113 139.079 356.489 139.613 356.971 139.809C357.452 140.007 357.857 139.793 357.874 139.333C357.89 138.872 357.514 138.339 357.032 138.142C356.55 137.945 356.147 138.159 356.13 138.619Z" fill="#7583A0"/>
<path d="M360.657 137.827C360.641 138.287 361.017 138.82 361.499 139.017C361.98 139.214 362.384 139.001 362.401 138.54C362.418 138.08 362.042 137.546 361.559 137.35C361.077 137.153 360.674 137.366 360.657 137.827Z" fill="#8796B8"/>
<path d="M339.346 122.882L339.725 126.195L340.041 128.305L341.488 130.56L341.416 132.2C341.416 132.2 342.353 129.859 341.181 128.894C340.962 128.721 340.801 128.523 340.663 128.311C340.243 127.65 340.186 126.882 340.186 126.479C340.186 126.406 340.194 126.347 340.194 126.301C340.194 126.242 340.203 126.209 340.203 126.209L339.709 124.317L339.346 122.882Z" fill="#2A305C"/>
<path d="M340.16 129.306C340.1 129.798 340.371 130.406 340.765 130.666C341.159 130.926 341.527 130.737 341.587 130.246C341.648 129.754 341.377 129.146 340.983 128.886C340.589 128.627 340.22 128.815 340.16 129.306Z" fill="#7583A0"/>
<path d="M433.727 71.1437L434.31 70.7709L434.072 70.5051L420.658 63.8916L415.396 79.3381H417.173C418.299 79.6311 435.273 71.4941 433.727 71.1437Z" fill="#8796B8"/>
<path d="M431.272 68.9495L430.991 68.822L431.003 68.8172L417.589 62.2036L402.088 69.7818L415.769 76.5005C415.769 76.5005 431.268 68.9291 431.272 68.9495Z" fill="#7583A0"/>
<path d="M431.272 68.9497L432.301 71.1156L415.396 79.3373L415.769 76.5007L431.272 68.9497Z" fill="#2A305C"/>
<path d="M415.769 76.5009L415.396 79.3376L399.094 71.5627L402.088 69.7822L415.769 76.5009Z" fill="#4D5373"/>
<path d="M523.561 13.8859L536.172 19.8404C537.365 20.403 537.365 21.8107 536.172 22.3743L512.762 33.4277C510.979 34.2697 508.782 34.2697 506.999 33.4277L494.388 27.4731C493.195 26.9105 493.195 25.5029 494.388 24.9393L517.798 13.8859C519.581 13.0439 521.778 13.0439 523.561 13.8859Z" fill="#7583A0"/>
<path d="M522.258 15.2136L533.013 20.2921C533.874 20.699 533.874 21.7143 533.013 22.1202L511.875 32.1009C510.589 32.7083 509.003 32.7083 507.716 32.1009L496.96 27.0225C496.1 26.6165 496.1 25.6002 496.96 25.1943L518.098 15.2136C519.386 14.6052 520.971 14.6052 522.258 15.2136Z" fill="#7583A0"/>
<path d="M552.259 53.9755L559.879 50.6986L559.772 48.995L556.282 29.6719L548.662 32.9488L552.151 52.2719L552.259 53.9755Z" fill="#E0EAFD"/>
<path d="M542.911 57.7148L550.532 54.4379L550.423 52.7342L546.933 33.4111L539.314 36.6881L542.804 56.0111L542.911 57.7148Z" fill="#E0EAFD"/>
<path d="M538.975 59.5491L518.11 69.4013L514.756 49.5557L535.621 39.7026L538.975 59.5491Z" fill="#E0EAFD"/>
<path d="M537.358 45.0811L514.9 55.7159V56.5239L537.358 45.889V45.0811Z" fill="#2A305C"/>
<path d="M514.9 71.0447L494.035 80.8979L490.681 61.0514L511.546 51.1992L514.9 71.0447Z" fill="#E0EAFD"/>
<path d="M513.281 56.5767L490.825 67.2115V68.0185L513.281 57.3837V56.5767Z" fill="#2A305C"/>
<path d="M459.194 97.5823L438.327 107.435L434.973 87.589L455.838 77.7358L459.194 97.5823Z" fill="#E0EAFD"/>
<path d="M457.575 83.1138L435.119 93.7487V94.5566L457.575 83.9217V83.1138Z" fill="#2A305C"/>
<path d="M435.118 109.078L414.252 118.932L410.898 99.0851L431.763 89.2329L435.118 109.078Z" fill="#E0EAFD"/>
<path d="M433.5 94.6108L411.042 105.246V106.053L433.5 95.4179V94.6108Z" fill="#2A305C"/>
</g>
<defs>
<clipPath id="clip0_291_28830">
<rect width="648" height="198" fill="white"/>
</clipPath>
</defs>
</svg>
