<svg width="1106" height="782" viewBox="0 0 1106 782" fill="none" xmlns="http://www.w3.org/2000/svg">
<path d="M292.861 611.829L280.656 618.406L261.481 633.208L256 641.057V652.202L263.968 661.15L265.718 666.816L262.985 679.971L263.737 694.223L269.955 701.899L276.173 705.556L286.629 708.303L308.537 709.04L319.99 707.58C319.99 707.58 328.956 707.58 335.175 709.04C341.393 710.5 372.021 724.94 372.021 724.94L396.663 737.184L538.31 772.83L546.523 778.482L588.837 781.228L602.777 775.201L610.499 775.562C610.499 775.562 621.201 780.679 623.196 781.228C625.192 781.778 644.859 782.139 646.103 781.966C647.346 781.792 704.352 759.488 704.352 759.488L720.78 748.343L743.44 739.207L749.659 737.747C749.659 737.747 773.302 732.818 777.785 730.26C782.268 727.701 799.448 715.834 799.448 715.834C799.448 715.834 813.88 709.994 816.628 706.886C819.361 703.778 824.596 682.948 825.84 669.071C827.083 655.18 831.075 649.34 829.816 645.322C828.558 641.303 825.579 631.806 825.579 631.806L823.092 568.045C823.092 568.045 818.363 554.703 814.632 552.332C810.901 549.962 803.425 533.7 803.425 533.7L795.963 528.77L786.505 526.4L766.347 509.227L755.645 463.925C755.645 463.925 756.397 457.709 747.186 453.691C737.974 449.672 722.544 451.132 722.544 451.132L681.966 450.872L647.867 449.484L638.163 447.114L501.737 450.583L443.242 472.873L418.846 490.956L412.122 493.876L396.432 498.632L367.307 519.1L359.585 530.433L358.833 534.09L352.86 541.766L341.407 551.089L316.766 578.857L310.041 589.814L299.34 600.222L292.861 611.916V611.829Z" fill="#587259"/>
<path d="M292.861 596.319L280.656 602.896L261.481 617.698L256 625.547V636.692L263.968 645.64L265.718 651.306L262.985 664.46L263.737 678.713L269.955 686.389L276.173 690.046L286.629 692.792L308.537 693.529L319.99 692.069C319.99 692.069 328.956 692.069 335.175 693.529C341.393 694.989 372.021 709.43 372.021 709.43L396.663 721.673L538.31 757.32L546.523 762.972L588.837 765.718L602.777 759.69L610.499 760.052C610.499 760.052 621.201 765.169 623.196 765.718C625.192 766.267 644.859 766.629 646.103 766.455C647.346 766.282 704.352 743.978 704.352 743.978L720.78 732.833L743.44 723.697L749.659 722.237C749.659 722.237 773.302 717.308 777.785 714.749C782.268 712.191 799.448 700.323 799.448 700.323C799.448 700.323 813.88 694.483 816.628 691.376C819.361 688.268 824.596 667.438 825.84 653.561C827.083 639.67 831.075 633.83 829.816 629.811C828.558 625.793 825.579 616.296 825.579 616.296L823.092 552.535C823.092 552.535 818.363 539.193 814.632 536.822C810.901 534.451 803.425 518.189 803.425 518.189L795.963 513.26L786.505 510.89L766.347 493.717L755.645 448.415C755.645 448.415 756.397 442.199 747.186 438.181C737.974 434.162 722.544 435.622 722.544 435.622L681.966 435.362L647.867 433.974L638.163 431.603L501.737 435.073L443.242 457.362L418.846 475.446L412.122 478.366L396.432 483.121L367.307 503.59L359.585 514.922L358.833 518.58L352.86 526.255L341.407 535.579L316.766 563.347L310.041 574.304L299.34 584.712L292.861 596.406V596.319Z" fill="#BDD59B"/>
<path d="M422.786 624.996L455.712 603.094C455.712 603.094 455.805 574.138 481.559 548.204L470.196 539.401L415.102 619.905L422.786 624.996Z" fill="#8796B8"/>
<path d="M705.614 621.761L666.959 603.253C666.959 603.253 660.533 545.075 631.053 544.492L647.167 532.613L687.963 572.759L705.614 621.814V621.761Z" fill="#4C5173"/>
<path d="M563.059 557.167L466.563 486.049L390 603.147L422.833 624.996C422.833 624.996 458.6 522.112 506.615 553.243C554.583 584.373 529.248 696.538 529.248 696.538L563.478 717.168L563.106 557.167H563.059Z" fill="#E0EAFD"/>
<path d="M562.966 557.167L658.577 484.671L733.091 601.609L705.66 621.761C705.66 621.761 667.472 522.165 619.457 553.295C571.488 584.426 596.823 696.591 596.823 696.591L562.593 717.221L562.966 557.22V557.167Z" fill="#7583A0"/>
<path d="M457.202 459.586V479.526L562.593 558.44L663.932 481.329V463.988L562.593 536.908L457.202 459.586Z" fill="#8796B8"/>
<path d="M560.59 396.635L457.202 459.374L562.593 536.696L663.932 463.776L560.59 396.635Z" fill="#E0EAFD"/>
<path d="M561.848 298.842L511.598 329.336L562.826 366.884L612.099 331.458L561.848 298.842Z" fill="#E0EAFD"/>
<path d="M562.267 69.5266L543.825 80.7166L562.593 92.49L580.709 81.5121L562.267 69.5266Z" fill="#E0EAFD"/>
<path d="M474.341 459.586L494.506 475.072L523.939 381.627L540.099 391.756L541.077 507.528L562.593 522.908V370.914L514.532 340.367L474.341 459.586Z" fill="#8796B8"/>
<path d="M650.846 459.586L630.681 475.072L601.247 381.627L585.087 391.756L584.109 507.528L562.593 522.908V370.914L610.655 340.367L650.846 459.586Z" fill="#7583A0"/>
<path d="M494.506 475.072L518.49 453.646L529.854 385.339L523.939 381.627L494.506 475.072Z" fill="#4C5173"/>
<path d="M631.053 475.072L607.069 453.646L595.659 385.339L601.573 381.627L631.053 475.072Z" fill="#4C5173"/>
<path d="M522.309 329.23C522.309 329.23 537.771 246.233 539.68 193.995C541.59 141.758 545.967 84.0576 545.967 84.0576L562.593 92.8611V358.929L522.309 329.23Z" fill="#8796B8"/>
<path d="M602.877 329.23C602.877 329.23 587.416 246.233 585.506 193.995C583.597 141.758 579.219 84.0576 579.219 84.0576L562.593 92.8611V358.929L602.877 329.23Z" fill="#7583A0"/>
<path d="M526.454 326.791C526.454 326.791 538.19 261.454 541.217 211.443C543.918 166.63 548.249 90.1564 548.249 90.1564L559.799 97.528L558.914 351.398L526.454 326.791Z" fill="#7583A0"/>
<path d="M598.872 326.791C598.872 326.791 587.136 261.454 584.109 211.443C581.408 166.63 577.077 90.1564 577.077 90.1564L565.527 97.528L566.412 351.398L598.872 326.791Z" fill="#4C5173"/>
<path d="M511.924 329.654V339.306L562.826 376.642L611.772 340.155V331.776L562.826 366.99L511.924 329.654Z" fill="#4C5173"/>
<path d="M543.918 80.8226V84.3758L562.593 96.3613L580.57 84.694V81.6181L562.593 92.543L543.918 80.8226Z" fill="#4C5173"/>
<path d="M548.249 62.5262V78.0118L562.919 87.0805V71.1175L548.249 62.5262Z" fill="#8796B8"/>
<path d="M576.285 63.3217V78.8074L562.919 87.0805V71.1175L576.285 63.3217Z" fill="#7583A0"/>
<path d="M547.876 60.4048L562.919 69.4205V43.222L547.876 60.4048Z" fill="#E0EAFD"/>
<path d="M577.217 60.8821L562.919 69.4205V43.222L577.217 60.8821Z" fill="#8796B8"/>
<path d="M547.876 60.4048L548.249 63.5338L562.919 72.1252L576.285 64.1702L577.216 60.8821L562.919 69.0493L547.876 60.4048Z" fill="#4C5173"/>
<path d="M559.939 46.6162L562.919 48.6314V3.07589L559.939 1.48489V46.6162Z" fill="#8796B8"/>
<path d="M565.714 46.6162L562.919 48.6314V3.07589L565.714 1.48489V46.6162Z" fill="#7583A0"/>
<path d="M559.939 1.48492L562.919 0L565.714 1.48492L562.919 3.07592L559.939 1.48492Z" fill="#E0EAFD"/>
<path d="M15 391V196H82.2C97.8 196 111.4 198.8 123 204.4C134.6 210 143.7 217.7 150.3 227.5C156.9 237.3 160.2 248.5 160.2 261.1C160.2 272.5 158.4 282.1 154.8 289.9C151.2 297.5 146.5 304 140.7 309.4C134.9 314.8 128.5 319.4 121.5 323.2C114.5 327 107.4 330.7 100.2 334.3C93.2 337.9 86.8 341.7 81 345.7C75.2 349.7 70.5 354.6 66.9 360.4C63.3 366 61.5 373 61.5 381.4V391H15ZM61.5 310C65.3 307 69.1 304.4 72.9 302.2C76.7 300 80.5 298 84.3 296.2C88.1 294.2 91.7 292.2 95.1 290.2C98.5 288.2 101.5 286 104.1 283.6C106.7 281.2 108.7 278.4 110.1 275.2C111.7 272 112.5 268.2 112.5 263.8C112.5 256.4 109.9 250.5 104.7 246.1C99.7 241.5 92.9 239.2 84.3 239.2H61.5V310ZM178.427 391V264.7C178.427 250.3 181.427 237.7 187.427 226.9C193.427 216.1 201.827 207.7 212.627 201.7C223.627 195.7 236.227 192.7 250.427 192.7C265.027 192.7 277.627 195.7 288.227 201.7C299.027 207.7 307.427 216.1 313.427 226.9C319.427 237.7 322.427 250.3 322.427 264.7V391H276.527V386.8C276.527 372.6 272.227 361.3 263.627 352.9C255.227 344.5 243.327 340.3 227.927 340.3H206.627V298.3H225.827C247.227 298.3 264.227 303.8 276.827 314.8C289.427 325.8 296.327 340.8 297.527 359.8L276.527 356.2V264.7C276.527 259.3 275.427 254.6 273.227 250.6C271.027 246.6 267.927 243.5 263.927 241.3C260.127 238.9 255.627 237.7 250.427 237.7C245.427 237.7 240.927 238.9 236.927 241.3C233.127 243.5 230.127 246.6 227.927 250.6C225.727 254.6 224.627 259.3 224.627 264.7V391H178.427ZM15 661V466H79.5C95.7 466 109.7 468.6 121.5 473.8C133.5 479 142.8 486.3 149.4 495.7C156 504.9 159.3 515.8 159.3 528.4C159.3 535.6 158.4 542.1 156.6 547.9C154.8 553.5 152.4 558.6 149.4 563.2C146.4 567.6 142.9 571.5 138.9 574.9C134.9 578.3 130.6 581.4 126 584.2C134.6 587.6 141.9 592.3 147.9 598.3C154.1 604.3 158.8 611.4 162 619.6C165.4 627.6 167.1 636.7 167.1 646.9V661H118.5V644.5C118.5 638.5 117.3 633.4 114.9 629.2C112.5 624.8 109.2 621.4 105 619C100.8 616.4 95.8 615.1 90 615.1C84.4 615.1 79.4 616.4 75 619C70.8 621.4 67.5 624.8 65.1 629.2C62.7 633.4 61.5 638.5 61.5 644.5V661H15ZM61.5 509.2V582.1C65.1 579.1 68.7 576.5 72.3 574.3C76.1 571.9 79.8 569.7 83.4 567.7C87.2 565.7 90.8 563.7 94.2 561.7C97.6 559.5 100.6 557.2 103.2 554.8C105.8 552.4 107.8 549.6 109.2 546.4C110.8 543 111.6 539.1 111.6 534.7C111.6 526.9 108.9 520.7 103.5 516.1C98.1 511.5 90.5 509.2 80.7 509.2H61.5ZM236.709 661H189.609V466H236.709V661ZM330.267 664.3C316.667 664.3 304.367 661.7 293.367 656.5C282.567 651.3 274.067 644 267.867 634.6C261.867 625.2 258.867 614 258.867 601H304.467C304.467 605.6 305.467 609.7 307.467 613.3C309.667 616.9 312.667 619.7 316.467 621.7C320.267 623.7 324.667 624.7 329.667 624.7C336.667 624.7 342.267 622.9 346.467 619.3C350.867 615.7 353.067 611.1 353.067 605.5C353.067 600.9 351.367 597.2 347.967 594.4C344.767 591.4 340.367 588.9 334.767 586.9C329.367 584.7 323.367 582.6 316.767 580.6C310.167 578.6 303.567 576.2 296.967 573.4C290.367 570.6 284.267 567.1 278.667 562.9C273.267 558.5 268.867 553 265.467 546.4C262.267 539.8 260.667 531.6 260.667 521.8C260.667 511 263.467 501.2 269.067 492.4C274.667 483.4 282.467 476.2 292.467 470.8C302.467 465.4 313.867 462.7 326.667 462.7C340.467 462.7 352.467 465.3 362.667 470.5C373.067 475.7 381.167 482.9 386.967 492.1C392.767 501.1 395.667 511.7 395.667 523.9H350.067C350.067 517.3 347.867 512.1 343.467 508.3C339.267 504.3 333.667 502.3 326.667 502.3C322.867 502.3 319.367 503.1 316.167 504.7C313.167 506.1 310.767 508.1 308.967 510.7C307.367 513.3 306.567 516.3 306.567 519.7C306.567 524.3 308.167 528 311.367 530.8C314.767 533.6 319.167 536.1 324.567 538.3C330.167 540.3 336.267 542.4 342.867 544.6C349.467 546.6 356.067 549 362.667 551.8C369.267 554.6 375.267 558.2 380.667 562.6C386.267 567 390.667 572.6 393.867 579.4C397.267 586 398.967 594.3 398.967 604.3C398.967 615.5 396.067 625.7 390.267 634.9C384.467 643.9 376.467 651.1 366.267 656.5C356.067 661.7 344.067 664.3 330.267 664.3Z" fill="#2A305C"/>
<path d="M705.2 379L788.3 268.9C792.5 263.5 795.4 259 797 255.4C798.6 251.6 799.4 247.8 799.4 244C799.4 239.8 798.3 236 796.1 232.6C794.1 229.2 791.3 226.5 787.7 224.5C784.1 222.5 780 221.5 775.4 221.5C771 221.5 766.9 222.5 763.1 224.5C759.3 226.5 756.3 229.2 754.1 232.6C752.1 235.8 751.1 239.6 751.1 244C751.1 247.8 751.8 251.3 753.2 254.5C754.8 257.7 757.3 260.7 760.7 263.5L735.2 298C715.6 284.4 705.8 266.7 705.8 244.9C705.8 232.7 708.8 221.8 714.8 212.2C721 202.4 729.4 194.7 740 189.1C750.6 183.5 762.4 180.7 775.4 180.7C788.8 180.7 800.7 183.4 811.1 188.8C821.5 194.2 829.7 201.5 835.7 210.7C841.9 219.9 845 230.5 845 242.5C845 247.9 844.3 253.1 842.9 258.1C841.5 263.1 839.2 268.4 836 274C832.8 279.6 828.4 286.1 822.8 293.5L764.9 370.3L763.1 336.7H850.4V379H705.2ZM910.245 281.5C910.245 289.5 911.645 297 914.445 304C917.245 310.8 921.245 316.8 926.445 322C931.645 327.2 937.545 331.3 944.145 334.3C950.945 337.1 958.245 338.5 966.045 338.5C973.845 338.5 981.145 337.1 987.945 334.3C994.745 331.3 1000.65 327.2 1005.65 322C1010.85 316.8 1014.85 310.8 1017.65 304C1020.45 297 1021.85 289.5 1021.85 281.5C1021.85 273.5 1020.45 266.1 1017.65 259.3C1014.85 252.3 1010.85 246.2 1005.65 241C1000.65 235.8 994.745 231.8 987.945 229C981.145 226 973.845 224.5 966.045 224.5C958.245 224.5 950.945 226 944.145 229C937.545 231.8 931.645 235.8 926.445 241C921.245 246.2 917.245 252.3 914.445 259.3C911.645 266.1 910.245 273.5 910.245 281.5ZM861.945 281.5C861.945 267.3 864.545 254.1 869.745 241.9C875.145 229.7 882.545 219 891.945 209.8C901.345 200.6 912.345 193.5 924.945 188.5C937.745 183.3 951.445 180.7 966.045 180.7C980.645 180.7 994.245 183.3 1006.85 188.5C1019.65 193.5 1030.75 200.6 1040.15 209.8C1049.55 219 1056.85 229.7 1062.05 241.9C1067.45 254.1 1070.15 267.3 1070.15 281.5C1070.15 295.7 1067.45 308.9 1062.05 321.1C1056.85 333.3 1049.55 344 1040.15 353.2C1030.75 362.4 1019.65 369.6 1006.85 374.8C994.245 379.8 980.645 382.3 966.045 382.3C951.445 382.3 937.745 379.8 924.945 374.8C912.345 369.6 901.345 362.4 891.945 353.2C882.545 344 875.145 333.3 869.745 321.1C864.545 308.9 861.945 295.7 861.945 281.5ZM705.2 649L788.3 538.9C792.5 533.5 795.4 529 797 525.4C798.6 521.6 799.4 517.8 799.4 514C799.4 509.8 798.3 506 796.1 502.6C794.1 499.2 791.3 496.5 787.7 494.5C784.1 492.5 780 491.5 775.4 491.5C771 491.5 766.9 492.5 763.1 494.5C759.3 496.5 756.3 499.2 754.1 502.6C752.1 505.8 751.1 509.6 751.1 514C751.1 517.8 751.8 521.3 753.2 524.5C754.8 527.7 757.3 530.7 760.7 533.5L735.2 568C715.6 554.4 705.8 536.7 705.8 514.9C705.8 502.7 708.8 491.8 714.8 482.2C721 472.4 729.4 464.7 740 459.1C750.6 453.5 762.4 450.7 775.4 450.7C788.8 450.7 800.7 453.4 811.1 458.8C821.5 464.2 829.7 471.5 835.7 480.7C841.9 489.9 845 500.5 845 512.5C845 517.9 844.3 523.1 842.9 528.1C841.5 533.1 839.2 538.4 836 544C832.8 549.6 828.4 556.1 822.8 563.5L764.9 640.3L763.1 606.7H850.4V649H705.2ZM955.88 503.8H1001.18V649H955.88V630.4C955.88 623.4 954.18 617.8 950.78 613.6C947.58 609.2 943.28 605.6 937.88 602.8C932.48 599.8 926.58 597 920.18 594.4C913.78 591.8 907.28 588.8 900.68 585.4C894.28 582 888.38 577.7 882.98 572.5C877.58 567.1 873.18 560.2 869.78 551.8C866.58 543.4 864.98 532.8 864.98 520V454H912.08V517.6C912.08 525.4 913.28 531.5 915.68 535.9C918.28 540.1 921.68 543.5 925.88 546.1C930.28 548.7 934.98 551 939.98 553C945.18 555 950.28 557.5 955.28 560.5C960.28 563.5 964.88 567.7 969.08 573.1C973.48 578.5 976.98 585.8 979.58 595C982.18 604 983.48 615.8 983.48 630.4L955.88 591.7V503.8Z" fill="#2A305C"/>
</svg>
