<svg width="264" height="81" viewBox="0 0 264 81" fill="none" xmlns="http://www.w3.org/2000/svg">
<g clip-path="url(#clip0_295_29216)">
<rect width="264" height="81" fill="white"/>
<path d="M220.272 42.3911C220.272 42.3911 219.823 43.8898 219.32 44.0427C218.818 44.1957 217.602 45.2968 218.131 46.2756C218.659 47.2543 220.193 48.1413 221.092 47.2543C221.991 46.3673 222.123 42.9722 222.123 42.9722L220.246 42.3911H220.272Z" fill="#EDC8D0"/>
<path d="M261.707 42.7294C261.707 42.7294 261.866 44.3199 261.469 44.6869C261.073 45.054 260.385 46.675 261.231 47.2868C262.077 47.8985 263.796 47.9291 264.272 46.7056C264.748 45.4822 263.611 42.3318 263.611 42.3318L261.707 42.7294Z" fill="#EDC8D0"/>
<path d="M236.72 12.9048C236.72 12.9048 234.498 17.9821 236.032 19.7561C237.566 21.5301 240.025 21.5301 240.025 21.5301V22.6006H243.33V18.8691C243.33 18.8691 241.188 13.2718 236.72 12.9048Z" fill="#EDC8D0"/>
<path d="M236.719 12.9365C236.719 12.9365 236.64 11.7742 238.121 11.866C239.602 11.9578 243.251 11.4072 243.462 13.4871C243.674 15.5669 244.07 19.0538 243.462 19.0538C242.854 19.0538 242.457 18.1362 242.457 18.1362C242.457 18.1362 240.739 13.7623 236.719 12.9671V12.9365Z" fill="#3B101A"/>
<path d="M235.556 76.0359L235.027 77.9628C235.027 77.9628 232.7 77.7793 232.7 79.3698C232.7 80.9603 233.573 80.9602 233.573 80.9602H237.381L236.799 76.0665H235.556V76.0359Z" fill="#2A305C"/>
<path d="M249.28 76.3413L248.751 78.2682C248.751 78.2682 246.424 78.0847 246.424 79.6752C246.424 81.2657 247.296 81.2657 247.296 81.2657H251.104L250.522 76.3719H249.28V76.3413Z" fill="#2A305C"/>
<path d="M245.101 22.5698H239.125V44.1637H245.101V22.5698Z" fill="white"/>
<path d="M240.871 22.6004L240.395 39.6063L241.717 41.0133L242.96 39.4228L242.484 22.5698L240.871 22.6004Z" fill="#FFDD15"/>
<path d="M219.532 41.8711C219.532 41.8711 227.121 25.2628 233.652 22.6018H239.311L239.073 42.8805H244.044V22.6018H249.941C249.941 22.6018 254.779 24.8958 259.142 31.9612C263.505 39.0266 264.114 42.3299 264.114 42.3299C264.114 42.3299 261.496 43.4004 260.702 42.911C260.147 40.9535 258.217 34.7139 250.945 28.1685V76.3723H248.698L246.397 50.9858C246.397 50.9858 245.974 47.4684 242.166 47.5296C238.359 47.5907 238.861 51.2611 238.861 51.2611L237.751 76.3723H234.63L232.938 28.3214C232.938 28.3214 229.21 29.4837 222.996 42.7887C221.251 43.2169 219.505 41.9323 219.505 41.9323L219.532 41.8711Z" fill="#6C73AB"/>
<path d="M87.5356 45.616C87.5356 45.616 86.5572 46.9618 86.0019 46.8701C85.4466 46.7783 83.8072 47.3595 84.0187 48.6135C84.2303 49.8675 85.4995 51.4886 86.7158 50.9992C87.9322 50.5098 89.2543 47.0536 89.2543 47.0536L87.5356 45.5854V45.616Z" fill="#EDC8D0"/>
<path d="M120.456 45.6754C120.456 45.6754 120.509 47.4188 120.033 47.7859C119.557 48.1529 118.685 49.8351 119.557 50.6304C120.43 51.4256 122.307 51.6091 122.942 50.2939C123.576 48.9787 122.545 45.4001 122.545 45.4001L120.43 45.6448L120.456 45.6754Z" fill="#EDC8D0"/>
<path d="M100.307 10.0439C100.307 10.0439 98.3243 14.5707 99.6993 16.1612C101.074 17.7517 103.269 17.7516 103.269 17.7516V18.6998H106.231V15.3659C106.231 15.3659 104.3 10.3498 100.307 10.0439Z" fill="#EDC8D0"/>
<path d="M100.784 9.88956C100.784 9.88956 100.731 8.84961 102.026 8.91078C103.322 8.97195 106.627 8.48258 106.812 10.3483C106.997 12.2141 107.341 15.3339 106.812 15.3339C106.284 15.3339 105.913 14.5081 105.913 14.5081C105.913 14.5081 104.38 10.593 100.784 9.88956Z" fill="#3B101A"/>
<path d="M101.074 19.3719L108.029 19.3413L107.579 25.3668L102.079 25.6727L101.074 19.3719Z" fill="#E0EAFD"/>
<path d="M95.918 41.7905L97.2666 76.9035H99.2233L102.026 47.5407H109.456L112.973 76.9035H115.327L115.591 41.7905H95.918Z" fill="#A41F4E"/>
<path d="M97.8481 76.9036L97.3986 78.494C97.3986 78.494 95.4683 78.3411 95.4683 79.6563C95.4683 80.9715 96.1822 80.9715 96.1822 80.9715H99.3553L98.8793 76.9036H97.8481Z" fill="#2A305C"/>
<path d="M113.74 76.9036L113.29 78.494C113.29 78.494 111.36 78.3411 111.36 79.6563C111.36 80.9715 112.074 80.9715 112.074 80.9715H115.247L114.771 76.9036H113.74Z" fill="#2A305C"/>
<path d="M86.6895 44.9107C86.6895 44.9107 92.8769 35.1231 93.0885 32.5845C93.3 30.0458 93.4322 21.9099 94.8865 20.5641C96.3409 19.2183 101.074 19.3712 101.074 19.3712C101.074 19.3712 104.379 24.785 104.988 24.8768C105.596 24.9685 108.002 19.3712 108.002 19.3712C108.002 19.3712 114.48 18.576 115.564 20.1053C116.649 21.6346 121.408 31.0857 122.387 36.1936C123.365 41.3015 123.153 46.2871 123.153 46.2871H119.372C119.372 46.2871 119.716 38.6405 118.949 36.1936C118.182 33.7467 116.754 29.2812 115.591 29.7399V41.8215H95.9178V36.2548L89.7832 47.5411L86.6895 44.9107Z" fill="#6C73AB"/>
<path d="M3.18441 43.098C3.18441 43.098 2.99933 44.9637 3.44884 45.3919C3.89836 45.8202 4.71805 47.7165 3.71324 48.4506C2.70844 49.1846 0.725286 49.2152 0.143556 47.7777C-0.438175 46.3401 0.936833 42.6392 0.936833 42.6392L3.15798 43.1286L3.18441 43.098Z" fill="#EDC8D0"/>
<path d="M20.9273 74.325L21.4032 76.0378C21.4032 76.0378 23.4922 75.8543 23.4922 77.2919C23.4922 78.7294 22.6989 78.6989 22.6989 78.6989H19.2614L19.7902 74.2944H20.9008L20.9273 74.325Z" fill="#2A305C"/>
<path d="M8.57869 74.6014L9.05463 76.3142C9.05463 76.3142 11.1436 76.1307 11.1436 77.5682C11.1436 79.0058 10.3503 78.9752 10.3503 78.9752H6.91281L7.44165 74.5708H8.55222L8.57869 74.6014Z" fill="#2A305C"/>
<path d="M16.5113 18.1392C16.5113 18.1392 15.8502 20.0356 17.0666 20.3414C18.2829 20.6473 21.1651 20.5861 22.1435 21.3508C23.1218 22.1155 24.3911 22.2684 23.8358 20.9226C23.2805 19.5768 21.9848 18.3227 21.2444 18.3533C20.5041 18.3839 20.4512 12.8784 20.7949 10.7679C21.1387 8.6575 18.9704 6.11886 16.3262 6.14944C13.6819 6.18003 17.4897 10.1256 16.5113 18.1392Z" fill="#161036"/>
<path d="M22.0908 44.0784V74.5423H19.235L16.3793 52.0002C16.3793 52.0002 15.9033 49.4004 14.6341 49.4004C13.3648 49.4004 12.9418 52.0002 12.9418 52.0002L9.7158 74.5423H6.70137L6.41051 44.0784H22.0644H22.0908Z" fill="#FFAE41"/>
<path d="M48.0571 69.7705V76.5912H46.2062L45.9417 69.5869L48.0571 69.7705Z" fill="#E6E7E8"/>
<path d="M39.4634 70.1049V76.895H37.6389L37.3745 69.9214L39.4634 70.1049Z" fill="#E6E7E8"/>
<path d="M48.1102 76.0085C48.1102 76.0085 49.2208 77.7213 48.216 77.6296C48.216 77.6296 48.0838 78.1496 47.8194 78.0578C47.8194 78.0578 47.6079 78.1801 47.2112 78.0578C47.2112 78.0578 46.1799 77.6602 46.1006 77.2626C46.1006 77.2626 46.0213 76.7732 46.1006 76.4367C46.1799 76.1003 46.3122 76.192 46.5502 75.9473C46.7881 75.7026 46.8146 75.2439 47.3963 74.9686C47.978 74.6933 48.0573 75.978 48.0573 75.978L48.1102 76.0085Z" fill="#231F20"/>
<path d="M39.5428 76.039C39.5428 76.039 40.6534 77.7519 39.6486 77.6601C39.6486 77.6601 39.5164 78.1801 39.252 78.0883C39.252 78.0883 39.0404 78.2107 38.6438 78.0883C38.6438 78.0883 37.6126 77.6907 37.5332 77.2931C37.5332 77.2931 37.4539 76.8037 37.5332 76.4672C37.6126 76.1308 37.7448 76.2226 37.9827 75.9779C38.2207 75.7332 38.2471 75.2744 38.8289 74.9991C39.4106 74.7238 39.4899 76.0085 39.4899 76.0085L39.5428 76.039Z" fill="#231F20"/>
<path d="M48.6653 57.4429C48.6653 57.4429 50.6749 57.5041 51.1244 59.2781C51.1244 59.2781 55.4345 60.0427 53.848 61.939C52.2614 63.8354 49.2999 62.8261 49.2999 62.8261C49.2999 62.8261 50.4369 68.821 47.6605 69.9832C44.884 71.1455 44.8311 71.5737 44.7518 72.2466C44.6725 72.9195 44.5667 76.7734 44.5667 76.7734L42.7686 76.8346L42.5571 71.5737C42.5571 71.5737 37.6917 72.0937 36.1052 70.8703L35.6292 75.7335L33.884 75.55L33.4345 69.2798C33.4345 69.2798 31.7422 63.7743 35.6292 63.4072C39.5162 63.0402 43.8263 64.7836 45.0956 62.1532C46.3648 59.5228 46.2855 57.7182 48.6388 57.4735L48.6653 57.4429Z" fill="white"/>
<path d="M53.8745 60.4099C53.8745 60.4099 54.7471 60.6852 54.4563 61.3275C54.1654 61.9698 53.5043 61.664 53.4514 61.3275C53.3986 60.9911 53.8745 60.4099 53.8745 60.4099Z" fill="#231F20"/>
<path d="M34.9946 63.4998C34.9946 63.4998 31.4514 63.6221 30.235 67.7206C29.0187 71.8192 27.9081 72.5227 27.9081 72.5227C27.9081 72.5227 27.3792 73.0732 27.723 73.2261C28.0667 73.3791 28.0932 72.8285 28.3047 72.7062C28.5163 72.5838 29.812 70.9628 30.1821 69.8005C30.5523 68.6382 30.7374 66.5584 31.8745 66.069C33.0115 65.5796 34.2014 65.182 34.3865 64.9679C34.5716 64.7538 34.9946 63.4998 34.9946 63.4998Z" fill="#231F20"/>
<path d="M44.62 76.375C44.62 76.375 45.757 78.0878 44.7258 77.996C44.7258 77.996 44.5671 78.516 44.3291 78.4242C44.3291 78.4242 44.0912 78.5466 43.6945 78.4242C43.6945 78.4242 42.6368 78.0266 42.5575 77.629C42.5575 77.629 42.4782 77.1396 42.5575 76.8032C42.6368 76.4667 42.769 76.5585 43.0335 76.3138C43.2979 76.0691 43.2979 75.6103 43.9061 75.3351C44.5142 75.0598 44.5936 76.3444 44.5936 76.3444L44.62 76.375Z" fill="#231F20"/>
<path d="M35.7616 75.2441C35.7616 75.2441 36.8722 76.9569 35.8674 76.8652C35.8674 76.8652 35.7352 77.3851 35.4707 77.2934C35.4707 77.2934 35.2592 77.4157 34.8625 77.2934C34.8625 77.2934 33.8313 76.8958 33.752 76.4982C33.752 76.4982 33.6726 76.0088 33.752 75.6723C33.8313 75.3359 33.9635 75.4276 34.2015 75.1829C34.4395 74.9382 34.4659 74.4795 35.0477 74.2042C35.6294 73.9289 35.7087 75.2135 35.7087 75.2135L35.7616 75.2441Z" fill="#231F20"/>
<path d="M45.1221 62.1232C45.1221 62.1232 47.5284 64.6924 49.4851 63.8666L49.5645 64.2948C49.5645 64.2948 48.2952 65.0594 47.0524 64.2948C45.8096 63.5301 44.7519 62.7349 44.7519 62.7349L45.1221 62.062V62.1232Z" fill="#8A1E42"/>
<path d="M31.3192 48.1746C31.3192 48.1746 33.3024 56.8305 38.062 59.1244C42.8216 61.4184 45.1221 62.1219 45.1221 62.1219L44.7519 62.7948C44.7519 62.7948 38.2206 61.3573 35.2062 57.9622C32.4033 54.8118 30.05 48.2052 30.05 48.2052H31.3192V48.1746Z" fill="#8A1E42"/>
<path d="M48.6654 57.4436C48.6654 57.4436 47.9779 56.4649 46.9996 57.0766C46.0212 57.6883 46.9202 59.5541 46.4972 60.5329C46.0741 61.5116 45.3601 65.4573 46.7616 64.5397C48.163 63.6221 48.1366 61.5728 48.1895 60.6858C48.2424 59.7988 48.9034 58.2083 48.639 57.4436H48.6654Z" fill="#231F20"/>
<path d="M29.3096 42.823C29.3096 42.823 30.2086 44.3829 30.7903 44.3829C31.3721 44.3829 33.0644 45.2087 32.6942 46.5239C32.324 47.8392 30.8168 49.3073 29.574 48.6344C28.3312 47.9615 27.3264 44.1077 27.3264 44.1077L29.3096 42.823Z" fill="#EDC8D0"/>
<path d="M29.5475 41.6924C29.5475 41.6924 24.6028 35.6363 24.3648 32.1801C24.1268 28.7238 24.1533 19.8844 21.5884 19.4562H8.02345C8.02345 19.4562 5.61718 19.2727 4.45372 22.576C3.29025 25.8793 0.513838 31.5989 0.513838 33.5259V43.1299H3.42247C3.42247 43.1299 2.86721 35.7587 4.03067 32.6694C5.19413 29.5802 6.41046 28.1121 6.41046 28.1121V44.0475H22.0643V37.3797C22.0643 37.3797 24.4706 44.1087 28.0667 44.6592C31.6629 45.2098 29.4946 41.6618 29.4946 41.6618L29.5475 41.6924Z" fill="#8A1E42"/>
<path d="M19.5261 8.10522C19.5261 8.10522 22.1439 14.0389 20.3458 16.1188C18.5477 18.1987 15.6655 18.1987 15.6655 18.1987V19.4527H11.8049V15.0789C11.8049 15.0789 14.317 8.53343 19.5525 8.10522H19.5261Z" fill="#EDC8D0"/>
<path d="M15.7976 6.24157C15.4802 6.24157 12.7567 4.74282 10.985 8.32141C9.2134 11.9 8.2615 18.4455 8.36727 19.6383C8.47304 20.8312 8.34083 24.5627 9.98025 23.1557C11.6197 21.7488 11.7519 19.883 12.0956 17.8949C12.4394 15.9068 13.0476 12.9705 14.8192 11.8694C16.5908 10.7683 20.1605 9.82016 19.5259 8.10733C18.8913 6.3945 15.824 6.24157 15.824 6.24157H15.7976Z" fill="#161036"/>
<path d="M164.767 11.7617H171.431L171.034 17.5119L165.745 17.8178L164.767 11.7617Z" fill="#AFBEDF"/>
<path d="M176.243 11.7601C176.243 11.7601 178.252 11.1484 179.495 13.2894C180.738 15.4304 187.348 26.9003 187.613 29.7448C187.877 32.5893 187.613 40.5723 187.613 40.5723C187.613 40.5723 184.598 40.1441 183.99 40.8476C183.99 40.8476 183.858 31.947 183.276 30.5095C182.695 29.0719 177.115 18.7644 177.115 18.7644C177.115 18.7644 175.396 14.727 176.269 11.7601H176.243Z" fill="#AFBEDF"/>
<path d="M157.866 15.6159C157.866 15.6159 158.818 12.0067 160.272 11.8232C161.726 11.6397 165.375 11.8232 165.375 11.8232C165.375 11.8232 165.931 17.3593 168.02 17.4511C170.109 17.5428 170.743 11.7314 170.743 11.7314H176.27C176.27 11.7314 175.556 15.7994 177.38 18.0934C179.205 20.3873 180.5 20.9685 180.5 20.9685V37.6074L157.892 38.0662V15.6159H157.866Z" fill="#2A305C"/>
<path d="M158.765 38.0653L159.108 76.0533H162.652C162.652 76.0533 162.519 42.4085 169.474 42.4085C176.428 42.4085 177.063 76.0533 177.063 76.0533H180.024L180.474 37.6064L158.765 38.0653Z" fill="#7077AB"/>
<path d="M184.599 39.8377C184.599 39.8377 184.651 41.5199 184.202 41.8564C183.752 42.1928 182.906 43.8445 183.752 44.5785C184.599 45.3126 186.397 45.5267 187.005 44.2727C187.613 43.0187 186.635 39.593 186.635 39.593L184.599 39.8377Z" fill="#EDC8D0"/>
<path d="M163.18 1.36118C163.18 1.36118 160.801 6.77492 162.44 8.70185C164.079 10.6288 166.724 10.5982 166.724 10.5982V11.7299H170.267V7.72312C170.267 7.72312 167.966 1.72819 163.18 1.33057V1.36118Z" fill="#EDC8D0"/>
<path d="M163.18 1.36156C163.18 1.36156 163.101 -0.0759945 164.899 0.0157641C166.697 0.107523 171.245 -0.565392 171.483 2.00385C171.721 4.57309 172.224 8.85518 171.483 8.85518C170.743 8.85518 170.24 7.7235 170.24 7.7235C170.24 7.7235 168.099 2.30971 163.154 1.33095L163.18 1.36156Z" fill="#58595B"/>
<path d="M167.649 39.0442H166.274V79.3874H167.649V39.0442Z" fill="#4C5173"/>
<path d="M163.841 36.5655C163.841 36.5655 164.978 37.6054 165.481 37.4219C165.983 37.2384 167.623 37.4219 167.623 38.6454C167.623 39.8688 166.671 41.6428 165.454 41.4593C164.238 41.2758 162.44 38.2783 162.44 38.2783L163.841 36.5349V36.5655Z" fill="#EDC8D0"/>
<path d="M165.163 36.1992C163.233 37.025 161.885 39.6248 161.885 39.6248C161.885 39.6248 153 32.4065 153 30.296C153 28.1856 157.839 15.6453 157.839 15.6453L157.892 22.8024C157.892 22.8024 158.024 26.5951 158.024 28.6138C158.024 30.6325 165.163 36.1992 165.163 36.1992Z" fill="#AFBEDF"/>
<path d="M161.118 76.0525L160.642 77.7653C160.642 77.7653 158.58 77.5818 158.58 79.0194C158.58 80.4569 159.346 80.4263 159.346 80.4263H162.757L162.229 76.0525H161.118Z" fill="#2A305C"/>
<path d="M178.2 76.0525L177.724 77.7653C177.724 77.7653 175.661 77.5818 175.661 79.0194C175.661 80.4569 176.428 80.4263 176.428 80.4263H179.839L179.31 76.0525H178.2Z" fill="#2A305C"/>
</g>
<defs>
<clipPath id="clip0_295_29216">
<rect width="264" height="81" fill="white"/>
</clipPath>
</defs>
</svg>
