<svg width="288" height="295" viewBox="0 0 288 295" fill="none" xmlns="http://www.w3.org/2000/svg">
<g clip-path="url(#clip0_280_27740)">
<rect width="288" height="295" fill="white"/>
<path d="M18.493 209.037L12.3698 212.359L2.74965 219.836L0 223.801V229.431L3.99751 233.95L4.87536 236.813L3.50417 243.457L3.88143 250.656L7.00108 254.534L10.1207 256.381L15.3661 257.768L26.3574 258.141L32.1034 257.403C32.1034 257.403 36.6015 257.403 39.7211 258.141C42.8408 258.878 58.2069 266.173 58.2069 266.173L70.5694 272.357L141.632 290.363L145.753 293.218L166.981 294.605L173.975 291.56L177.849 291.743C177.849 291.743 183.218 294.328 184.219 294.605C185.22 294.883 195.087 295.065 195.711 294.978C196.335 294.89 224.934 283.624 224.934 283.624L233.176 277.994L244.544 273.379L247.664 272.642C247.664 272.642 259.526 270.152 261.775 268.86C264.024 267.567 272.643 261.572 272.643 261.572C272.643 261.572 279.883 258.623 281.262 257.053C282.633 255.483 285.259 244.961 285.883 237.952C286.507 230.935 288.51 227.985 287.878 225.955C287.247 223.925 285.753 219.128 285.753 219.128L284.505 186.92C284.505 186.92 282.133 180.181 280.261 178.983C278.389 177.786 274.638 169.571 274.638 169.571L270.895 167.082L266.15 165.884L256.036 157.21L250.668 134.326C250.668 134.326 251.045 131.187 246.423 129.157C241.802 127.127 234.061 127.864 234.061 127.864L213.703 127.733L196.596 127.032L191.728 125.834L123.284 127.587L93.9378 138.846L81.6986 147.98L78.325 149.455L70.4533 151.858L55.8417 162.197L51.9676 167.921L51.5903 169.769L48.594 173.646L42.848 178.355L30.4855 192.382L27.1119 197.917L21.7432 203.174L18.493 209.081V209.037Z" fill="#587259"/>
<path d="M18.493 201.203L12.3698 204.525L2.74965 212.002L0 215.967V221.596L3.99751 226.116L4.87536 228.978L3.50417 235.623L3.88143 242.822L7.00108 246.699L10.1207 248.547L15.3661 249.934L26.3574 250.306L32.1034 249.569C32.1034 249.569 36.6015 249.569 39.7211 250.306C42.8408 251.044 58.2069 258.338 58.2069 258.338L70.5694 264.523L141.632 282.529L145.753 285.383L166.981 286.771L173.975 283.726L177.849 283.909C177.849 283.909 183.218 286.493 184.219 286.771C185.22 287.048 195.087 287.231 195.711 287.143C196.335 287.056 224.934 275.789 224.934 275.789L233.176 270.159L244.544 265.545L247.664 264.807C247.664 264.807 259.526 262.317 261.775 261.025C264.024 259.733 272.643 253.738 272.643 253.738C272.643 253.738 279.883 250.788 281.262 249.218C282.633 247.648 285.259 237.127 285.883 230.117C286.507 223.1 288.51 220.15 287.878 218.12C287.247 216.091 285.753 211.293 285.753 211.293L284.505 179.086C284.505 179.086 282.133 172.346 280.261 171.149C278.389 169.951 274.638 161.737 274.638 161.737L270.895 159.247L266.15 158.05L256.036 149.375L250.668 126.492C250.668 126.492 251.045 123.352 246.423 121.322C241.802 119.292 234.061 120.03 234.061 120.03L213.703 119.898L196.596 119.197L191.728 118L123.284 119.752L93.9378 131.012L81.6986 140.146L78.325 141.621L70.4533 144.023L55.8417 154.362L51.9676 160.087L51.5903 161.934L48.594 165.811L42.848 170.521L30.4855 184.547L27.1119 190.082L21.7432 195.339L18.493 201.246V201.203Z" fill="#BDD59B"/>
<path d="M159.53 137.797L157.928 140.59L159.667 142.758L160.448 147.544L182.744 159.946L188.645 155.552C188.645 155.552 196.656 160.884 197.027 160.884C197.399 160.884 211.858 160.415 211.858 160.415L239.273 142.758L241.813 139.047V133.637L159.53 137.778V137.797Z" fill="#2A305C"/>
<path d="M196.969 6.40649L166.838 25.45L198.61 44.5327L207.188 44.5131L216.411 38.7317L211.409 35.6066L223.68 27.7548L228.995 30.8213L233.313 28.1259L196.969 6.40649Z" fill="#8896B7"/>
<path d="M224.051 30.6846L216.45 35.6066V147.231L226.103 142.25L224.051 30.6846Z" fill="#4D5373"/>
<path d="M159.53 24.2778V137.797L163.282 140.57V26.5631L159.53 24.2778Z" fill="#6E7A95"/>
<path d="M227.548 42.3645L221.96 45.9584V129.457L227.529 126.293L227.548 42.3645Z" fill="#E0EAFD"/>
<path d="M163.985 24.5124L196.969 3.20312L237.338 27.325V30.5282L196.969 6.40635L163.985 27.8914V24.5124Z" fill="#4C5173"/>
<path d="M208.576 47.2869L221.961 38.7124V149.145L208.713 157.818L208.576 47.2869Z" fill="#6E7A95"/>
<path d="M229.327 33.8484L240.738 26.563V136.996L229.483 144.379L229.327 33.8484Z" fill="#6E7A95"/>
<path d="M197.633 47.4626L188.664 41.9937V152.056L197.633 157.817V47.4626Z" fill="#6E7A95"/>
<path d="M197.633 47.4624V157.817H208.712L208.575 47.2866L197.633 47.4624Z" fill="#8896B7"/>
<path d="M159.53 24.2781L197.633 47.4624L208.576 47.2866L221.882 38.8098L216.45 35.6065L224.051 30.6845L229.327 33.8487L240.738 26.5633L196.871 0L162.051 22.5788L163.985 24.5125L196.969 3.20322L235.932 26.4852L228.995 30.8212L223.68 27.7548L211.409 35.6065L216.411 38.7316L207.188 44.5131L198.61 44.5326L162.051 22.5788L159.53 24.2781Z" fill="#E0EAFD"/>
<path d="M162.5 26.8954L168.245 23.1843L188.664 35.6066L182.646 39.1809L162.5 26.8954Z" fill="#C7D0DD"/>
<path d="M188.665 35.6064V152.055L182.744 156.489V39.1808L188.665 35.6064Z" fill="#4D5373"/>
<path d="M162.5 26.8955V144.692L182.743 156.489V39.181L162.5 26.8955Z" fill="#8896B7"/>
<path opacity="0.43" d="M166.838 41.1145L173.599 44.5521V143.579L166.838 147.231V41.1145Z" fill="#4D5373"/>
<path d="M173.599 143.579L178.132 145.922V153.794L166.838 147.231L173.599 143.579Z" fill="#E0EAFD"/>
<path d="M205.84 49.6499H200.036V61.7596H205.84V49.6499Z" fill="#4D5373"/>
<path d="M205.84 70.9009H200.036V83.0106H205.84V70.9009Z" fill="#4D5373"/>
<path d="M205.84 90.0415H200.036V102.151H205.84V90.0415Z" fill="#4D5373"/>
<path d="M205.84 109.554H200.036V121.664H205.84V109.554Z" fill="#4D5373"/>
<path d="M205.84 130.648H200.036V142.758H205.84V130.648Z" fill="#4D5373"/>
<path d="M191.243 50.8022V64.6894L194.076 66.3105V52.5406L191.243 50.8022Z" fill="#8896B7"/>
<path d="M191.986 51.2515V64.2011L194.077 65.373V52.5406L191.986 51.2515Z" fill="#4D5373"/>
<path d="M191.243 64.6892L191.986 64.2009L194.076 65.3729V66.3104L191.243 64.6892Z" fill="#E0EAFD"/>
<path d="M191.243 71.9941V85.8618L194.076 87.5024V73.713L191.243 71.9941Z" fill="#8896B7"/>
<path d="M191.985 72.4238V85.393L194.076 86.5453V73.7129L191.985 72.4238Z" fill="#4D5373"/>
<path d="M191.243 85.8618L191.986 85.3931L194.076 86.5454V87.5025L191.243 85.8618Z" fill="#E0EAFD"/>
<path d="M218.444 49.6499V63.537L215.591 65.1582V51.3687L218.444 49.6499Z" fill="#8896B7"/>
<path d="M217.701 50.0991V63.0487L215.591 64.2206V51.3687L217.701 50.0991Z" fill="#4D5373"/>
<path d="M218.444 63.5371L217.701 63.0488L215.591 64.2208V65.1583L218.444 63.5371Z" fill="#E0EAFD"/>
<path d="M226.435 50.8022V63.1268L221.96 65.705V53.5172L226.435 50.8022Z" fill="#8896B7"/>
<path d="M225.282 51.5054V62.3846L221.96 64.2206V53.5172L225.282 51.5054Z" fill="#4D5373"/>
<path d="M226.435 63.127L225.282 62.3848L221.96 64.2208V65.7052L226.435 63.127Z" fill="#E0EAFD"/>
<path d="M226.435 68.0098V80.3344L221.96 82.9125V70.7247L226.435 68.0098Z" fill="#8896B7"/>
<path d="M225.282 68.6929V79.5916L221.96 81.4276V70.7242L225.282 68.6929Z" fill="#4D5373"/>
<path d="M226.435 80.334L225.282 79.5918L221.96 81.4278V82.9122L226.435 80.334Z" fill="#E0EAFD"/>
<path d="M226.435 87.7954V100.1L221.96 102.679V90.4908L226.435 87.7954Z" fill="#8896B7"/>
<path d="M225.282 88.4792V99.3585L221.96 101.194V90.491L225.282 88.4792Z" fill="#4D5373"/>
<path d="M226.435 100.101L225.282 99.3584L221.96 101.194V102.679L226.435 100.101Z" fill="#E0EAFD"/>
<path d="M226.435 106.898V119.223L221.96 121.801V109.613L226.435 106.898Z" fill="#8896B7"/>
<path d="M225.282 107.582V118.461L221.96 120.316V109.613L225.282 107.582Z" fill="#4D5373"/>
<path d="M226.435 119.222L225.282 118.461L221.96 120.316V121.801L226.435 119.222Z" fill="#E0EAFD"/>
<path d="M227.529 126.293V143.129L221.96 146.137V129.457L227.529 126.293Z" fill="#8896B7"/>
<path d="M226.102 127.094V142.25L221.96 144.399V129.457L226.102 127.094Z" fill="#4D5373"/>
<path d="M229.483 144.38L226.102 142.251L221.96 144.399V149.146L229.483 144.38Z" fill="#E0EAFD"/>
<path d="M218.444 70.2949V84.1625L215.591 85.8032V72.0137L218.444 70.2949Z" fill="#8896B7"/>
<path d="M217.701 70.7246V83.6938L215.591 84.8656V72.0137L217.701 70.7246Z" fill="#4D5373"/>
<path d="M218.444 84.1626L217.701 83.6938L215.591 84.8657V85.8033L218.444 84.1626Z" fill="#E0EAFD"/>
<path d="M218.444 90.4326V104.3L215.591 105.941V92.1514L218.444 90.4326Z" fill="#8896B7"/>
<path d="M217.701 90.8621V103.831L215.591 105.003V92.1512L217.701 90.8621Z" fill="#4D5373"/>
<path d="M218.444 104.3L217.701 103.832L215.591 105.003V105.941L218.444 104.3Z" fill="#E0EAFD"/>
<path d="M218.444 108.949V122.816L215.591 124.457V110.668L218.444 108.949Z" fill="#8896B7"/>
<path d="M217.701 109.378V122.348L215.591 123.519V110.668L217.701 109.378Z" fill="#4D5373"/>
<path d="M218.444 122.816L217.701 122.347L215.591 123.519V124.457L218.444 122.816Z" fill="#E0EAFD"/>
<path d="M218.444 131.41V145.278L215.591 146.918V133.129L218.444 131.41Z" fill="#8896B7"/>
<path d="M217.701 131.84V144.809L215.591 145.981V133.129L217.701 131.84Z" fill="#4D5373"/>
<path d="M218.444 145.277L217.701 144.809L215.591 145.981V146.918L218.444 145.277Z" fill="#E0EAFD"/>
<path d="M235.033 40.5286V54.3962L232.199 56.0369V42.2474L235.033 40.5286Z" fill="#8896B7"/>
<path d="M234.31 40.9771V53.9267L232.199 55.0986V42.2466L234.31 40.9771Z" fill="#4D5373"/>
<path d="M235.033 54.396L234.31 53.9272L232.199 55.0992V56.0367L235.033 54.396Z" fill="#E0EAFD"/>
<path d="M235.033 61.1738V75.0414L232.199 76.6821V62.8926L235.033 61.1738Z" fill="#8896B7"/>
<path d="M234.31 61.6035V74.5727L232.199 75.7446V62.8926L234.31 61.6035Z" fill="#4D5373"/>
<path d="M235.033 75.0415L234.31 74.5728L232.199 75.7446V76.6822L235.033 75.0415Z" fill="#E0EAFD"/>
<path d="M235.033 81.311V95.1786L232.199 96.8193V83.0298L235.033 81.311Z" fill="#8896B7"/>
<path d="M234.31 81.7405V94.6901L232.199 95.862V83.0296L234.31 81.7405Z" fill="#4D5373"/>
<path d="M235.033 95.1787L234.31 94.6904L232.199 95.8624V96.8194L235.033 95.1787Z" fill="#E0EAFD"/>
<path d="M235.033 99.8271V113.695L232.199 115.335V101.546L235.033 99.8271Z" fill="#8896B7"/>
<path d="M234.31 100.257V113.226L232.199 114.398V101.546L234.31 100.257Z" fill="#4D5373"/>
<path d="M235.033 113.695L234.31 113.226L232.199 114.398V115.336L235.033 113.695Z" fill="#E0EAFD"/>
<path d="M235.033 122.289V136.157L232.199 137.797V124.008L235.033 122.289Z" fill="#8896B7"/>
<path d="M234.31 122.719V135.688L232.199 136.86V124.008L234.31 122.719Z" fill="#4D5373"/>
<path d="M235.033 136.157L234.31 135.688L232.199 136.86V137.797L235.033 136.157Z" fill="#E0EAFD"/>
<path d="M191.243 91.3892V105.257L194.076 106.897V93.1079L191.243 91.3892Z" fill="#8896B7"/>
<path d="M191.986 91.8191V104.788L194.077 105.96V93.1082L191.986 91.8191Z" fill="#4D5373"/>
<path d="M191.243 105.257L191.986 104.789L194.076 105.96V106.898L191.243 105.257Z" fill="#E0EAFD"/>
<path d="M191.243 110.785V124.652L194.076 126.293V112.503L191.243 110.785Z" fill="#8896B7"/>
<path d="M191.986 111.214V124.183L194.077 125.355V112.503L191.986 111.214Z" fill="#4D5373"/>
<path d="M191.243 124.652L191.986 124.183L194.076 125.355V126.293L191.243 124.652Z" fill="#E0EAFD"/>
<path d="M191.243 131.899V145.767L194.076 147.407V133.618L191.243 131.899Z" fill="#8896B7"/>
<path d="M191.986 132.328V145.297L194.077 146.469V133.617L191.986 132.328Z" fill="#4D5373"/>
<path d="M191.243 145.766L191.986 145.297L194.076 146.469V147.407L191.243 145.766Z" fill="#E0EAFD"/>
<path d="M173.599 143.579L178.132 145.923V47.0133L173.599 44.5522V143.579Z" fill="#4D5373"/>
<path d="M166.838 56.7986V60.8612L178.327 67.5606V63.5761L166.838 56.7986Z" fill="#E0EAFD"/>
<path d="M166.838 56.7986H168.245L178.327 62.7167V63.5761L166.838 56.7986Z" fill="#8896B7"/>
<path d="M168.616 57.0133V53.6733L178.328 59.4939V62.7166L177.546 62.2674V60.5095L176.901 60.1384V61.8767L176.061 61.3689L176.08 59.7087L175.377 59.318V60.9978L174.595 60.529V58.7907L173.892 58.3805V60.1189L173.11 59.6306V57.9313L172.427 57.4821V59.2399L171.508 58.7126V56.9547L170.863 56.5055V58.3219L170.043 57.8336V56.0758L169.339 55.6265V57.4235L168.616 57.0133Z" fill="#E0EAFD"/>
<path d="M166.838 76.6821V80.7447L178.327 87.4637V83.4597L166.838 76.6821Z" fill="#E0EAFD"/>
<path d="M166.838 76.6821H168.245L178.327 82.6198V83.4597L166.838 76.6821Z" fill="#8896B7"/>
<path d="M168.616 76.9166V73.5767L178.328 79.3972V82.6199L177.546 82.1511V80.3933L176.901 80.0417V81.78L176.061 81.2527L176.08 79.5925L175.377 79.2214V80.8816L174.595 80.4324V78.6745L173.892 78.2643V80.0027L173.11 79.5339V77.8151L172.427 77.3658V79.1432L171.508 78.5964V76.8385L170.863 76.4088V78.2252L170.043 77.737V75.9595L169.339 75.5103V77.3268L168.616 76.9166Z" fill="#E0EAFD"/>
<path d="M166.838 96.7803V100.823L178.327 107.542V103.558L166.838 96.7803Z" fill="#E0EAFD"/>
<path d="M166.838 96.7803H168.245L178.327 102.698V103.558L166.838 96.7803Z" fill="#8896B7"/>
<path d="M168.616 96.9952V93.6553L178.328 99.4758V102.699L177.546 102.249V100.491L176.901 100.12V101.859L176.061 101.351L176.08 99.6906L175.377 99.3V100.98L174.595 100.511V98.7531L173.892 98.3625V100.101L173.11 99.6125V97.8937L172.427 97.464V99.2219L171.508 98.6945V96.9366L170.863 96.4874V98.3039L170.043 97.8156V96.0577L169.339 95.6085V97.4054L168.616 96.9952Z" fill="#E0EAFD"/>
<path d="M166.838 114.788V118.851L178.327 125.57V121.566L166.838 114.788Z" fill="#E0EAFD"/>
<path d="M166.838 114.788H168.245L178.327 120.726V121.566L166.838 114.788Z" fill="#8896B7"/>
<path d="M168.616 115.023V111.683L178.328 117.503V120.726L177.546 120.277V118.499L176.901 118.148V119.886L176.061 119.359L176.08 117.718L175.377 117.328V118.988L174.595 118.539V116.781L173.892 116.37V118.109L173.11 117.64V115.921L172.427 115.472V117.249L171.508 116.703V114.945L170.863 114.515V116.331L170.043 115.843V114.066L169.339 113.616V115.433L168.616 115.023Z" fill="#E0EAFD"/>
<path d="M213.089 47.2864L214.418 46.4661L211.877 45.177L210.646 45.9583L213.089 47.2864Z" fill="#C7D0DD"/>
<path d="M210.646 45.958V156.489L213.089 157.817V47.2862L210.646 45.958Z" fill="#8896B7"/>
<path d="M213.089 157.817V47.2866L214.418 46.4663V156.821L213.089 157.817Z" fill="#4D5373"/>
<path d="M240.504 29.532L241.813 28.7117L239.273 27.4226L238.062 28.2039L240.504 29.532Z" fill="#C7D0DD"/>
<path d="M238.062 28.2041V138.735L240.504 140.063V29.5323L238.062 28.2041Z" fill="#8896B7"/>
<path d="M240.504 140.063V29.5322L241.813 28.7119V139.047L240.504 140.063Z" fill="#4D5373"/>
<path d="M224.052 30.6846L229.328 33.8487L229.484 144.379L227.53 143.266L227.549 42.3646L224.052 40.177V30.6846Z" fill="#8896B7"/>
<path d="M224.051 40.1768L221.96 41.4463V45.9582L227.548 42.3643L224.051 40.1768Z" fill="#8896B7"/>
<path opacity="0.19" d="M224.051 44.5522L221.96 45.9585V149.204L224.051 143.286V44.5522Z" fill="#4D5373"/>
<path d="M193.784 59.2598L193.843 66.1154L203.476 71.9945L212.718 65.9787V59.0059L203.417 65.1584L193.784 59.2598Z" fill="#E0EAFD"/>
<path d="M195.133 58.459L197.634 56.7988V61.7599L200.233 60.1778H205.841L208.381 61.8576V56.7988L211.371 58.1661V63.9279L203.261 69.5922L195.133 64.4358V58.459Z" fill="#E0EAFD"/>
<path d="M193.784 59.2595L195.132 58.4588L203.417 63.3222L211.37 58.1658L212.718 59.0057L203.417 65.1582L193.784 59.2595Z" fill="#8896B7"/>
<path d="M195.133 79.7095L197.634 78.0493V83.0104L200.233 81.4283H205.841L208.381 83.1081V78.0493L211.371 79.4165V85.1784L203.261 90.8427L195.133 85.6862V79.7095Z" fill="#E0EAFD"/>
<path d="M193.784 80.5103L195.132 79.7095L203.417 84.5729L211.37 79.4165L212.718 80.2564L203.417 86.4089L193.784 80.5103Z" fill="#8896B7"/>
<path d="M195.133 98.8509L197.634 97.1907V102.152L200.233 100.57H205.841L208.381 102.249V97.1907L211.371 98.5579V104.32L203.261 109.964L195.133 104.828V98.8509Z" fill="#E0EAFD"/>
<path d="M193.784 99.6514L195.132 98.8506L203.417 103.714L211.37 98.5576L212.718 99.378L203.417 105.53L193.784 99.6514Z" fill="#8896B7"/>
<path d="M195.133 118.363L197.634 116.703V121.664L200.233 120.082H205.841L208.381 121.761V116.703L211.371 118.07V123.832L203.261 129.496L195.133 124.34V118.363Z" fill="#E0EAFD"/>
<path d="M193.784 119.164L195.132 118.363L203.417 123.246L211.37 118.07L212.718 118.91L203.417 125.062L193.784 119.164Z" fill="#8896B7"/>
<path d="M195.133 139.458L197.634 137.797V142.758L200.233 141.176H205.841L208.381 142.856V137.797L211.371 139.165V144.926L203.261 150.571L195.133 145.434V139.458Z" fill="#E0EAFD"/>
<path d="M193.784 140.258L195.132 139.458L203.417 144.321L211.37 139.165L212.718 140.004L203.417 146.137L193.784 140.258Z" fill="#8896B7"/>
<path d="M193.784 80.53L193.843 87.3662L203.476 93.2453L212.718 87.2295V80.2566L203.417 86.4091L193.784 80.53Z" fill="#E0EAFD"/>
<path d="M193.784 99.6516L193.843 106.507L203.476 112.367L212.718 106.371V99.3782L203.417 105.531L193.784 99.6516Z" fill="#E0EAFD"/>
<path d="M193.784 119.183L193.843 126.02L203.476 131.899L212.718 125.883V118.91L203.417 125.062L193.784 119.183Z" fill="#E0EAFD"/>
<path d="M193.784 140.258L193.843 147.114L203.476 152.974L212.718 146.977V140.004L203.417 146.137L193.784 140.258Z" fill="#E0EAFD"/>
<path d="M189.739 14.5709L186.495 12.3833V18.3405L189.739 20.3914V14.5709Z" fill="#8896B7"/>
<path d="M189.289 15.1177L186.847 13.4771V17.9694L189.289 19.5124V15.1177Z" fill="#4C5173"/>
<path d="M189.738 14.5709L195.053 11.1724V16.739L189.738 20.3914V14.5709Z" fill="#6E7A95"/>
<path d="M190.325 14.8636L194.624 12.0901V16.6215L190.325 19.5903V14.8636Z" fill="#4C5173"/>
<path d="M186.495 12.3832L191.732 9.06274L195.054 11.1722L189.739 14.5707L186.495 12.3832Z" fill="#E0EAFD"/>
<path d="M183.095 19.1214L179.832 16.9338V22.8911L183.095 24.9614V19.1214Z" fill="#8896B7"/>
<path d="M182.626 19.688L180.184 18.0474V22.5201L182.626 24.0632V19.688Z" fill="#4C5173"/>
<path d="M183.095 19.1217L188.39 15.7231V21.2897L183.095 24.9617V19.1217Z" fill="#6E7A95"/>
<path d="M183.662 19.4146L187.961 16.6411V21.1725L183.662 24.1413V19.4146Z" fill="#4C5173"/>
<path d="M179.832 16.9342L185.069 13.6333L188.391 15.7232L183.095 19.1218L179.832 16.9342Z" fill="#E0EAFD"/>
<path d="M211.409 35.6064V41.8567L216.411 38.7316L211.409 35.6064Z" fill="#C7D0DD"/>
<path d="M114.021 167.075L112.419 169.868L114.158 172.036L114.94 176.822L137.235 189.224L143.136 184.83C143.136 184.83 151.147 190.162 151.518 190.162C151.89 190.162 166.349 189.693 166.349 189.693L193.764 172.036L196.304 168.325V162.915L114.021 167.056V167.075Z" fill="#2A305C"/>
<path d="M151.46 35.6846L121.329 54.7281L153.101 73.8107L161.679 73.7912L170.902 67.9902L165.9 64.8847L178.171 57.0329L183.486 60.0994L187.804 57.404L151.46 35.6846Z" fill="#8896B7"/>
<path d="M178.542 59.9626L170.941 64.8847V176.509L180.575 171.529L178.542 59.9626Z" fill="#4D5373"/>
<path d="M114.021 53.5559V167.075L117.773 169.849V55.8411L114.021 53.5559Z" fill="#6E7A95"/>
<path d="M182.041 71.6233L176.452 75.2367V158.735L182.021 155.571L182.041 71.6233Z" fill="#E0EAFD"/>
<path d="M118.457 53.7905L151.46 32.4812L191.83 56.603V59.8062L151.46 35.6844L118.457 57.1499V53.7905Z" fill="#4C5173"/>
<path d="M163.067 76.5647L176.452 67.9902V178.423L163.204 187.095L163.067 76.5647Z" fill="#6E7A95"/>
<path d="M183.818 63.1072L195.21 55.8413V166.274L183.955 173.657L183.818 63.1072Z" fill="#6E7A95"/>
<path d="M152.105 76.7209L143.155 71.2715V181.333L152.105 187.095V76.7209Z" fill="#6E7A95"/>
<path d="M152.104 76.721V187.095H163.203L163.066 76.5647L152.104 76.721Z" fill="#8896B7"/>
<path d="M114.021 53.5562L152.105 76.7209L163.067 76.5647L176.374 68.0683L170.941 64.8846L178.543 59.9626L183.818 63.1072L195.21 55.8414L151.362 29.2585L116.542 51.8569L118.457 53.7906L151.46 32.4813L190.403 55.7633L183.486 60.0993L178.171 57.0328L165.9 64.8846L170.902 67.9902L161.68 73.7912L153.101 73.8107L116.542 51.8569L114.021 53.5562Z" fill="#E0EAFD"/>
<path d="M116.972 56.174L122.736 52.4629L143.155 64.8851L137.137 68.4595L116.972 56.174Z" fill="#C7D0DD"/>
<path d="M143.156 64.8848V181.334L137.235 185.767V68.4591L143.156 64.8848Z" fill="#4D5373"/>
<path d="M116.972 56.1736V173.97L137.235 185.767V68.4591L116.972 56.1736Z" fill="#8896B7"/>
<path opacity="0.43" d="M121.329 70.3926L128.09 73.8302V172.837L121.329 176.509V70.3926Z" fill="#4D5373"/>
<path d="M128.09 172.837L132.623 175.2V183.072L121.329 176.509L128.09 172.837Z" fill="#E0EAFD"/>
<path d="M160.331 78.9282H154.527V91.038H160.331V78.9282Z" fill="#4D5373"/>
<path d="M160.331 100.179H154.527V112.288H160.331V100.179Z" fill="#4D5373"/>
<path d="M160.331 119.32H154.527V131.43H160.331V119.32Z" fill="#4D5373"/>
<path d="M160.331 138.832H154.527V150.942H160.331V138.832Z" fill="#4D5373"/>
<path d="M160.331 159.927H154.527V172.036H160.331V159.927Z" fill="#4D5373"/>
<path d="M145.735 80.0806V93.9482L148.569 95.5889V81.7994L145.735 80.0806Z" fill="#8896B7"/>
<path d="M146.458 80.5295V93.4792L148.568 94.6511V81.7991L146.458 80.5295Z" fill="#4D5373"/>
<path d="M145.735 93.948L146.458 93.4792L148.569 94.6512V95.5887L145.735 93.948Z" fill="#E0EAFD"/>
<path d="M145.735 101.253V115.14L148.569 116.781V102.992L145.735 101.253Z" fill="#8896B7"/>
<path d="M146.458 101.702V114.652L148.568 115.824V102.991L146.458 101.702Z" fill="#4D5373"/>
<path d="M145.735 115.14L146.458 114.652L148.569 115.824V116.781L145.735 115.14Z" fill="#E0EAFD"/>
<path d="M172.915 78.9282V92.7958L170.082 94.4365V80.647L172.915 78.9282Z" fill="#8896B7"/>
<path d="M172.192 79.3772V92.3268L170.082 93.4987V80.6468L172.192 79.3772Z" fill="#4D5373"/>
<path d="M172.915 92.7954L172.192 92.3267L170.082 93.4986V94.4361L172.915 92.7954Z" fill="#E0EAFD"/>
<path d="M180.927 80.0806V92.4052L176.452 94.9834V82.7955L180.927 80.0806Z" fill="#8896B7"/>
<path d="M179.774 80.7837V91.6629L176.452 93.4989V82.7955L179.774 80.7837Z" fill="#4D5373"/>
<path d="M180.927 92.405L179.774 91.6628L176.452 93.4988V94.9832L180.927 92.405Z" fill="#E0EAFD"/>
<path d="M180.927 97.2878V109.612L176.452 112.191V100.003L180.927 97.2878Z" fill="#8896B7"/>
<path d="M179.774 97.9717V108.851L176.452 110.706V100.003L179.774 97.9717Z" fill="#4D5373"/>
<path d="M180.927 109.612L179.774 108.851L176.452 110.706V112.191L180.927 109.612Z" fill="#E0EAFD"/>
<path d="M180.927 117.054V129.379L176.452 131.957V119.769L180.927 117.054Z" fill="#8896B7"/>
<path d="M179.774 117.757V128.637L176.452 130.473V119.769L179.774 117.757Z" fill="#4D5373"/>
<path d="M180.927 129.379L179.774 128.637L176.452 130.473V131.957L180.927 129.379Z" fill="#E0EAFD"/>
<path d="M180.927 136.176V148.5L176.452 151.059V138.871L180.927 136.176Z" fill="#8896B7"/>
<path d="M179.774 136.859V147.739L176.452 149.575V138.871L179.774 136.859Z" fill="#4D5373"/>
<path d="M180.927 148.5L179.774 147.739L176.452 149.575V151.059L180.927 148.5Z" fill="#E0EAFD"/>
<path d="M182.021 155.571V172.388L176.452 175.396V158.735L182.021 155.571Z" fill="#8896B7"/>
<path d="M180.575 156.372V171.529L176.452 173.678V158.736L180.575 156.372Z" fill="#4D5373"/>
<path d="M183.955 173.658L180.575 171.529L176.452 173.677V178.424L183.955 173.658Z" fill="#E0EAFD"/>
<path d="M172.915 99.5732V113.441L170.082 115.082V101.292L172.915 99.5732Z" fill="#8896B7"/>
<path d="M172.192 100.003V112.972L170.082 114.144V101.292L172.192 100.003Z" fill="#4D5373"/>
<path d="M172.915 113.441L172.192 112.972L170.082 114.144V115.082L172.915 113.441Z" fill="#E0EAFD"/>
<path d="M172.915 119.691V133.578L170.082 135.219V121.429L172.915 119.691Z" fill="#8896B7"/>
<path d="M172.192 120.14V133.089L170.082 134.261V121.429L172.192 120.14Z" fill="#4D5373"/>
<path d="M172.915 133.578L172.192 133.09L170.082 134.262V135.219L172.915 133.578Z" fill="#E0EAFD"/>
<path d="M172.915 138.227V152.094L170.082 153.735V139.946L172.915 138.227Z" fill="#8896B7"/>
<path d="M172.192 138.656V151.625L170.082 152.797V139.945L172.192 138.656Z" fill="#4D5373"/>
<path d="M172.915 152.094L172.192 151.626L170.082 152.798V153.735L172.915 152.094Z" fill="#E0EAFD"/>
<path d="M172.915 160.688V174.556L170.082 176.197V162.407L172.915 160.688Z" fill="#8896B7"/>
<path d="M172.192 161.118V174.087L170.082 175.24V162.407L172.192 161.118Z" fill="#4D5373"/>
<path d="M172.915 174.556L172.192 174.087L170.082 175.24V176.197L172.915 174.556Z" fill="#E0EAFD"/>
<path d="M189.524 69.8066V83.6742L186.69 85.3149V71.5254L189.524 69.8066Z" fill="#8896B7"/>
<path d="M188.781 70.2363V83.2055L186.69 84.3774V71.5254L188.781 70.2363Z" fill="#4D5373"/>
<path d="M189.524 83.6746L188.781 83.2058L186.69 84.3777V85.3153L189.524 83.6746Z" fill="#E0EAFD"/>
<path d="M189.524 90.4517V104.319L186.69 105.96V92.1705L189.524 90.4517Z" fill="#8896B7"/>
<path d="M188.781 90.8813V103.85L186.69 105.003V92.1705L188.781 90.8813Z" fill="#4D5373"/>
<path d="M189.524 104.319L188.781 103.851L186.69 105.003V105.96L189.524 104.319Z" fill="#E0EAFD"/>
<path d="M189.524 110.57V124.457L186.69 126.078V112.308L189.524 110.57Z" fill="#8896B7"/>
<path d="M188.781 111.019V123.968L186.69 125.14V112.308L188.781 111.019Z" fill="#4D5373"/>
<path d="M189.524 124.457L188.781 123.968L186.69 125.14V126.078L189.524 124.457Z" fill="#E0EAFD"/>
<path d="M189.524 129.105V142.973L186.69 144.613V130.824L189.524 129.105Z" fill="#8896B7"/>
<path d="M188.781 129.535V142.504L186.69 143.656V130.824L188.781 129.535Z" fill="#4D5373"/>
<path d="M189.524 142.973L188.781 142.504L186.69 143.657V144.614L189.524 142.973Z" fill="#E0EAFD"/>
<path d="M189.524 151.548V165.435L186.69 167.075V153.286L189.524 151.548Z" fill="#8896B7"/>
<path d="M188.781 151.996V164.946L186.69 166.118V153.285L188.781 151.996Z" fill="#4D5373"/>
<path d="M189.524 165.435L188.781 164.946L186.69 166.118V167.075L189.524 165.435Z" fill="#E0EAFD"/>
<path d="M145.735 120.667V134.535L148.569 136.176V122.386L145.735 120.667Z" fill="#8896B7"/>
<path d="M146.458 121.097V134.066L148.568 135.219V122.386L146.458 121.097Z" fill="#4D5373"/>
<path d="M145.735 134.535L146.458 134.067L148.569 135.219V136.176L145.735 134.535Z" fill="#E0EAFD"/>
<path d="M145.735 140.063V153.93L148.569 155.571V141.782L145.735 140.063Z" fill="#8896B7"/>
<path d="M146.458 140.492V153.462L148.568 154.633V141.782L146.458 140.492Z" fill="#4D5373"/>
<path d="M145.735 153.93L146.458 153.462L148.569 154.634V155.571L145.735 153.93Z" fill="#E0EAFD"/>
<path d="M145.735 161.157V175.044L148.569 176.685V162.895L145.735 161.157Z" fill="#8896B7"/>
<path d="M146.458 161.606V174.556L148.568 175.728V162.895L146.458 161.606Z" fill="#4D5373"/>
<path d="M145.735 175.044L146.458 174.556L148.569 175.728V176.685L145.735 175.044Z" fill="#E0EAFD"/>
<path d="M128.09 172.837L132.623 175.2V76.2911L128.09 73.8301V172.837Z" fill="#4D5373"/>
<path d="M121.329 86.0771V90.1202L132.819 96.8392V92.8547L121.329 86.0771Z" fill="#E0EAFD"/>
<path d="M121.329 86.0771H122.736L132.819 91.9953V92.8547L121.329 86.0771Z" fill="#8896B7"/>
<path d="M123.107 86.2916V82.9517L132.819 88.7721V91.9949L132.037 91.5457V89.7878L131.392 89.4167V91.155L130.552 90.6472L130.572 88.987L129.868 88.5964V90.2761L129.087 89.8073V88.0495L128.364 87.6393V89.3777L127.602 88.9089V87.1901L126.918 86.7408V88.5182L125.999 87.9714V86.2135L125.355 85.7838V87.6002L124.534 87.112V85.3345L123.83 84.9048V86.7018L123.107 86.2916Z" fill="#E0EAFD"/>
<path d="M121.329 105.96V110.023L132.819 116.722V112.738L121.329 105.96Z" fill="#E0EAFD"/>
<path d="M121.329 105.96H122.736L132.819 111.898V112.738L121.329 105.96Z" fill="#8896B7"/>
<path d="M123.107 106.175V102.835L132.819 108.675V111.898L132.037 111.429V109.671L131.392 109.32V111.058L130.552 110.53L130.572 108.87L129.868 108.499V110.159L129.087 109.71V107.952L128.364 107.542V109.28L127.602 108.812V107.093L126.918 106.644V108.421L125.999 107.874V106.116L125.355 105.687V107.484L124.534 107.015V105.237L123.83 104.788V106.605L123.107 106.175Z" fill="#E0EAFD"/>
<path d="M121.329 126.058V130.101L132.819 136.82V132.836L121.329 126.058Z" fill="#E0EAFD"/>
<path d="M121.329 126.058H122.736L132.819 131.976V132.836L121.329 126.058Z" fill="#8896B7"/>
<path d="M123.107 126.273V122.933L132.819 128.754V131.976L132.037 131.527V129.769L131.392 129.398V131.136L130.552 130.629L130.572 128.968L129.868 128.578V130.238L129.087 129.789V128.031L128.364 127.621V129.359L127.602 128.89V127.172L126.918 126.722V128.5L125.999 127.953V126.195L125.355 125.765V127.582L124.534 127.093V125.316L123.83 124.886V126.683L123.107 126.273Z" fill="#E0EAFD"/>
<path d="M121.329 144.067V148.129L132.819 154.829V150.844L121.329 144.067Z" fill="#E0EAFD"/>
<path d="M121.329 144.067H122.736L132.819 150.004V150.844L121.329 144.067Z" fill="#8896B7"/>
<path d="M123.107 144.282V140.961L132.819 146.782V150.004L132.037 149.536V147.778L131.392 147.426V149.165L130.552 148.637L130.572 146.977L129.868 146.606V148.266L129.087 147.817V146.059L128.364 145.649V147.387L127.602 146.918V145.2L126.918 144.75V146.528L125.999 145.981V144.223L125.355 143.793V145.59L124.534 145.121V143.344L123.83 142.895V144.711L123.107 144.282Z" fill="#E0EAFD"/>
<path d="M167.58 76.5648L168.889 75.7444L166.369 74.4553L165.138 75.2366L167.58 76.5648Z" fill="#C7D0DD"/>
<path d="M165.138 75.2366V185.767L167.58 187.095V76.5647L165.138 75.2366Z" fill="#8896B7"/>
<path d="M167.58 187.095V76.5647L168.889 75.7444V186.08L167.58 187.095Z" fill="#4D5373"/>
<path d="M194.995 58.8101L196.304 57.9898L193.764 56.6812L192.553 57.482L194.995 58.8101Z" fill="#C7D0DD"/>
<path d="M192.553 57.4822V168.013L194.995 169.341V58.8103L192.553 57.4822Z" fill="#8896B7"/>
<path d="M194.995 169.341V58.8101L196.304 57.9897V168.325L194.995 169.341Z" fill="#4D5373"/>
<path d="M178.543 59.9626L183.819 63.1073L183.956 173.658L182.021 172.525L182.041 71.6232L178.543 69.4356V59.9626Z" fill="#8896B7"/>
<path d="M178.543 69.4355L176.452 70.7247V75.2365L182.041 71.6231L178.543 69.4355Z" fill="#8896B7"/>
<path opacity="0.19" d="M178.543 73.8301L176.452 75.2364V178.482L178.543 172.544V73.8301Z" fill="#4D5373"/>
<path d="M148.256 88.5376L148.334 95.3933L157.967 101.253L167.21 95.2566V88.2642L157.909 94.4167L148.256 88.5376Z" fill="#E0EAFD"/>
<path d="M149.624 87.7368L152.106 86.0767V91.0377L154.724 89.4557H160.332L162.872 91.1354V86.0767L165.862 87.4439V93.2058L157.753 98.8505L149.624 93.7136V87.7368Z" fill="#E0EAFD"/>
<path d="M148.256 88.5376L149.624 87.7368L157.909 92.6003L165.861 87.4438L167.21 88.2642L157.909 94.4167L148.256 88.5376Z" fill="#8896B7"/>
<path d="M149.624 108.988L152.106 107.327V112.288L154.724 110.706H160.332L162.872 112.386V107.327L165.862 108.695V114.457L157.753 120.101L149.624 114.964V108.988Z" fill="#E0EAFD"/>
<path d="M148.256 109.788L149.624 108.988L157.909 113.851L165.861 108.695L167.21 109.515L157.909 115.667L148.256 109.788Z" fill="#8896B7"/>
<path d="M149.624 128.128L152.106 126.468V131.429L154.724 129.847H160.332L162.872 131.527V126.468L165.862 127.835V133.597L157.753 139.242L149.624 134.105V128.128Z" fill="#E0EAFD"/>
<path d="M148.256 128.93L149.624 128.129L157.909 132.992L165.861 127.836L167.21 128.656L157.909 134.809L148.256 128.93Z" fill="#8896B7"/>
<path d="M149.624 147.641L152.106 145.981V150.942L154.724 149.36H160.332L162.872 151.039V145.981L165.862 147.348V153.11L157.753 158.755L149.624 153.618V147.641Z" fill="#E0EAFD"/>
<path d="M148.256 148.442L149.624 147.641L157.909 152.504L165.861 147.348L167.21 148.188L157.909 154.321L148.256 148.442Z" fill="#8896B7"/>
<path d="M149.624 168.735L152.106 167.075V172.036L154.724 170.454H160.332L162.872 172.134V167.075L165.862 168.442V174.204L157.753 179.849L149.624 174.712V168.735Z" fill="#E0EAFD"/>
<path d="M148.256 169.536L149.624 168.735L157.909 173.599L165.861 168.442L167.21 169.263L157.909 175.415L148.256 169.536Z" fill="#8896B7"/>
<path d="M148.256 109.789L148.334 116.644L157.967 122.504L167.21 116.508V109.515L157.909 115.668L148.256 109.789Z" fill="#E0EAFD"/>
<path d="M148.256 128.929L148.334 135.785L157.967 141.644L167.21 135.648V128.656L157.909 134.808L148.256 128.929Z" fill="#E0EAFD"/>
<path d="M148.256 148.442L148.334 155.298L157.967 161.157L167.21 155.161V148.188L157.909 154.321L148.256 148.442Z" fill="#E0EAFD"/>
<path d="M148.256 169.536L148.334 176.392L157.967 182.251L167.21 176.255V169.262L157.909 175.415L148.256 169.536Z" fill="#E0EAFD"/>
<path d="M144.23 43.8484L140.986 41.6609V47.6181L144.23 49.669V43.8484Z" fill="#8896B7"/>
<path d="M143.78 44.3956L141.318 42.7549V47.2277L143.78 48.7707V44.3956Z" fill="#4C5173"/>
<path d="M144.229 43.8487L149.544 40.4307V46.0168L144.229 49.6692V43.8487Z" fill="#6E7A95"/>
<path d="M144.797 44.1216L149.115 41.3677V45.8795L144.797 48.8679V44.1216Z" fill="#4C5173"/>
<path d="M140.986 41.6612L146.223 38.3408L149.545 40.4307L144.23 43.8488L140.986 41.6612Z" fill="#E0EAFD"/>
<path d="M137.567 48.3997L134.323 46.2122V52.1694L137.567 54.2202V48.3997Z" fill="#8896B7"/>
<path d="M137.117 48.9664L134.675 47.3062V51.7985L137.117 53.3415V48.9664Z" fill="#4C5173"/>
<path d="M137.566 48.4L142.881 45.0015V50.568L137.566 54.2205V48.4Z" fill="#6E7A95"/>
<path d="M138.153 48.693L142.452 45.9194V50.4508L138.153 53.4197V48.693Z" fill="#4C5173"/>
<path d="M134.323 46.212L139.56 42.8916L142.882 45.001L137.567 48.3996L134.323 46.212Z" fill="#E0EAFD"/>
<path d="M165.9 64.8848V71.1349L170.903 67.9903L165.9 64.8848Z" fill="#C7D0DD"/>
<path d="M63.6277 198.053L62.0254 200.846L63.7644 203.014L64.546 207.799L86.8412 220.202L92.7422 215.807C92.7422 215.807 100.754 221.139 101.125 221.139C101.496 221.139 115.956 220.671 115.956 220.671L143.37 203.014L145.911 199.303V193.892L63.6277 198.033V198.053Z" fill="#2A305C"/>
<path d="M101.067 66.6621L70.917 85.7252L102.709 104.788H111.287L120.509 98.9873L115.507 95.8622L127.759 88.03L133.093 91.0964L137.412 88.3815L101.067 66.6621Z" fill="#8896B7"/>
<path d="M128.149 90.9597L120.548 95.8622V207.506L130.181 202.506L128.149 90.9597Z" fill="#4D5373"/>
<path d="M63.6279 84.5537V198.053L67.3796 200.846V86.8194L63.6279 84.5537Z" fill="#6E7A95"/>
<path d="M131.647 102.621L126.059 106.234V189.713L131.628 186.549L131.647 102.621Z" fill="#E0EAFD"/>
<path d="M68.0635 84.7878L101.067 63.4785L141.436 87.6004V90.8036L101.067 66.6622L68.0635 88.1472V84.7878Z" fill="#4C5173"/>
<path d="M112.674 107.542L126.059 98.9678V209.42L112.811 218.092L112.674 107.542Z" fill="#6E7A95"/>
<path d="M133.425 94.1045L144.817 86.8191V197.272L133.562 204.635L133.425 94.1045Z" fill="#6E7A95"/>
<path d="M101.711 107.718L92.7422 102.269V212.331L101.711 218.093V107.718Z" fill="#6E7A95"/>
<path d="M101.711 107.718V218.093H112.81L112.673 107.542L101.711 107.718Z" fill="#8896B7"/>
<path d="M63.6279 84.5532L101.711 107.718L112.673 107.542L125.98 99.0654L120.548 95.8622L128.149 90.9597L133.425 94.1043L144.817 86.8189L100.969 60.2556L66.1486 82.8539L68.0635 84.7876L101.067 63.4784L140.01 86.7408L133.093 91.0964L127.758 88.0299L115.507 95.8622L120.509 98.9873L111.286 104.788H102.708L66.1486 82.8539L63.6279 84.5532Z" fill="#E0EAFD"/>
<path d="M66.5781 87.1705L72.3424 83.4399L92.7422 95.8622L86.7434 99.456L66.5781 87.1705Z" fill="#C7D0DD"/>
<path d="M92.7429 95.8623V212.331L86.8418 216.745V99.4562L92.7429 95.8623Z" fill="#4D5373"/>
<path d="M66.5781 87.1709V204.967L86.8411 216.745V99.4564L66.5781 87.1709Z" fill="#8896B7"/>
<path opacity="0.43" d="M70.917 101.37L77.6974 104.808V203.834L70.917 207.506V101.37Z" fill="#4D5373"/>
<path d="M77.6974 203.834L82.2307 206.178V214.069L70.917 207.506L77.6974 203.834Z" fill="#E0EAFD"/>
<path d="M109.938 109.925H104.135V122.035H109.938V109.925Z" fill="#4D5373"/>
<path d="M109.938 131.176H104.135V143.286H109.938V131.176Z" fill="#4D5373"/>
<path d="M109.938 150.317H104.135V162.427H109.938V150.317Z" fill="#4D5373"/>
<path d="M109.938 169.829H104.135V181.939H109.938V169.829Z" fill="#4D5373"/>
<path d="M109.938 190.924H104.135V203.034H109.938V190.924Z" fill="#4D5373"/>
<path d="M95.3408 111.077V124.945L98.1741 126.586V112.796L95.3408 111.077Z" fill="#8896B7"/>
<path d="M96.0645 111.507V124.476L98.1748 125.648V112.796L96.0645 111.507Z" fill="#4D5373"/>
<path d="M95.3408 124.945L96.0638 124.476L98.1741 125.648V126.586L95.3408 124.945Z" fill="#E0EAFD"/>
<path d="M95.3408 132.25V146.118L98.1741 147.759V133.969L95.3408 132.25Z" fill="#8896B7"/>
<path d="M96.0635 132.68V145.649L98.1738 146.821V133.969L96.0635 132.68Z" fill="#4D5373"/>
<path d="M95.3408 146.118L96.0638 145.649L98.1741 146.821V147.758L95.3408 146.118Z" fill="#E0EAFD"/>
<path d="M122.522 109.925V123.793L119.688 125.434V111.644L122.522 109.925Z" fill="#8896B7"/>
<path d="M121.799 110.355V123.324L119.688 124.496V111.644L121.799 110.355Z" fill="#4D5373"/>
<path d="M122.522 123.793L121.799 123.324L119.688 124.496V125.434L122.522 123.793Z" fill="#E0EAFD"/>
<path d="M130.533 111.077V123.402L126.059 125.961V113.792L130.533 111.077Z" fill="#8896B7"/>
<path d="M129.38 111.761V122.64L126.059 124.496V113.793L129.38 111.761Z" fill="#4D5373"/>
<path d="M130.533 123.402L129.38 122.641L126.059 124.496V125.961L130.533 123.402Z" fill="#E0EAFD"/>
<path d="M130.533 128.265V140.59L126.059 143.168V130.98L130.533 128.265Z" fill="#8896B7"/>
<path d="M129.38 128.969V139.848L126.059 141.684V130.98L129.38 128.969Z" fill="#4D5373"/>
<path d="M130.533 140.59L129.38 139.848L126.059 141.684V143.168L130.533 140.59Z" fill="#E0EAFD"/>
<path d="M130.533 148.052V160.376L126.059 162.954V150.766L130.533 148.052Z" fill="#8896B7"/>
<path d="M129.38 148.735V159.634L126.059 161.47V150.766L129.38 148.735Z" fill="#4D5373"/>
<path d="M130.533 160.376L129.38 159.634L126.059 161.47V162.954L130.533 160.376Z" fill="#E0EAFD"/>
<path d="M130.533 167.154V179.478L126.059 182.056V169.868L130.533 167.154Z" fill="#8896B7"/>
<path d="M129.38 167.857V178.736L126.059 180.572V169.868L129.38 167.857Z" fill="#4D5373"/>
<path d="M130.533 179.478L129.38 178.736L126.059 180.572V182.056L130.533 179.478Z" fill="#E0EAFD"/>
<path d="M131.628 186.549V203.385L126.059 206.393V189.713L131.628 186.549Z" fill="#8896B7"/>
<path d="M130.182 187.369V202.506L126.059 204.655V189.713L130.182 187.369Z" fill="#4D5373"/>
<path d="M133.562 204.635L130.182 202.506L126.059 204.655V209.42L133.562 204.635Z" fill="#E0EAFD"/>
<path d="M122.522 130.551V144.438L119.688 146.059V132.27L122.522 130.551Z" fill="#8896B7"/>
<path d="M121.799 131V143.95L119.688 145.122V132.27L121.799 131Z" fill="#4D5373"/>
<path d="M122.522 144.438L121.799 143.95L119.688 145.122V146.059L122.522 144.438Z" fill="#E0EAFD"/>
<path d="M122.522 150.688V164.556L119.688 166.196V152.407L122.522 150.688Z" fill="#8896B7"/>
<path d="M121.799 151.137V164.087L119.688 165.259V152.407L121.799 151.137Z" fill="#4D5373"/>
<path d="M122.522 164.556L121.799 164.087L119.688 165.259V166.196L122.522 164.556Z" fill="#E0EAFD"/>
<path d="M122.522 169.205V183.092L119.688 184.713V170.943L122.522 169.205Z" fill="#8896B7"/>
<path d="M121.799 169.654V182.603L119.688 183.775V170.943L121.799 169.654Z" fill="#4D5373"/>
<path d="M122.522 183.091L121.799 182.603L119.688 183.775V184.712L122.522 183.091Z" fill="#E0EAFD"/>
<path d="M122.522 191.666V205.534L119.688 207.174V193.385L122.522 191.666Z" fill="#8896B7"/>
<path d="M121.799 192.115V205.065L119.688 206.237V193.385L121.799 192.115Z" fill="#4D5373"/>
<path d="M122.522 205.534L121.799 205.065L119.688 206.237V207.174L122.522 205.534Z" fill="#E0EAFD"/>
<path d="M139.13 100.804V114.671L136.277 116.312V102.523L139.13 100.804Z" fill="#8896B7"/>
<path d="M138.388 101.233V114.203L136.277 115.355V102.523L138.388 101.233Z" fill="#4D5373"/>
<path d="M139.13 114.671L138.388 114.203L136.277 115.355V116.312L139.13 114.671Z" fill="#E0EAFD"/>
<path d="M139.13 121.43V135.297L136.277 136.938V123.148L139.13 121.43Z" fill="#8896B7"/>
<path d="M138.388 121.879V134.828L136.277 136V123.148L138.388 121.879Z" fill="#4D5373"/>
<path d="M139.13 135.297L138.388 134.828L136.277 136V136.938L139.13 135.297Z" fill="#E0EAFD"/>
<path d="M139.13 141.567V155.435L136.277 157.075V143.286L139.13 141.567Z" fill="#8896B7"/>
<path d="M138.388 141.997V154.966L136.277 156.138V143.286L138.388 141.997Z" fill="#4D5373"/>
<path d="M139.13 155.435L138.388 154.966L136.277 156.138V157.076L139.13 155.435Z" fill="#E0EAFD"/>
<path d="M139.13 160.083V173.95L136.277 175.591V161.802L139.13 160.083Z" fill="#8896B7"/>
<path d="M138.388 160.532V173.482L136.277 174.654V161.802L138.388 160.532Z" fill="#4D5373"/>
<path d="M139.13 173.951L138.388 173.482L136.277 174.654V175.591L139.13 173.951Z" fill="#E0EAFD"/>
<path d="M139.13 182.545V196.412L136.277 198.053V184.263L139.13 182.545Z" fill="#8896B7"/>
<path d="M138.388 182.994V195.944L136.277 197.116V184.264L138.388 182.994Z" fill="#4D5373"/>
<path d="M139.13 196.412L138.388 195.943L136.277 197.115V198.053L139.13 196.412Z" fill="#E0EAFD"/>
<path d="M95.3408 151.646V165.513L98.1741 167.154V153.364L95.3408 151.646Z" fill="#8896B7"/>
<path d="M96.0645 152.094V165.044L98.1748 166.216V153.364L96.0645 152.094Z" fill="#4D5373"/>
<path d="M95.3408 165.513L96.0638 165.044L98.1741 166.216V167.153L95.3408 165.513Z" fill="#E0EAFD"/>
<path d="M95.3408 171.041V184.928L98.1741 186.549V172.779L95.3408 171.041Z" fill="#8896B7"/>
<path d="M96.0645 171.49V184.439L98.1748 185.611V172.779L96.0645 171.49Z" fill="#4D5373"/>
<path d="M95.3408 184.928L96.0638 184.439L98.1741 185.611V186.549L95.3408 184.928Z" fill="#E0EAFD"/>
<path d="M95.3408 192.154V206.022L98.1741 207.663V193.873L95.3408 192.154Z" fill="#8896B7"/>
<path d="M96.0645 192.604V205.553L98.1748 206.725V193.873L96.0645 192.604Z" fill="#4D5373"/>
<path d="M95.3408 206.022L96.0638 205.553L98.1741 206.725V207.663L95.3408 206.022Z" fill="#E0EAFD"/>
<path d="M77.6973 203.834L82.2306 206.178V107.288L77.6973 104.808V203.834Z" fill="#4D5373"/>
<path d="M70.917 117.054V121.117L82.426 127.816V123.832L70.917 117.054Z" fill="#E0EAFD"/>
<path d="M70.917 117.054H72.3434L82.426 122.992V123.832L70.917 117.054Z" fill="#8896B7"/>
<path d="M72.7139 117.289V113.949L82.4252 119.769V122.992L81.6437 122.523V120.765L80.9988 120.414V122.152L80.1586 121.625L80.1782 119.965L79.4747 119.593V121.254L78.6931 120.804V119.047L77.9701 118.636V120.375L77.2081 119.906V118.187L76.5242 117.738V119.515L75.6058 118.968V117.211L74.961 116.781V118.578L74.1403 118.109V116.332L73.4369 115.882V117.699L72.7139 117.289Z" fill="#E0EAFD"/>
<path d="M70.917 136.957V141L82.426 147.719V143.735L70.917 136.957Z" fill="#E0EAFD"/>
<path d="M70.917 136.957H72.3434L82.426 142.875V143.735L70.917 136.957Z" fill="#8896B7"/>
<path d="M72.7139 137.172V133.832L82.4252 139.653V142.875L81.6437 142.426V140.668L80.9988 140.297V142.035L80.1586 141.528L80.1782 139.867L79.4747 139.477V141.156L78.6931 140.688V138.93L77.9701 138.539V140.278L77.2081 139.789V138.07L76.5242 137.621V139.399L75.6058 138.852V137.113L74.961 136.664V138.481L74.1403 137.992V136.234L73.4369 135.785V137.582L72.7139 137.172Z" fill="#E0EAFD"/>
<path d="M70.917 157.036V161.099L82.426 167.798V163.814L70.917 157.036Z" fill="#E0EAFD"/>
<path d="M70.917 157.036H72.3434L82.426 162.974V163.814L70.917 157.036Z" fill="#8896B7"/>
<path d="M72.7139 157.251V153.911L82.4252 159.751V162.974L81.6437 162.505V160.747L80.9988 160.396V162.134L80.1586 161.607L80.1782 159.946L79.4747 159.575V161.236L78.6931 160.786V159.028L77.9701 158.618V160.357L77.2081 159.888V158.169L76.5242 157.72V159.497L75.6058 158.95V157.192L74.961 156.763V158.56L74.1403 158.091V156.314L73.4369 155.864V157.681L72.7139 157.251Z" fill="#E0EAFD"/>
<path d="M70.917 175.064V179.127L82.426 185.826V181.842L70.917 175.064Z" fill="#E0EAFD"/>
<path d="M70.917 175.064H72.3434L82.426 180.982V181.842L70.917 175.064Z" fill="#8896B7"/>
<path d="M72.7139 175.279V171.939L82.4252 177.759V180.982L81.6437 180.533V178.775L80.9988 178.404V180.142L80.1586 179.635L80.1782 177.974L79.4747 177.584V179.263L78.6931 178.795V177.056L77.9701 176.646V178.384L77.2081 177.896V176.197L76.5242 175.748V177.506L75.6058 176.978V175.22L74.961 174.771V176.588L74.1403 176.099V174.341L73.4369 173.892V175.689L72.7139 175.279Z" fill="#E0EAFD"/>
<path d="M117.187 107.542L118.496 106.741L115.975 105.433L114.744 106.233L117.187 107.542Z" fill="#C7D0DD"/>
<path d="M114.744 106.234V216.745L117.187 218.093V107.542L114.744 106.234Z" fill="#8896B7"/>
<path d="M117.187 218.093V107.542L118.496 106.742V217.077L117.187 218.093Z" fill="#4D5373"/>
<path d="M144.602 89.7879L145.911 88.9676L143.371 87.6785L142.159 88.4793L144.602 89.7879Z" fill="#C7D0DD"/>
<path d="M142.159 88.4792V198.99L144.602 200.319V89.7879L142.159 88.4792Z" fill="#8896B7"/>
<path d="M144.602 200.319V89.7879L145.911 88.9675V199.322L144.602 200.319Z" fill="#4D5373"/>
<path d="M128.148 90.9597L133.424 94.1043L133.561 204.635L131.627 203.522L131.646 102.62L128.148 100.433V90.9597Z" fill="#8896B7"/>
<path d="M128.149 100.433L126.059 101.722V106.234L131.647 102.62L128.149 100.433Z" fill="#8896B7"/>
<path opacity="0.19" d="M128.149 104.808L126.059 106.234V209.479L128.149 203.541V104.808Z" fill="#4D5373"/>
<path d="M97.8623 119.535L97.9405 126.371L107.574 132.25L116.816 126.254V119.261L107.515 125.414L97.8623 119.535Z" fill="#E0EAFD"/>
<path d="M99.2305 118.715L101.712 117.054V122.016L104.33 120.453H109.938L112.479 122.133V117.054L115.468 118.422V124.184L107.359 129.848L99.2305 124.691V118.715Z" fill="#E0EAFD"/>
<path d="M97.8623 119.515L99.2301 118.715L107.515 123.598L115.468 118.422L116.816 119.261L107.515 125.414L97.8623 119.515Z" fill="#8896B7"/>
<path d="M99.2305 139.985L101.712 138.305V143.266L104.33 141.704H109.938L112.479 143.383V138.305L115.468 139.672V145.434L107.359 151.099L99.2305 145.942V139.985Z" fill="#E0EAFD"/>
<path d="M97.8623 140.766L99.2301 139.985L107.515 144.848L115.468 139.672L116.816 140.512L107.515 146.665L97.8623 140.766Z" fill="#8896B7"/>
<path d="M99.2305 159.106L101.712 157.446V162.407L104.33 160.845H109.938L112.479 162.524V157.446L115.468 158.813V164.575L107.359 170.239L99.2305 165.083V159.106Z" fill="#E0EAFD"/>
<path d="M97.8623 159.907L99.2301 159.106L107.515 163.989L115.468 158.813L116.816 159.653L107.515 165.805L97.8623 159.907Z" fill="#8896B7"/>
<path d="M99.2305 178.638L101.712 176.958V181.92L104.33 180.357H109.938L112.479 182.037V176.958L115.468 178.326V184.088L107.359 189.752L99.2305 184.595V178.638Z" fill="#E0EAFD"/>
<path d="M97.8623 179.419L99.2301 178.638L107.515 183.502L115.468 178.326L116.816 179.166L107.515 185.318L97.8623 179.419Z" fill="#8896B7"/>
<path d="M99.2305 199.713L101.712 198.053V203.014L104.33 201.451H109.938L112.479 203.131V198.053L115.468 199.42V205.182L107.359 210.846L99.2305 205.69V199.713Z" fill="#E0EAFD"/>
<path d="M97.8623 200.514L99.2301 199.713L107.515 204.596L115.468 199.42L116.816 200.26L107.515 206.413L97.8623 200.514Z" fill="#8896B7"/>
<path d="M97.8623 140.786L97.9405 147.622L107.574 153.501L116.816 147.505V140.512L107.515 146.665L97.8623 140.786Z" fill="#E0EAFD"/>
<path d="M97.8623 159.927L97.9405 166.763L107.574 172.642L116.816 166.626V159.653L107.515 165.806L97.8623 159.927Z" fill="#E0EAFD"/>
<path d="M97.8623 179.439L97.9405 186.275L107.574 192.154L116.816 186.158V179.166L107.515 185.318L97.8623 179.439Z" fill="#E0EAFD"/>
<path d="M97.8623 200.534L97.9405 207.37L107.574 213.249L116.816 207.233V200.26L107.515 206.413L97.8623 200.534Z" fill="#E0EAFD"/>
<path d="M93.8364 74.8262L90.5928 72.6582V78.5959L93.8364 80.6663V74.8262Z" fill="#8896B7"/>
<path d="M93.3868 75.3931L90.9248 73.7524V78.2252L93.3868 79.7682V75.3931Z" fill="#4C5173"/>
<path d="M93.8359 74.8263L99.1508 71.4277V76.9943L93.8359 80.6663V74.8263Z" fill="#6E7A95"/>
<path d="M94.4033 75.1192L98.7217 72.3457V76.8771L94.4033 79.8459V75.1192Z" fill="#4C5173"/>
<path d="M90.5928 72.6583L95.8295 69.3379L99.1513 71.4278L93.8364 74.8263L90.5928 72.6583Z" fill="#E0EAFD"/>
<path d="M87.1733 79.3971L83.9297 77.2095V83.1667L87.1733 85.2175V79.3971Z" fill="#8896B7"/>
<path d="M86.7237 79.9439L84.2812 78.3032V82.776L86.7237 84.319V79.9439Z" fill="#4C5173"/>
<path d="M87.1738 79.3968L92.4887 75.9788V81.5453L87.1738 85.2173V79.3968Z" fill="#6E7A95"/>
<path d="M87.7598 79.6703L92.0586 76.9163V81.4281L87.7598 84.4165V79.6703Z" fill="#4C5173"/>
<path d="M83.9297 77.2093L89.1664 73.8889L92.4882 75.9788L87.1733 79.3969L83.9297 77.2093Z" fill="#E0EAFD"/>
<path d="M115.507 95.8623V102.132L120.509 98.9874L115.507 95.8623Z" fill="#C7D0DD"/>
</g>
<defs>
<clipPath id="clip0_280_27740">
<rect width="288" height="295" fill="white"/>
</clipPath>
</defs>
</svg>
