<svg width="199" height="144" viewBox="0 0 199 144" fill="none" xmlns="http://www.w3.org/2000/svg">
<g clip-path="url(#clip0_299_29604)">
<rect width="199" height="144" fill="white"/>
<g clip-path="url(#clip1_299_29604)">
<path d="M58.1056 0L75.9773 17.5793C75.9773 17.5793 53.4342 26.2638 48.2807 31.1619C43.1271 36.0601 33.9953 41.409 44.0312 56.975L89.3585 32.0334L104.548 44.2638L63.6811 70.7679L76.3993 78.7913L117.477 54.5109L132.004 67.192L100.088 87.8965C100.088 87.8965 119.285 94.3573 132.004 91.0217C144.722 87.6861 165.487 73.4424 169.947 66.0801L198.97 74.7646C198.97 74.7646 181.55 98.1436 173.503 98.8047C173.503 98.8047 146.259 115.513 120.581 114.611C94.9039 113.71 85.0789 110.374 69.4374 105.265L54.911 113.74L35.7132 103.282L47.3163 95.0484L33.694 87.4758L20.9758 94.3873L2.89313 83.4791L15.4003 74.5843C15.4003 74.5843 0.0601731 57.005 0.51224 47.419C0.964308 37.8331 7.6549 24.7012 17.9319 18.9316C28.2089 13.1619 58.1056 0 58.1056 0Z" fill="#ABBFE2"/>
<path d="M75.9775 17.2188L75.0734 39.546L43.941 56.975C43.941 56.975 34.4175 45.9166 42.5547 36.3607C42.5547 36.3607 47.7384 27.8565 75.9775 17.2188Z" fill="#4D5274"/>
<path d="M104.548 44.2937L103.885 62.5942L76.2186 79.0316L63.3799 70.7678L104.548 44.2937Z" fill="#4D5274"/>
<path d="M132.034 67.2219L131.823 91.0817C131.823 91.0817 115.337 95.1385 100.118 87.9264L132.034 67.2219Z" fill="#4D5274"/>
<path d="M199 75.0352V107.549C199 107.549 183.479 121.913 181.128 123.566C178.989 125.069 158.796 138.711 141.618 141.386V112.117C141.618 112.117 182.213 96.6111 199 75.0352Z" fill="#4D5274"/>
<path d="M141.617 141.356C107.893 149.589 69.2866 135.796 69.2866 135.796L69.4976 105.295C69.4976 105.295 108.225 120.11 141.617 112.087V141.356Z" fill="#75799B"/>
<path d="M69.4976 105.295L54.7603 113.649V142.708L69.2867 135.796L69.4976 105.295Z" fill="#4D5274"/>
<path d="M36.2256 103.312V133.573L54.7603 142.708V113.649L36.2256 103.312Z" fill="#75799B"/>
<path d="M20.8252 94.3874V124.227L33.5434 116.865L36.2256 119.87V103.312L47.4067 95.0485L33.9954 87.0852L20.8252 94.3874Z" fill="#4D5274"/>
<path d="M3.19482 83.6294L20.8254 94.3873V124.227L3.19482 113.98V83.6294Z" fill="#75799B"/>
<path d="M0.512192 49.1919C0.512192 49.1919 4.36983 63.045 15.6715 74.2236L3.19446 83.8998C3.19446 83.8998 -1.50704 88.5876 0.512192 49.1619V49.1919Z" fill="#75799B"/>
</g>
</g>
<defs>
<clipPath id="clip0_299_29604">
<rect width="199" height="144" fill="white"/>
</clipPath>
<clipPath id="clip1_299_29604">
<rect width="199" height="144" fill="white"/>
</clipPath>
</defs>
</svg>
