<svg width="639" height="494" viewBox="0 0 639 494" fill="none" xmlns="http://www.w3.org/2000/svg">
<g clip-path="url(#clip0_234_111377)">
<path d="M159.797 196.609L259.557 142.215L479.642 269.018L382.088 324.363L159.797 196.609Z" fill="#8796B8"/>
<path d="M18.2066 305.147L312.021 472.733C312.021 472.733 368.697 510.113 425.925 485.694L611.051 383.461C611.051 383.461 631.866 373.102 637.583 349.733V327.966C637.583 327.966 621.985 344.579 612.606 349.733C603.227 354.888 431.091 451.966 431.091 451.966C431.091 451.966 401.449 463.375 382.189 462.325C362.929 461.274 339.556 459.222 322.403 447.813C305.25 436.404 27.5858 278.676 27.5858 278.676C27.5858 278.676 3.66139 262.613 0 254.306V279.226C0 279.226 0.902809 295.289 18.2066 305.147Z" fill="#464E5F"/>
<path d="M0 254.306V222.13C0 222.13 17.7051 242.897 29.1407 248.601C40.5762 254.306 315.181 412.034 315.181 412.034C315.181 412.034 361.976 434.352 383.292 430.699C383.292 430.699 431.141 427.046 449.348 410.983L617.32 313.954C617.32 313.954 632.417 309.3 637.583 293.738V327.966C637.583 327.966 624.242 342.678 616.117 347.481C607.991 352.285 441.022 446.361 441.022 446.361C441.022 446.361 414.439 463.375 382.189 462.324C349.939 461.274 326.817 450.415 326.817 450.415L33.3036 281.928C33.3036 281.928 2.60811 262.062 0 254.306Z" fill="#8C95AB"/>
<path d="M0 222.93V190.754C0 190.754 17.7051 211.521 29.1407 217.226C40.5762 222.93 315.181 380.658 315.181 380.658C315.181 380.658 361.976 402.976 383.292 399.323C383.292 399.323 431.141 395.67 449.348 379.607L617.32 282.579C617.32 282.579 632.417 277.925 637.583 262.362V296.59C637.583 296.59 624.242 311.302 616.117 316.106C607.991 320.91 441.022 414.986 441.022 414.986C441.022 414.986 414.439 432 382.189 430.949C349.939 429.898 326.817 419.039 326.817 419.039L33.3036 250.553C33.3036 250.553 2.60811 230.687 0 222.93Z" fill="#E0E9F6"/>
<path d="M0 190.755V155.226C0 155.226 10.3823 174.942 23.9244 181.698C37.4666 188.453 315.181 348.783 315.181 348.783C315.181 348.783 356.81 371.101 382.791 367.998C408.772 364.896 441.022 358.14 449.9 349.333L602.274 261.812C602.274 261.812 633.471 248.151 637.634 222.23V262.463C637.634 262.463 635.076 272.471 617.371 282.679C599.666 292.888 451.354 378.557 451.354 378.557C451.354 378.557 427.53 398.623 383.343 399.424C383.343 399.424 353.249 402.576 315.231 380.759L22.5201 212.923C22.5201 212.923 10.3823 202.414 0 190.755Z" fill="#8C95AB"/>
<path d="M255.394 50.4907L83.1083 151.823L71.8232 145.518L255.394 40.0823" fill="#8C95AB"/>
<path d="M561.898 220.178L536.569 203.515L411.079 129.305L255.394 40.0823V50.4907L558.387 223.481L562.951 220.428" fill="#8C95AB"/>
<path d="M127.898 177.944L182.167 145.918C230.166 117.595 289.801 117.645 337.7 146.118L512.795 250.002L558.387 223.531L255.394 50.4907L83.1084 151.823L127.948 177.894L127.898 177.944Z" fill="#464E5F"/>
<path d="M204.787 173.49L245.313 197.86L201.627 221.179" stroke="#464E5F" stroke-width="0.227022" stroke-miterlimit="10"/>
<path d="M162.706 198.361L259.557 142.215L479.642 269.018" stroke="#464E5F" stroke-width="0.227022" stroke-miterlimit="10"/>
<path d="M315.531 288.834C333.481 288.834 348.032 280.074 348.032 269.268C348.032 258.462 333.481 249.702 315.531 249.702C297.582 249.702 283.03 258.462 283.03 269.268C283.03 280.074 297.582 288.834 315.531 288.834Z" stroke="#464E5F" stroke-width="0.227022" stroke-miterlimit="10"/>
<path d="M298.177 277.324L394.076 222.13" stroke="#464E5F" stroke-width="0.227022" stroke-miterlimit="10"/>
<path d="M610.6 183.949C534.864 138.762 363.832 41.9338 321.701 17.1137C293.062 2.2517 256.197 -4.90409 223.997 3.70288C206.693 7.70612 190.242 14.4616 174.994 23.2187C150.97 36.4294 111.146 58.9977 79.3469 77.1123C58.9835 88.9719 40.0245 98.8799 22.0687 110.239C-11.3854 136.41 -4.76479 167.435 30.4447 187.251C71.021 210.22 214.668 292.337 288.347 334.371C311.218 347.882 336.447 360.992 363.681 366.747C398.038 372.902 439.116 359.891 468.307 340.576C492.783 326.614 550.262 293.738 581.158 276.073C604.781 262.963 624.643 251.854 636.731 228.285C644.656 212.622 622.537 192.956 611.101 184.249L610.65 183.899L610.6 183.949ZM382.089 324.362C313.475 288.383 100.312 160.93 76.6886 148.27C73.8297 146.318 74.4817 145.518 77.8923 143.216C113.503 121.949 165.314 91.6741 203.985 68.8056C223.194 57.4964 239.094 48.0888 246.918 43.4851C251.232 40.9831 253.388 39.8822 255.395 40.0823C288.698 58.9476 525.635 193.957 562.951 220.478C545.397 232.588 525.033 242.446 496.344 259.56C460.784 279.426 412.333 309.3 382.289 324.362H382.039H382.089Z" fill="#E0E9F6"/>
<path d="M127.898 177.944L175.947 149.321C228.461 115.194 296.171 114.243 346.076 151.873L512.795 249.953L479.592 269.068L259.557 142.265L159.747 196.66L127.898 176.093" fill="#5F6688"/>
<path d="M595.302 311.653V315.856C595.302 318.158 594.048 320.26 592.042 321.41L453.812 399.774C450 401.926 445.335 399.173 445.335 394.82C445.335 392.818 446.439 390.917 448.144 389.916L589.283 308.2C591.942 306.648 595.252 308.55 595.252 311.653H595.302Z" fill="#464E5F"/>
<path d="M97.6035 279.176L237.338 359.091C239.896 360.542 243.106 358.69 243.106 355.738C243.106 351.885 241.05 348.382 237.74 346.431L99.8606 266.316C97.4029 264.915 94.3936 266.666 94.3936 269.468V273.622C94.3936 275.923 95.5973 278.025 97.6035 279.176Z" fill="#464E5F"/>
<path d="M315.832 113.492C318.242 113.492 320.196 111.543 320.196 109.138C320.196 106.734 318.242 104.785 315.832 104.785C313.422 104.785 311.469 106.734 311.469 109.138C311.469 111.543 313.422 113.492 315.832 113.492Z" fill="#E0E9F6"/>
<path d="M322.252 103.434C324.662 103.434 326.616 101.485 326.616 99.0803C326.616 96.6759 324.662 94.7268 322.252 94.7268C319.842 94.7268 317.889 96.6759 317.889 99.0803C317.889 101.485 319.842 103.434 322.252 103.434Z" fill="#8BA8D5"/>
<path d="M332.334 108.438C334.744 108.438 336.697 106.489 336.697 104.084C336.697 101.68 334.744 99.731 332.334 99.731C329.924 99.731 327.97 101.68 327.97 104.084C327.97 106.489 329.924 108.438 332.334 108.438Z" fill="#E0E9F6"/>
<path d="M326.616 118.596C329.026 118.596 330.98 116.647 330.98 114.242C330.98 111.838 329.026 109.889 326.616 109.889C324.206 109.889 322.252 111.838 322.252 114.242C322.252 116.647 324.206 118.596 326.616 118.596Z" fill="#8796B8"/>
<path d="M308.309 125.352C310.719 125.352 312.672 123.402 312.672 120.998C312.672 118.594 310.719 116.645 308.309 116.645C305.899 116.645 303.945 118.594 303.945 120.998C303.945 123.402 305.899 125.352 308.309 125.352Z" fill="#8C95AB"/>
<path d="M319.644 130.105C322.054 130.105 324.008 128.156 324.008 125.752C324.008 123.347 322.054 121.398 319.644 121.398C317.234 121.398 315.281 123.347 315.281 125.752C315.281 128.156 317.234 130.105 319.644 130.105Z" fill="#8BA8D5"/>
<path d="M330.98 136.461C333.389 136.461 335.343 134.512 335.343 132.107C335.343 129.703 333.389 127.754 330.98 127.754C328.57 127.754 326.616 129.703 326.616 132.107C326.616 134.512 328.57 136.461 330.98 136.461Z" fill="#E0E9F6"/>
<path d="M338.704 124.051C341.114 124.051 343.067 122.102 343.067 119.697C343.067 117.293 341.114 115.344 338.704 115.344C336.294 115.344 334.34 117.293 334.34 119.697C334.34 122.102 336.294 124.051 338.704 124.051Z" fill="#8BA8D5"/>
<path d="M345.575 115.344C347.985 115.344 349.939 113.394 349.939 110.99C349.939 108.586 347.985 106.636 345.575 106.636C343.165 106.636 341.211 108.586 341.211 110.99C341.211 113.394 343.165 115.344 345.575 115.344Z" fill="#5C667D"/>
<path d="M274.203 92.625C276.613 92.625 278.567 90.6759 278.567 88.2715C278.567 85.8671 276.613 83.918 274.203 83.918C271.793 83.918 269.839 85.8671 269.839 88.2715C269.839 90.6759 271.793 92.625 274.203 92.625Z" fill="#E0E9F6"/>
<path d="M280.623 82.617C283.033 82.617 284.986 80.6678 284.986 78.2634C284.986 75.8591 283.033 73.9099 280.623 73.9099C278.213 73.9099 276.259 75.8591 276.259 78.2634C276.259 80.6678 278.213 82.617 280.623 82.617Z" fill="#8BA8D5"/>
<path d="M290.704 87.6211C293.114 87.6211 295.067 85.672 295.067 83.2676C295.067 80.8632 293.114 78.9141 290.704 78.9141C288.294 78.9141 286.34 80.8632 286.34 83.2676C286.34 85.672 288.294 87.6211 290.704 87.6211Z" fill="#E0E9F6"/>
<path d="M284.987 97.729C287.397 97.729 289.35 95.7799 289.35 93.3755C289.35 90.9711 287.397 89.022 284.987 89.022C282.577 89.022 280.623 90.9711 280.623 93.3755C280.623 95.7799 282.577 97.729 284.987 97.729Z" fill="#8796B8"/>
<path d="M266.679 104.485C269.089 104.485 271.043 102.536 271.043 100.131C271.043 97.7267 269.089 95.7776 266.679 95.7776C264.27 95.7776 262.316 97.7267 262.316 100.131C262.316 102.536 264.27 104.485 266.679 104.485Z" fill="#8C95AB"/>
<path d="M278.015 109.289C280.425 109.289 282.378 107.339 282.378 104.935C282.378 102.531 280.425 100.582 278.015 100.582C275.605 100.582 273.651 102.531 273.651 104.935C273.651 107.339 275.605 109.289 278.015 109.289Z" fill="#8BA8D5"/>
<path d="M289.35 115.594C291.76 115.594 293.713 113.645 293.713 111.24C293.713 108.836 291.76 106.887 289.35 106.887C286.94 106.887 284.986 108.836 284.986 111.24C284.986 113.645 286.94 115.594 289.35 115.594Z" fill="#E0E9F6"/>
<path d="M297.074 103.184C299.484 103.184 301.438 101.235 301.438 98.8303C301.438 96.426 299.484 94.4768 297.074 94.4768C294.664 94.4768 292.71 96.426 292.71 98.8303C292.71 101.235 294.664 103.184 297.074 103.184Z" fill="#8BA8D5"/>
<path d="M303.945 94.4766C306.355 94.4766 308.309 92.5274 308.309 90.1231C308.309 87.7187 306.355 85.7695 303.945 85.7695C301.535 85.7695 299.582 87.7187 299.582 90.1231C299.582 92.5274 301.535 94.4766 303.945 94.4766Z" fill="#5C667D"/>
<path d="M229.012 98.4299C231.422 98.4299 233.376 96.4808 233.376 94.0764C233.376 91.672 231.422 89.7229 229.012 89.7229C226.602 89.7229 224.649 91.672 224.649 94.0764C224.649 96.4808 226.602 98.4299 229.012 98.4299Z" fill="#E0E9F6"/>
<path d="M222.542 88.4219C224.952 88.4219 226.905 86.4727 226.905 84.0684C226.905 81.664 224.952 79.7148 222.542 79.7148C220.132 79.7148 218.178 81.664 218.178 84.0684C218.178 86.4727 220.132 88.4219 222.542 88.4219Z" fill="#8BA8D5"/>
<path d="M212.461 93.4263C214.871 93.4263 216.824 91.4771 216.824 89.0728C216.824 86.6684 214.871 84.7192 212.461 84.7192C210.051 84.7192 208.097 86.6684 208.097 89.0728C208.097 91.4771 210.051 93.4263 212.461 93.4263Z" fill="#E0E9F6"/>
<path d="M218.179 103.534C220.588 103.534 222.542 101.585 222.542 99.1804C222.542 96.776 220.588 94.8269 218.179 94.8269C215.769 94.8269 213.815 96.776 213.815 99.1804C213.815 101.585 215.769 103.534 218.179 103.534Z" fill="#8796B8"/>
<path d="M236.486 110.29C238.896 110.29 240.849 108.34 240.849 105.936C240.849 103.532 238.896 101.583 236.486 101.583C234.076 101.583 232.122 103.532 232.122 105.936C232.122 108.34 234.076 110.29 236.486 110.29Z" fill="#8C95AB"/>
<path d="M225.15 115.094C227.56 115.094 229.514 113.144 229.514 110.74C229.514 108.336 227.56 106.386 225.15 106.386C222.74 106.386 220.786 108.336 220.786 110.74C220.786 113.144 222.74 115.094 225.15 115.094Z" fill="#8BA8D5"/>
<path d="M213.815 121.399C216.225 121.399 218.179 119.45 218.179 117.045C218.179 114.641 216.225 112.692 213.815 112.692C211.405 112.692 209.451 114.641 209.451 117.045C209.451 119.45 211.405 121.399 213.815 121.399Z" fill="#E0E9F6"/>
<path d="M206.091 109.039C208.501 109.039 210.454 107.09 210.454 104.685C210.454 102.281 208.501 100.332 206.091 100.332C203.681 100.332 201.727 102.281 201.727 104.685C201.727 107.09 203.681 109.039 206.091 109.039Z" fill="#8BA8D5"/>
<path d="M199.22 100.332C201.629 100.332 203.583 98.3824 203.583 95.978C203.583 93.5737 201.629 91.6245 199.22 91.6245C196.81 91.6245 194.856 93.5737 194.856 95.978C194.856 98.3824 196.81 100.332 199.22 100.332Z" fill="#5C667D"/>
<path d="M189.891 118.896C192.301 118.896 194.254 116.947 194.254 114.543C194.254 112.138 192.301 110.189 189.891 110.189C187.481 110.189 185.527 112.138 185.527 114.543C185.527 116.947 187.481 118.896 189.891 118.896Z" fill="#E0E9F6"/>
<path d="M183.42 108.838C185.83 108.838 187.784 106.889 187.784 104.485C187.784 102.08 185.83 100.131 183.42 100.131C181.011 100.131 179.057 102.08 179.057 104.485C179.057 106.889 181.011 108.838 183.42 108.838Z" fill="#8BA8D5"/>
<path d="M173.389 113.842C175.799 113.842 177.753 111.893 177.753 109.489C177.753 107.084 175.799 105.135 173.389 105.135C170.979 105.135 169.026 107.084 169.026 109.489C169.026 111.893 170.979 113.842 173.389 113.842Z" fill="#E0E9F6"/>
<path d="M179.057 124C181.467 124 183.42 122.051 183.42 119.646C183.42 117.242 181.467 115.293 179.057 115.293C176.647 115.293 174.693 117.242 174.693 119.646C174.693 122.051 176.647 124 179.057 124Z" fill="#8796B8"/>
<path d="M197.364 130.756C199.774 130.756 201.727 128.806 201.727 126.402C201.727 123.998 199.774 122.049 197.364 122.049C194.954 122.049 193 123.998 193 126.402C193 128.806 194.954 130.756 197.364 130.756Z" fill="#8C95AB"/>
<path d="M186.028 135.51C188.438 135.51 190.392 133.56 190.392 131.156C190.392 128.752 188.438 126.802 186.028 126.802C183.618 126.802 181.665 128.752 181.665 131.156C181.665 133.56 183.618 135.51 186.028 135.51Z" fill="#8BA8D5"/>
<path d="M174.693 141.865C177.103 141.865 179.057 139.916 179.057 137.511C179.057 135.107 177.103 133.158 174.693 133.158C172.283 133.158 170.33 135.107 170.33 137.511C170.33 139.916 172.283 141.865 174.693 141.865Z" fill="#E0E9F6"/>
<path d="M166.969 129.455C169.379 129.455 171.333 127.506 171.333 125.101C171.333 122.697 169.379 120.748 166.969 120.748C164.559 120.748 162.606 122.697 162.606 125.101C162.606 127.506 164.559 129.455 166.969 129.455Z" fill="#8BA8D5"/>
<path d="M160.098 120.748C162.508 120.748 164.462 118.798 164.462 116.394C164.462 113.99 162.508 112.041 160.098 112.041C157.688 112.041 155.734 113.99 155.734 116.394C155.734 118.798 157.688 120.748 160.098 120.748Z" fill="#5C667D"/>
<path d="M152.625 140.113C155.035 140.113 156.988 138.164 156.988 135.759C156.988 133.355 155.035 131.406 152.625 131.406C150.215 131.406 148.261 133.355 148.261 135.759C148.261 138.164 150.215 140.113 152.625 140.113Z" fill="#E0E9F6"/>
<path d="M146.155 130.105C148.565 130.105 150.518 128.156 150.518 125.751C150.518 123.347 148.565 121.398 146.155 121.398C143.745 121.398 141.791 123.347 141.791 125.751C141.791 128.156 143.745 130.105 146.155 130.105Z" fill="#8BA8D5"/>
<path d="M136.073 135.059C138.483 135.059 140.437 133.11 140.437 130.706C140.437 128.301 138.483 126.352 136.073 126.352C133.663 126.352 131.71 128.301 131.71 130.706C131.71 133.11 133.663 135.059 136.073 135.059Z" fill="#E0E9F6"/>
<path d="M141.791 145.217C144.201 145.217 146.154 143.268 146.154 140.864C146.154 138.459 144.201 136.51 141.791 136.51C139.381 136.51 137.427 138.459 137.427 140.864C137.427 143.268 139.381 145.217 141.791 145.217Z" fill="#8796B8"/>
<path d="M160.098 151.973C162.508 151.973 164.462 150.024 164.462 147.619C164.462 145.215 162.508 143.266 160.098 143.266C157.688 143.266 155.734 145.215 155.734 147.619C155.734 150.024 157.688 151.973 160.098 151.973Z" fill="#8C95AB"/>
<path d="M148.763 156.726C151.173 156.726 153.126 154.777 153.126 152.373C153.126 149.968 151.173 148.019 148.763 148.019C146.353 148.019 144.399 149.968 144.399 152.373C144.399 154.777 146.353 156.726 148.763 156.726Z" fill="#8BA8D5"/>
<path d="M119.873 158.378C122.283 158.378 124.236 156.429 124.236 154.024C124.236 151.62 122.283 149.671 119.873 149.671C117.463 149.671 115.509 151.62 115.509 154.024C115.509 156.429 117.463 158.378 119.873 158.378Z" fill="#E0E9F6"/>
<path d="M113.402 148.32C115.812 148.32 117.766 146.37 117.766 143.966C117.766 141.562 115.812 139.613 113.402 139.613C110.992 139.613 109.039 141.562 109.039 143.966C109.039 146.37 110.992 148.32 113.402 148.32Z" fill="#8BA8D5"/>
<path d="M103.371 153.324C105.781 153.324 107.735 151.374 107.735 148.97C107.735 146.566 105.781 144.616 103.371 144.616C100.961 144.616 99.0078 146.566 99.0078 148.97C99.0078 151.374 100.961 153.324 103.371 153.324Z" fill="#E0E9F6"/>
<path d="M109.039 163.482C111.449 163.482 113.403 161.533 113.403 159.129C113.403 156.724 111.449 154.775 109.039 154.775C106.629 154.775 104.676 156.724 104.676 159.129C104.676 161.533 106.629 163.482 109.039 163.482Z" fill="#8796B8"/>
<path d="M127.346 170.237C129.756 170.237 131.709 168.288 131.709 165.884C131.709 163.479 129.756 161.53 127.346 161.53C124.936 161.53 122.982 163.479 122.982 165.884C122.982 168.288 124.936 170.237 127.346 170.237Z" fill="#8C95AB"/>
<path d="M137.427 163.082C139.837 163.082 141.791 161.133 141.791 158.728C141.791 156.324 139.837 154.375 137.427 154.375C135.017 154.375 133.064 156.324 133.064 158.728C133.064 161.133 135.017 163.082 137.427 163.082Z" fill="#E0E9F6"/>
<path d="M129.703 150.672C132.113 150.672 134.067 148.723 134.067 146.318C134.067 143.914 132.113 141.965 129.703 141.965C127.293 141.965 125.34 143.914 125.34 146.318C125.34 148.723 127.293 150.672 129.703 150.672Z" fill="#8BA8D5"/>
<path d="M122.832 141.965C125.242 141.965 127.195 140.015 127.195 137.611C127.195 135.207 125.242 133.258 122.832 133.258C120.422 133.258 118.468 135.207 118.468 137.611C118.468 140.015 120.422 141.965 122.832 141.965Z" fill="#5C667D"/>
<path d="M260.811 73.3589C263.221 73.3589 265.175 71.4098 265.175 69.0054C265.175 66.601 263.221 64.6519 260.811 64.6519C258.401 64.6519 256.448 66.601 256.448 69.0054C256.448 71.4098 258.401 73.3589 260.811 73.3589Z" fill="#E0E9F6"/>
<path d="M252.485 64.8023C254.895 64.8023 256.849 62.8531 256.849 60.4487C256.849 58.0444 254.895 56.0952 252.485 56.0952C250.075 56.0952 248.122 58.0444 248.122 60.4487C248.122 62.8531 250.075 64.8023 252.485 64.8023Z" fill="#8BA8D5"/>
<path d="M243.608 71.708C246.018 71.708 247.971 69.7589 247.971 67.3545C247.971 64.9501 246.018 63.001 243.608 63.001C241.198 63.001 239.244 64.9501 239.244 67.3545C239.244 69.7589 241.198 71.708 243.608 71.708Z" fill="#E0E9F6"/>
<path d="M251.181 80.5152C253.591 80.5152 255.545 78.566 255.545 76.1616C255.545 73.7572 253.591 71.8081 251.181 71.8081C248.772 71.8081 246.818 73.7572 246.818 76.1616C246.818 78.566 248.772 80.5152 251.181 80.5152Z" fill="#8796B8"/>
<path d="M270.491 83.5174C272.901 83.5174 274.855 81.5682 274.855 79.1638C274.855 76.7594 272.901 74.8103 270.491 74.8103C268.082 74.8103 266.128 76.7594 266.128 79.1638C266.128 81.5682 268.082 83.5174 270.491 83.5174Z" fill="#8C95AB"/>
<path d="M260.31 90.4229C262.72 90.4229 264.673 88.4737 264.673 86.0693C264.673 83.665 262.72 81.7158 260.31 81.7158C257.9 81.7158 255.946 83.665 255.946 86.0693C255.946 88.4737 257.9 90.4229 260.31 90.4229Z" fill="#8BA8D5"/>
<path d="M250.479 98.8801C252.889 98.8801 254.843 96.931 254.843 94.5266C254.843 92.1222 252.889 90.1731 250.479 90.1731C248.069 90.1731 246.115 92.1222 246.115 94.5266C246.115 96.931 248.069 98.8801 250.479 98.8801Z" fill="#E0E9F6"/>
<path d="M240.448 88.2212C242.858 88.2212 244.811 86.2721 244.811 83.8677C244.811 81.4633 242.858 79.5142 240.448 79.5142C238.038 79.5142 236.084 81.4633 236.084 83.8677C236.084 86.2721 238.038 88.2212 240.448 88.2212Z" fill="#8BA8D5"/>
<path d="M231.971 81.0655C234.381 81.0655 236.335 79.1163 236.335 76.7119C236.335 74.3075 234.381 72.3584 231.971 72.3584C229.561 72.3584 227.608 74.3075 227.608 76.7119C227.608 79.1163 229.561 81.0655 231.971 81.0655Z" fill="#5C667D"/>
<path d="M353.098 134.359C355.508 134.359 357.462 132.41 357.462 130.005C357.462 127.601 355.508 125.652 353.098 125.652C350.689 125.652 348.735 127.601 348.735 130.005C348.735 132.41 350.689 134.359 353.098 134.359Z" fill="#E0E9F6"/>
<path d="M359.568 124.301C361.978 124.301 363.932 122.351 363.932 119.947C363.932 117.543 361.978 115.594 359.568 115.594C357.158 115.594 355.205 117.543 355.205 119.947C355.205 122.351 357.158 124.301 359.568 124.301Z" fill="#8BA8D5"/>
<path d="M369.6 129.305C372.01 129.305 373.963 127.356 373.963 124.951C373.963 122.547 372.01 120.598 369.6 120.598C367.19 120.598 365.236 122.547 365.236 124.951C365.236 127.356 367.19 129.305 369.6 129.305Z" fill="#E0E9F6"/>
<path d="M363.932 139.463C366.342 139.463 368.295 137.514 368.295 135.109C368.295 132.705 366.342 130.756 363.932 130.756C361.522 130.756 359.568 132.705 359.568 135.109C359.568 137.514 361.522 139.463 363.932 139.463Z" fill="#8796B8"/>
<path d="M345.575 146.219C347.985 146.219 349.939 144.269 349.939 141.865C349.939 139.461 347.985 137.511 345.575 137.511C343.165 137.511 341.211 139.461 341.211 141.865C341.211 144.269 343.165 146.219 345.575 146.219Z" fill="#8C95AB"/>
<path d="M356.91 150.972C359.32 150.972 361.274 149.023 361.274 146.619C361.274 144.214 359.32 142.265 356.91 142.265C354.5 142.265 352.547 144.214 352.547 146.619C352.547 149.023 354.5 150.972 356.91 150.972Z" fill="#8BA8D5"/>
<path d="M368.246 157.327C370.656 157.327 372.609 155.378 372.609 152.974C372.609 150.569 370.656 148.62 368.246 148.62C365.836 148.62 363.882 150.569 363.882 152.974C363.882 155.378 365.836 157.327 368.246 157.327Z" fill="#E0E9F6"/>
<path d="M376.02 144.917C378.43 144.917 380.383 142.968 380.383 140.564C380.383 138.16 378.43 136.21 376.02 136.21C373.61 136.21 371.656 138.16 371.656 140.564C371.656 142.968 373.61 144.917 376.02 144.917Z" fill="#8BA8D5"/>
<path d="M382.891 136.21C385.301 136.21 387.255 134.261 387.255 131.857C387.255 129.453 385.301 127.503 382.891 127.503C380.481 127.503 378.528 129.453 378.528 131.857C378.528 134.261 380.481 136.21 382.891 136.21Z" fill="#5C667D"/>
<path d="M392.271 158.178C394.681 158.178 396.634 156.229 396.634 153.824C396.634 151.42 394.681 149.471 392.271 149.471C389.861 149.471 387.907 151.42 387.907 153.824C387.907 156.229 389.861 158.178 392.271 158.178Z" fill="#E0E9F6"/>
<path d="M398.69 148.12C401.1 148.12 403.054 146.171 403.054 143.766C403.054 141.362 401.1 139.413 398.69 139.413C396.281 139.413 394.327 141.362 394.327 143.766C394.327 146.171 396.281 148.12 398.69 148.12Z" fill="#8BA8D5"/>
<path d="M408.772 153.124C411.181 153.124 413.135 151.175 413.135 148.771C413.135 146.366 411.181 144.417 408.772 144.417C406.362 144.417 404.408 146.366 404.408 148.771C404.408 151.175 406.362 153.124 408.772 153.124Z" fill="#E0E9F6"/>
<path d="M403.054 163.282C405.464 163.282 407.417 161.333 407.417 158.928C407.417 156.524 405.464 154.575 403.054 154.575C400.644 154.575 398.69 156.524 398.69 158.928C398.69 161.333 400.644 163.282 403.054 163.282Z" fill="#8796B8"/>
<path d="M384.747 170.038C387.157 170.038 389.11 168.089 389.11 165.684C389.11 163.28 387.157 161.331 384.747 161.331C382.337 161.331 380.383 163.28 380.383 165.684C380.383 168.089 382.337 170.038 384.747 170.038Z" fill="#8C95AB"/>
<path d="M396.082 174.792C398.492 174.792 400.446 172.842 400.446 170.438C400.446 168.034 398.492 166.084 396.082 166.084C393.672 166.084 391.719 168.034 391.719 170.438C391.719 172.842 393.672 174.792 396.082 174.792Z" fill="#8BA8D5"/>
<path d="M407.417 181.147C409.827 181.147 411.781 179.198 411.781 176.793C411.781 174.389 409.827 172.44 407.417 172.44C405.007 172.44 403.054 174.389 403.054 176.793C403.054 179.198 405.007 181.147 407.417 181.147Z" fill="#E0E9F6"/>
<path d="M415.141 168.737C417.551 168.737 419.505 166.788 419.505 164.383C419.505 161.979 417.551 160.03 415.141 160.03C412.731 160.03 410.778 161.979 410.778 164.383C410.778 166.788 412.731 168.737 415.141 168.737Z" fill="#8BA8D5"/>
<path d="M422.013 160.03C424.423 160.03 426.376 158.081 426.376 155.676C426.376 153.272 424.423 151.323 422.013 151.323C419.603 151.323 417.649 153.272 417.649 155.676C417.649 158.081 419.603 160.03 422.013 160.03Z" fill="#5C667D"/>
<path d="M429.536 179.045C431.946 179.045 433.9 177.096 433.9 174.692C433.9 172.288 431.946 170.338 429.536 170.338C427.126 170.338 425.172 172.288 425.172 174.692C425.172 177.096 427.126 179.045 429.536 179.045Z" fill="#E0E9F6"/>
<path d="M436.006 168.987C438.416 168.987 440.37 167.038 440.37 164.634C440.37 162.229 438.416 160.28 436.006 160.28C433.596 160.28 431.643 162.229 431.643 164.634C431.643 167.038 433.596 168.987 436.006 168.987Z" fill="#8BA8D5"/>
<path d="M446.037 173.991C448.447 173.991 450.401 172.042 450.401 169.638C450.401 167.234 448.447 165.284 446.037 165.284C443.627 165.284 441.674 167.234 441.674 169.638C441.674 172.042 443.627 173.991 446.037 173.991Z" fill="#E0E9F6"/>
<path d="M440.37 184.149C442.78 184.149 444.733 182.2 444.733 179.796C444.733 177.392 442.78 175.442 440.37 175.442C437.96 175.442 436.006 177.392 436.006 179.796C436.006 182.2 437.96 184.149 440.37 184.149Z" fill="#8796B8"/>
<path d="M422.013 190.905C424.423 190.905 426.376 188.956 426.376 186.552C426.376 184.147 424.423 182.198 422.013 182.198C419.603 182.198 417.649 184.147 417.649 186.552C417.649 188.956 419.603 190.905 422.013 190.905Z" fill="#8C95AB"/>
<path d="M433.348 195.659C435.758 195.659 437.712 193.71 437.712 191.305C437.712 188.901 435.758 186.952 433.348 186.952C430.938 186.952 428.984 188.901 428.984 191.305C428.984 193.71 430.938 195.659 433.348 195.659Z" fill="#8BA8D5"/>
<path d="M444.683 202.014C447.093 202.014 449.046 200.065 449.046 197.661C449.046 195.256 447.093 193.307 444.683 193.307C442.273 193.307 440.319 195.256 440.319 197.661C440.319 200.065 442.273 202.014 444.683 202.014Z" fill="#E0E9F6"/>
<path d="M452.457 189.604C454.867 189.604 456.821 187.655 456.821 185.251C456.821 182.846 454.867 180.897 452.457 180.897C450.047 180.897 448.094 182.846 448.094 185.251C448.094 187.655 450.047 189.604 452.457 189.604Z" fill="#8BA8D5"/>
<path d="M459.329 180.897C461.739 180.897 463.692 178.948 463.692 176.543C463.692 174.139 461.739 172.19 459.329 172.19C456.919 172.19 454.965 174.139 454.965 176.543C454.965 178.948 456.919 180.897 459.329 180.897Z" fill="#5C667D"/>
<path d="M466.802 198.511C469.212 198.511 471.166 196.562 471.166 194.157C471.166 191.753 469.212 189.804 466.802 189.804C464.392 189.804 462.438 191.753 462.438 194.157C462.438 196.562 464.392 198.511 466.802 198.511Z" fill="#E0E9F6"/>
<path d="M473.272 188.453C475.682 188.453 477.636 186.504 477.636 184.099C477.636 181.695 475.682 179.746 473.272 179.746C470.862 179.746 468.908 181.695 468.908 184.099C468.908 186.504 470.862 188.453 473.272 188.453Z" fill="#8BA8D5"/>
<path d="M483.304 193.457C485.713 193.457 487.667 191.508 487.667 189.104C487.667 186.699 485.713 184.75 483.304 184.75C480.894 184.75 478.94 186.699 478.94 189.104C478.94 191.508 480.894 193.457 483.304 193.457Z" fill="#E0E9F6"/>
<path d="M477.636 203.615C480.046 203.615 481.999 201.666 481.999 199.261C481.999 196.857 480.046 194.908 477.636 194.908C475.226 194.908 473.272 196.857 473.272 199.261C473.272 201.666 475.226 203.615 477.636 203.615Z" fill="#8796B8"/>
<path d="M459.329 210.37C461.739 210.37 463.692 208.421 463.692 206.017C463.692 203.612 461.739 201.663 459.329 201.663C456.919 201.663 454.965 203.612 454.965 206.017C454.965 208.421 456.919 210.37 459.329 210.37Z" fill="#8C95AB"/>
<path d="M470.614 215.124C473.024 215.124 474.977 213.175 474.977 210.771C474.977 208.366 473.024 206.417 470.614 206.417C468.204 206.417 466.25 208.366 466.25 210.771C466.25 213.175 468.204 215.124 470.614 215.124Z" fill="#8BA8D5"/>
<path d="M481.999 221.479C484.409 221.479 486.363 219.53 486.363 217.126C486.363 214.722 484.409 212.772 481.999 212.772C479.589 212.772 477.636 214.722 477.636 217.126C477.636 219.53 479.589 221.479 481.999 221.479Z" fill="#E0E9F6"/>
<path d="M489.723 209.07C492.133 209.07 494.087 207.12 494.087 204.716C494.087 202.312 492.133 200.363 489.723 200.363C487.314 200.363 485.36 202.312 485.36 204.716C485.36 207.12 487.314 209.07 489.723 209.07Z" fill="#8BA8D5"/>
<path d="M496.595 200.363C499.005 200.363 500.958 198.413 500.958 196.009C500.958 193.605 499.005 191.656 496.595 191.656C494.185 191.656 492.231 193.605 492.231 196.009C492.231 198.413 494.185 200.363 496.595 200.363Z" fill="#5C667D"/>
<path d="M501.711 220.028C504.121 220.028 506.074 218.079 506.074 215.675C506.074 213.27 504.121 211.321 501.711 211.321C499.301 211.321 497.347 213.27 497.347 215.675C497.347 218.079 499.301 220.028 501.711 220.028Z" fill="#E0E9F6"/>
<path d="M508.131 209.97C510.541 209.97 512.494 208.021 512.494 205.617C512.494 203.212 510.541 201.263 508.131 201.263C505.721 201.263 503.767 203.212 503.767 205.617C503.767 208.021 505.721 209.97 508.131 209.97Z" fill="#8BA8D5"/>
<path d="M518.212 214.974C520.622 214.974 522.576 213.025 522.576 210.621C522.576 208.216 520.622 206.267 518.212 206.267C515.802 206.267 513.848 208.216 513.848 210.621C513.848 213.025 515.802 214.974 518.212 214.974Z" fill="#E0E9F6"/>
<path d="M512.494 225.132C514.904 225.132 516.858 223.183 516.858 220.779C516.858 218.374 514.904 216.425 512.494 216.425C510.084 216.425 508.131 218.374 508.131 220.779C508.131 223.183 510.084 225.132 512.494 225.132Z" fill="#8796B8"/>
<path d="M494.187 231.888C496.597 231.888 498.551 229.939 498.551 227.534C498.551 225.13 496.597 223.181 494.187 223.181C491.777 223.181 489.824 225.13 489.824 227.534C489.824 229.939 491.777 231.888 494.187 231.888Z" fill="#8C95AB"/>
<path d="M505.522 236.641C507.932 236.641 509.886 234.692 509.886 232.288C509.886 229.883 507.932 227.934 505.522 227.934C503.112 227.934 501.159 229.883 501.159 232.288C501.159 234.692 503.112 236.641 505.522 236.641Z" fill="#8BA8D5"/>
<path d="M516.858 242.997C519.268 242.997 521.222 241.048 521.222 238.644C521.222 236.239 519.268 234.29 516.858 234.29C514.448 234.29 512.494 236.239 512.494 238.644C512.494 241.048 514.448 242.997 516.858 242.997Z" fill="#E0E9F6"/>
<path d="M524.582 230.587C526.992 230.587 528.945 228.638 528.945 226.234C528.945 223.829 526.992 221.88 524.582 221.88C522.172 221.88 520.218 223.829 520.218 226.234C520.218 228.638 522.172 230.587 524.582 230.587Z" fill="#8BA8D5"/>
<path d="M531.453 221.88C533.863 221.88 535.817 219.931 535.817 217.526C535.817 215.122 533.863 213.173 531.453 213.173C529.043 213.173 527.09 215.122 527.09 217.526C527.09 219.931 529.043 221.88 531.453 221.88Z" fill="#5C667D"/>
</g>
<defs>
<clipPath id="clip0_234_111377">
<rect width="638.386" height="494" fill="white"/>
</clipPath>
</defs>
</svg>
