<svg width="821" height="566" viewBox="0 0 821 566" fill="none" xmlns="http://www.w3.org/2000/svg">
<path d="M52.7179 320.022L35.2625 329.518L7.8384 350.889L0 362.222V378.313L11.3957 391.232L13.8982 399.414L9.98931 418.406L11.0648 438.984L19.9579 450.067L28.8511 455.347L43.804 459.312L75.1369 460.377L91.5169 458.269C91.5169 458.269 104.34 458.269 113.233 460.377C122.126 462.485 165.93 483.334 165.93 483.334L201.172 501.012L403.75 552.479L415.497 560.639L476.012 564.605L495.949 555.902L506.993 556.423C506.993 556.423 522.298 563.812 525.152 564.605C528.006 565.398 556.133 565.92 557.912 565.669C559.691 565.419 641.218 533.215 641.218 533.215L664.713 517.124L697.121 503.934L706.014 501.826C706.014 501.826 739.829 494.709 746.24 491.015C752.652 487.321 777.222 470.186 777.222 470.186C777.222 470.186 797.862 461.754 801.792 457.267C805.701 452.78 813.187 422.705 814.966 402.669C816.745 382.613 822.453 374.181 820.654 368.379C818.854 362.577 814.594 348.865 814.594 348.865L811.036 256.804C811.036 256.804 804.274 237.541 798.938 234.118C793.602 230.695 782.909 207.216 782.909 207.216L772.237 200.099L758.712 196.676L729.881 171.882L714.577 106.473C714.577 106.473 715.652 97.4989 702.478 91.6968C689.303 85.8948 667.236 88.0027 667.236 88.0027L609.203 87.627L560.435 85.6235L546.558 82.2007L351.446 87.2096L267.788 119.392L232.898 145.501L223.281 149.717L200.841 156.584L159.188 186.136L148.144 202.499L147.068 207.779L138.527 218.862L122.147 232.323L86.9049 272.416L77.2879 288.236L61.9833 303.263L52.7179 320.147V320.022Z" fill="#587259"/>
<path d="M52.7179 297.627L35.2625 307.123L7.8384 328.495L0 339.828V355.919L11.3957 368.838L13.8982 377.019L9.98931 396.011L11.0648 416.59L19.9579 427.672L28.8511 432.952L43.804 436.918L75.1369 437.982L91.5169 435.874C91.5169 435.874 104.34 435.874 113.233 437.982C122.126 440.09 165.93 460.94 165.93 460.94L201.172 478.617L403.75 530.084L415.497 538.245L476.012 542.21L495.949 533.507L506.993 534.029C506.993 534.029 522.298 541.417 525.152 542.21C528.006 543.003 556.133 543.525 557.912 543.275C559.691 543.024 641.218 510.821 641.218 510.821L664.713 494.73L697.121 481.539L706.014 479.431C706.014 479.431 739.829 472.314 746.24 468.62C752.652 464.926 777.222 447.791 777.222 447.791C777.222 447.791 797.862 439.36 801.792 434.872C805.701 430.385 813.187 400.311 814.966 380.275C816.745 360.218 822.453 351.786 820.654 345.984C818.854 340.182 814.594 326.47 814.594 326.47L811.036 234.41C811.036 234.41 804.274 215.146 798.938 211.724C793.602 208.301 782.909 184.821 782.909 184.821L772.237 177.704L758.712 174.282L729.881 149.487L714.577 84.0787C714.577 84.0787 715.652 75.1043 702.478 69.3023C689.303 63.5003 667.236 65.6082 667.236 65.6082L609.203 65.2325L560.435 63.2289L546.558 59.8062L351.446 64.8151L267.788 96.9976L232.898 123.107L223.281 127.323L200.841 134.189L159.188 163.742L148.144 180.105L147.068 185.385L138.527 196.467L122.147 209.929L86.9049 250.021L77.2879 265.841L61.9833 280.868L52.7179 297.752V297.627Z" fill="#BDD59B"/>
<g clip-path="url(#clip0_240_263)">
<path d="M255.968 191.934L353.054 138.999L567.24 262.402L472.301 316.263L255.968 191.934Z" fill="#8796B8"/>
<path d="M118.173 297.562L404.111 460.656C404.111 460.656 459.268 497.034 514.962 473.269L695.126 373.776C695.126 373.776 715.383 363.696 720.947 340.953V319.769C720.947 319.769 705.767 335.937 696.639 340.953C687.511 345.969 519.99 440.446 519.99 440.446C519.99 440.446 491.142 451.549 472.399 450.526C453.655 449.504 430.909 447.507 414.215 436.404C397.522 425.3 127.301 271.8 127.301 271.8C127.301 271.8 104.018 256.168 100.455 248.084V272.336C100.455 272.336 101.333 287.969 118.173 297.562Z" fill="#464E5F"/>
<path d="M100.455 248.084V216.771C100.455 216.771 117.685 236.981 128.814 242.532C139.943 248.084 407.186 401.584 407.186 401.584C407.186 401.584 452.728 423.304 473.472 419.748C473.472 419.748 520.039 416.193 537.757 400.561L701.227 306.133C701.227 306.133 715.919 301.604 720.947 286.459V319.769C720.947 319.769 707.963 334.087 700.056 338.762C692.148 343.437 529.655 434.991 529.655 434.991C529.655 434.991 503.784 451.549 472.399 450.526C441.013 449.504 418.511 438.936 418.511 438.936L132.865 274.966C132.865 274.966 102.993 255.632 100.455 248.084Z" fill="#8C95AB"/>
<path d="M100.455 217.549V186.236C100.455 186.236 117.685 206.446 128.814 211.998C139.943 217.549 407.186 371.049 407.186 371.049C407.186 371.049 452.728 392.769 473.472 389.214C473.472 389.214 520.039 385.659 537.757 370.026L701.227 275.599C701.227 275.599 715.919 271.07 720.947 255.924V289.235C720.947 289.235 707.963 303.552 700.056 308.227C692.148 312.902 529.655 404.457 529.655 404.457C529.655 404.457 503.784 421.014 472.399 419.992C441.013 418.969 418.511 408.401 418.511 408.401L132.865 244.431C132.865 244.431 102.993 225.098 100.455 217.549Z" fill="#E0E9F6"/>
<path d="M100.455 186.236V151.66C100.455 151.66 110.559 170.847 123.738 177.422C136.917 183.996 407.186 340.028 407.186 340.028C407.186 340.028 447.7 361.748 472.984 358.728C498.269 355.709 529.655 349.135 538.294 340.564L686.584 255.389C686.584 255.389 716.945 242.094 720.996 216.868V256.022C720.996 256.022 718.506 265.762 701.276 275.696C684.046 285.631 539.71 369.004 539.71 369.004C539.71 369.004 516.524 388.532 473.521 389.311C473.521 389.311 444.234 392.379 407.235 371.147L122.371 207.81C122.371 207.81 110.559 197.583 100.455 186.236Z" fill="#8C95AB"/>
<path d="M349.003 49.732L181.335 148.348L170.353 142.212L349.003 39.6025" fill="#8C95AB"/>
<path d="M647.29 214.871L622.64 198.654L500.514 126.433L349.003 39.6025V49.732L643.873 218.085L648.315 215.114" fill="#8C95AB"/>
<path d="M224.924 173.769L277.738 142.602C324.451 115.038 382.488 115.087 429.103 142.796L599.504 243.896L643.874 218.134L349.003 49.7324L181.335 148.348L224.973 173.72L224.924 173.769Z" fill="#464E5F"/>
<path d="M299.752 169.435L339.192 193.152L296.677 215.845" stroke="#464E5F" stroke-width="0.220936" stroke-miterlimit="10"/>
<path d="M258.799 193.639L353.054 138.999L567.239 262.402" stroke="#464E5F" stroke-width="0.220936" stroke-miterlimit="10"/>
<path d="M407.528 281.686C424.997 281.686 439.158 273.161 439.158 262.645C439.158 252.129 424.997 243.604 407.528 243.604C390.059 243.604 375.898 252.129 375.898 262.645C375.898 273.161 390.059 281.686 407.528 281.686Z" stroke="#464E5F" stroke-width="0.220936" stroke-miterlimit="10"/>
<path d="M390.639 270.486L483.967 216.771" stroke="#464E5F" stroke-width="0.220936" stroke-miterlimit="10"/>
<path d="M694.686 179.613C620.981 135.638 454.534 41.4053 413.532 17.2505C385.661 2.78689 349.784 -4.17709 318.447 4.19916C301.607 8.09509 285.597 14.6695 270.758 23.1918C247.377 36.0484 208.621 58.0117 177.675 75.6408C157.857 87.1825 139.406 96.8249 121.932 107.88C89.3745 133.349 95.8176 163.543 130.083 182.828C169.572 205.18 309.368 285.096 381.072 326.003C403.33 339.152 427.883 351.911 454.387 357.511C487.823 363.501 527.8 350.84 556.208 332.042C580.028 318.455 635.966 286.459 666.034 269.269C689.024 256.509 708.354 245.698 720.117 222.761C727.83 207.518 706.304 188.379 695.175 179.906L694.735 179.565L694.686 179.613ZM472.301 316.263C405.527 281.248 198.078 157.212 175.088 144.891C172.305 142.992 172.94 142.212 176.259 139.972C210.915 119.275 261.338 89.8122 298.971 67.5567C317.666 56.5507 333.139 47.3953 340.754 42.915C344.952 40.48 347.051 39.4086 349.003 39.6034C381.414 57.963 612 189.353 648.315 215.164C631.231 226.949 611.414 236.543 583.494 253.198C548.886 272.531 501.734 301.605 472.496 316.263H472.252H472.301Z" fill="#E0E9F6"/>
<path d="M224.924 173.77L271.685 145.914C322.791 112.701 388.687 111.776 437.254 148.397L599.504 243.848L567.19 262.451L353.054 139.047L255.919 191.983L224.924 171.968" fill="#5F6688"/>
<path d="M679.799 303.894V307.984C679.799 310.224 678.579 312.27 676.626 313.39L542.101 389.653C538.392 391.747 533.852 389.068 533.852 384.832C533.852 382.884 534.926 381.033 536.586 380.059L673.941 300.533C676.528 299.024 679.75 300.874 679.75 303.894H679.799Z" fill="#464E5F"/>
<path d="M195.442 272.287L331.431 350.06C333.92 351.472 337.044 349.67 337.044 346.797C337.044 343.047 335.043 339.638 331.822 337.739L197.639 259.771C195.247 258.408 192.318 260.112 192.318 262.839V266.881C192.318 269.122 193.49 271.167 195.442 272.287Z" fill="#464E5F"/>
<path d="M407.821 111.044C410.166 111.044 412.067 109.148 412.067 106.808C412.067 104.468 410.166 102.571 407.821 102.571C405.476 102.571 403.574 104.468 403.574 106.808C403.574 109.148 405.476 111.044 407.821 111.044Z" fill="#E0E9F6"/>
<path d="M414.069 101.256C416.414 101.256 418.315 99.3595 418.315 97.0195C418.315 94.6796 416.414 92.7827 414.069 92.7827C411.723 92.7827 409.822 94.6796 409.822 97.0195C409.822 99.3595 411.723 101.256 414.069 101.256Z" fill="#8BA8D5"/>
<path d="M423.88 106.126C426.225 106.126 428.127 104.23 428.127 101.89C428.127 99.5497 426.225 97.6528 423.88 97.6528C421.535 97.6528 419.633 99.5497 419.633 101.89C419.633 104.23 421.535 106.126 423.88 106.126Z" fill="#E0E9F6"/>
<path d="M418.315 116.012C420.661 116.012 422.562 114.115 422.562 111.775C422.562 109.435 420.661 107.539 418.315 107.539C415.97 107.539 414.069 109.435 414.069 111.775C414.069 114.115 415.97 116.012 418.315 116.012Z" fill="#8796B8"/>
<path d="M400.499 122.586C402.844 122.586 404.746 120.69 404.746 118.35C404.746 116.01 402.844 114.113 400.499 114.113C398.154 114.113 396.252 116.01 396.252 118.35C396.252 120.69 398.154 122.586 400.499 122.586Z" fill="#8C95AB"/>
<path d="M411.531 127.213C413.876 127.213 415.777 125.316 415.777 122.976C415.777 120.636 413.876 118.739 411.531 118.739C409.185 118.739 407.284 120.636 407.284 122.976C407.284 125.316 409.185 127.213 411.531 127.213Z" fill="#8BA8D5"/>
<path d="M422.562 133.397C424.907 133.397 426.809 131.501 426.809 129.161C426.809 126.821 424.907 124.924 422.562 124.924C420.217 124.924 418.315 126.821 418.315 129.161C418.315 131.501 420.217 133.397 422.562 133.397Z" fill="#E0E9F6"/>
<path d="M430.079 121.32C432.424 121.32 434.326 119.423 434.326 117.084C434.326 114.744 432.424 112.847 430.079 112.847C427.734 112.847 425.833 114.744 425.833 117.084C425.833 119.423 427.734 121.32 430.079 121.32Z" fill="#8BA8D5"/>
<path d="M436.766 112.847C439.111 112.847 441.013 110.95 441.013 108.61C441.013 106.27 439.111 104.373 436.766 104.373C434.421 104.373 432.52 106.27 432.52 108.61C432.52 110.95 434.421 112.847 436.766 112.847Z" fill="#5C667D"/>
<path d="M367.307 90.7373C369.652 90.7373 371.554 88.8404 371.554 86.5005C371.554 84.1606 369.652 82.2637 367.307 82.2637C364.962 82.2637 363.061 84.1606 363.061 86.5005C363.061 88.8404 364.962 90.7373 367.307 90.7373Z" fill="#E0E9F6"/>
<path d="M373.555 80.9976C375.901 80.9976 377.802 79.1007 377.802 76.7607C377.802 74.4208 375.901 72.5239 373.555 72.5239C371.21 72.5239 369.309 74.4208 369.309 76.7607C369.309 79.1007 371.21 80.9976 373.555 80.9976Z" fill="#8BA8D5"/>
<path d="M383.366 85.8672C385.711 85.8672 387.613 83.9703 387.613 81.6304C387.613 79.2904 385.711 77.3936 383.366 77.3936C381.021 77.3936 379.119 79.2904 379.119 81.6304C379.119 83.9703 381.021 85.8672 383.366 85.8672Z" fill="#E0E9F6"/>
<path d="M377.802 95.7046C380.147 95.7046 382.048 93.8077 382.048 91.4678C382.048 89.1278 380.147 87.231 377.802 87.231C375.456 87.231 373.555 89.1278 373.555 91.4678C373.555 93.8077 375.456 95.7046 377.802 95.7046Z" fill="#8796B8"/>
<path d="M359.985 102.279C362.331 102.279 364.232 100.382 364.232 98.0425C364.232 95.7026 362.331 93.8057 359.985 93.8057C357.64 93.8057 355.739 95.7026 355.739 98.0425C355.739 100.382 357.64 102.279 359.985 102.279Z" fill="#8C95AB"/>
<path d="M371.017 106.954C373.362 106.954 375.263 105.057 375.263 102.717C375.263 100.377 373.362 98.4805 371.017 98.4805C368.672 98.4805 366.77 100.377 366.77 102.717C366.77 105.057 368.672 106.954 371.017 106.954Z" fill="#8BA8D5"/>
<path d="M382.048 113.09C384.394 113.09 386.295 111.193 386.295 108.854C386.295 106.514 384.394 104.617 382.048 104.617C379.703 104.617 377.802 106.514 377.802 108.854C377.802 111.193 379.703 113.09 382.048 113.09Z" fill="#E0E9F6"/>
<path d="M389.565 101.013C391.911 101.013 393.812 99.1163 393.812 96.7764C393.812 94.4364 391.911 92.5396 389.565 92.5396C387.22 92.5396 385.319 94.4364 385.319 96.7764C385.319 99.1163 387.22 101.013 389.565 101.013Z" fill="#8BA8D5"/>
<path d="M396.252 92.5396C398.598 92.5396 400.499 90.6427 400.499 88.3027C400.499 85.9628 398.598 84.0659 396.252 84.0659C393.907 84.0659 392.006 85.9628 392.006 88.3027C392.006 90.6427 393.907 92.5396 396.252 92.5396Z" fill="#5C667D"/>
<path d="M323.328 96.3858C325.673 96.3858 327.575 94.4889 327.575 92.1489C327.575 89.809 325.673 87.9121 323.328 87.9121C320.983 87.9121 319.082 89.809 319.082 92.1489C319.082 94.4889 320.983 96.3858 323.328 96.3858Z" fill="#E0E9F6"/>
<path d="M317.031 86.646C319.377 86.646 321.278 84.7491 321.278 82.4092C321.278 80.0692 319.377 78.1724 317.031 78.1724C314.686 78.1724 312.785 80.0692 312.785 82.4092C312.785 84.7491 314.686 86.646 317.031 86.646Z" fill="#8BA8D5"/>
<path d="M307.22 91.5166C309.566 91.5166 311.467 89.6197 311.467 87.2798C311.467 84.9399 309.566 83.043 307.22 83.043C304.875 83.043 302.974 84.9399 302.974 87.2798C302.974 89.6197 304.875 91.5166 307.22 91.5166Z" fill="#E0E9F6"/>
<path d="M312.785 101.354C315.13 101.354 317.031 99.4566 317.031 97.1167C317.031 94.7768 315.13 92.8799 312.785 92.8799C310.439 92.8799 308.538 94.7768 308.538 97.1167C308.538 99.4566 310.439 101.354 312.785 101.354Z" fill="#8796B8"/>
<path d="M330.601 107.928C332.946 107.928 334.848 106.031 334.848 103.691C334.848 101.351 332.946 99.4541 330.601 99.4541C328.256 99.4541 326.354 101.351 326.354 103.691C326.354 106.031 328.256 107.928 330.601 107.928Z" fill="#8C95AB"/>
<path d="M319.569 112.603C321.915 112.603 323.816 110.706 323.816 108.366C323.816 106.026 321.915 104.129 319.569 104.129C317.224 104.129 315.323 106.026 315.323 108.366C315.323 110.706 317.224 112.603 319.569 112.603Z" fill="#8BA8D5"/>
<path d="M308.538 118.739C310.883 118.739 312.785 116.842 312.785 114.502C312.785 112.163 310.883 110.266 308.538 110.266C306.193 110.266 304.292 112.163 304.292 114.502C304.292 116.842 306.193 118.739 308.538 118.739Z" fill="#E0E9F6"/>
<path d="M301.021 106.71C303.366 106.71 305.268 104.814 305.268 102.474C305.268 100.134 303.366 98.2368 301.021 98.2368C298.676 98.2368 296.774 100.134 296.774 102.474C296.774 104.814 298.676 106.71 301.021 106.71Z" fill="#8BA8D5"/>
<path d="M294.334 98.2373C296.679 98.2373 298.581 96.3404 298.581 94.0005C298.581 91.6606 296.679 89.7637 294.334 89.7637C291.989 89.7637 290.087 91.6606 290.087 94.0005C290.087 96.3404 291.989 98.2373 294.334 98.2373Z" fill="#5C667D"/>
<path d="M285.255 116.304C287.6 116.304 289.502 114.407 289.502 112.067C289.502 109.727 287.6 107.83 285.255 107.83C282.91 107.83 281.009 109.727 281.009 112.067C281.009 114.407 282.91 116.304 285.255 116.304Z" fill="#E0E9F6"/>
<path d="M278.958 106.516C281.304 106.516 283.205 104.619 283.205 102.279C283.205 99.9389 281.304 98.042 278.958 98.042C276.613 98.042 274.712 99.9389 274.712 102.279C274.712 104.619 276.613 106.516 278.958 106.516Z" fill="#8BA8D5"/>
<path d="M269.196 111.386C271.541 111.386 273.443 109.489 273.443 107.149C273.443 104.809 271.541 102.912 269.196 102.912C266.851 102.912 264.949 104.809 264.949 107.149C264.949 109.489 266.851 111.386 269.196 111.386Z" fill="#E0E9F6"/>
<path d="M274.712 121.271C277.057 121.271 278.958 119.375 278.958 117.035C278.958 114.695 277.057 112.798 274.712 112.798C272.366 112.798 270.465 114.695 270.465 117.035C270.465 119.375 272.366 121.271 274.712 121.271Z" fill="#8796B8"/>
<path d="M292.528 127.846C294.873 127.846 296.774 125.949 296.774 123.609C296.774 121.269 294.873 119.372 292.528 119.372C290.183 119.372 288.281 121.269 288.281 123.609C288.281 125.949 290.183 127.846 292.528 127.846Z" fill="#8C95AB"/>
<path d="M281.496 132.472C283.842 132.472 285.743 130.575 285.743 128.235C285.743 125.895 283.842 123.999 281.496 123.999C279.151 123.999 277.25 125.895 277.25 128.235C277.25 130.575 279.151 132.472 281.496 132.472Z" fill="#8BA8D5"/>
<path d="M270.465 138.657C272.811 138.657 274.712 136.76 274.712 134.42C274.712 132.08 272.811 130.183 270.465 130.183C268.12 130.183 266.219 132.08 266.219 134.42C266.219 136.76 268.12 138.657 270.465 138.657Z" fill="#E0E9F6"/>
<path d="M262.948 126.58C265.294 126.58 267.195 124.683 267.195 122.343C267.195 120.003 265.294 118.106 262.948 118.106C260.603 118.106 258.702 120.003 258.702 122.343C258.702 124.683 260.603 126.58 262.948 126.58Z" fill="#8BA8D5"/>
<path d="M256.261 118.106C258.606 118.106 260.508 116.209 260.508 113.869C260.508 111.529 258.606 109.632 256.261 109.632C253.916 109.632 252.014 111.529 252.014 113.869C252.014 116.209 253.916 118.106 256.261 118.106Z" fill="#5C667D"/>
<path d="M248.988 136.953C251.333 136.953 253.235 135.056 253.235 132.716C253.235 130.376 251.333 128.479 248.988 128.479C246.643 128.479 244.741 130.376 244.741 132.716C244.741 135.056 246.643 136.953 248.988 136.953Z" fill="#E0E9F6"/>
<path d="M242.691 127.213C245.037 127.213 246.938 125.316 246.938 122.976C246.938 120.636 245.037 118.739 242.691 118.739C240.346 118.739 238.445 120.636 238.445 122.976C238.445 125.316 240.346 127.213 242.691 127.213Z" fill="#8BA8D5"/>
<path d="M232.88 132.035C235.226 132.035 237.127 130.138 237.127 127.798C237.127 125.458 235.226 123.561 232.88 123.561C230.535 123.561 228.634 125.458 228.634 127.798C228.634 130.138 230.535 132.035 232.88 132.035Z" fill="#E0E9F6"/>
<path d="M238.445 141.919C240.79 141.919 242.691 140.023 242.691 137.683C242.691 135.343 240.79 133.446 238.445 133.446C236.099 133.446 234.198 135.343 234.198 137.683C234.198 140.023 236.099 141.919 238.445 141.919Z" fill="#8796B8"/>
<path d="M256.261 148.494C258.606 148.494 260.508 146.597 260.508 144.257C260.508 141.917 258.606 140.021 256.261 140.021C253.916 140.021 252.014 141.917 252.014 144.257C252.014 146.597 253.916 148.494 256.261 148.494Z" fill="#8C95AB"/>
<path d="M245.23 153.121C247.575 153.121 249.476 151.224 249.476 148.884C249.476 146.544 247.575 144.647 245.23 144.647C242.884 144.647 240.983 146.544 240.983 148.884C240.983 151.224 242.884 153.121 245.23 153.121Z" fill="#8BA8D5"/>
<path d="M217.114 154.728C219.46 154.728 221.361 152.831 221.361 150.491C221.361 148.151 219.46 146.254 217.114 146.254C214.769 146.254 212.868 148.151 212.868 150.491C212.868 152.831 214.769 154.728 217.114 154.728Z" fill="#E0E9F6"/>
<path d="M210.817 144.939C213.163 144.939 215.064 143.042 215.064 140.702C215.064 138.362 213.163 136.465 210.817 136.465C208.472 136.465 206.571 138.362 206.571 140.702C206.571 143.042 208.472 144.939 210.817 144.939Z" fill="#8BA8D5"/>
<path d="M201.055 149.81C203.401 149.81 205.302 147.913 205.302 145.573C205.302 143.233 203.401 141.336 201.055 141.336C198.71 141.336 196.809 143.233 196.809 145.573C196.809 147.913 198.71 149.81 201.055 149.81Z" fill="#E0E9F6"/>
<path d="M206.571 159.695C208.916 159.695 210.817 157.798 210.817 155.458C210.817 153.119 208.916 151.222 206.571 151.222C204.225 151.222 202.324 153.119 202.324 155.458C202.324 157.798 204.225 159.695 206.571 159.695Z" fill="#8796B8"/>
<path d="M224.387 166.27C226.732 166.27 228.634 164.373 228.634 162.033C228.634 159.693 226.732 157.796 224.387 157.796C222.042 157.796 220.14 159.693 220.14 162.033C220.14 164.373 222.042 166.27 224.387 166.27Z" fill="#8C95AB"/>
<path d="M234.198 159.306C236.544 159.306 238.445 157.409 238.445 155.069C238.445 152.729 236.544 150.832 234.198 150.832C231.853 150.832 229.952 152.729 229.952 155.069C229.952 157.409 231.853 159.306 234.198 159.306Z" fill="#E0E9F6"/>
<path d="M226.681 147.229C229.027 147.229 230.928 145.332 230.928 142.992C230.928 140.652 229.027 138.755 226.681 138.755C224.336 138.755 222.435 140.652 222.435 142.992C222.435 145.332 224.336 147.229 226.681 147.229Z" fill="#8BA8D5"/>
<path d="M219.994 138.754C222.339 138.754 224.241 136.858 224.241 134.518C224.241 132.178 222.339 130.281 219.994 130.281C217.649 130.281 215.747 132.178 215.747 134.518C215.747 136.858 217.649 138.754 219.994 138.754Z" fill="#5C667D"/>
<path d="M354.275 71.9878C356.62 71.9878 358.521 70.0909 358.521 67.751C358.521 65.4111 356.62 63.5142 354.275 63.5142C351.929 63.5142 350.028 65.4111 350.028 67.751C350.028 70.0909 351.929 71.9878 354.275 71.9878Z" fill="#E0E9F6"/>
<path d="M346.172 63.6602C348.517 63.6602 350.418 61.7633 350.418 59.4233C350.418 57.0834 348.517 55.1865 346.172 55.1865C343.827 55.1865 341.925 57.0834 341.925 59.4233C341.925 61.7633 343.827 63.6602 346.172 63.6602Z" fill="#8BA8D5"/>
<path d="M337.532 70.3809C339.878 70.3809 341.779 68.484 341.779 66.1441C341.779 63.8041 339.878 61.9072 337.532 61.9072C335.187 61.9072 333.286 63.8041 333.286 66.1441C333.286 68.484 335.187 70.3809 337.532 70.3809Z" fill="#E0E9F6"/>
<path d="M344.903 78.9522C347.248 78.9522 349.149 77.0553 349.149 74.7153C349.149 72.3754 347.248 70.4785 344.903 70.4785C342.558 70.4785 340.656 72.3754 340.656 74.7153C340.656 77.0553 342.558 78.9522 344.903 78.9522Z" fill="#8796B8"/>
<path d="M363.695 81.8736C366.041 81.8736 367.942 79.9767 367.942 77.6367C367.942 75.2968 366.041 73.3999 363.695 73.3999C361.35 73.3999 359.449 75.2968 359.449 77.6367C359.449 79.9767 361.35 81.8736 363.695 81.8736Z" fill="#8C95AB"/>
<path d="M353.786 88.5943C356.132 88.5943 358.033 86.6974 358.033 84.3574C358.033 82.0175 356.132 80.1206 353.786 80.1206C351.441 80.1206 349.54 82.0175 349.54 84.3574C349.54 86.6974 351.441 88.5943 353.786 88.5943Z" fill="#8BA8D5"/>
<path d="M344.219 96.8242C346.565 96.8242 348.466 94.9273 348.466 92.5874C348.466 90.2475 346.565 88.3506 344.219 88.3506C341.874 88.3506 339.973 90.2475 339.973 92.5874C339.973 94.9273 341.874 96.8242 344.219 96.8242Z" fill="#E0E9F6"/>
<path d="M334.457 86.4512C336.802 86.4512 338.704 84.5543 338.704 82.2144C338.704 79.8744 336.802 77.9775 334.457 77.9775C332.112 77.9775 330.21 79.8744 330.21 82.2144C330.21 84.5543 332.112 86.4512 334.457 86.4512Z" fill="#8BA8D5"/>
<path d="M326.208 79.4878C328.553 79.4878 330.454 77.5909 330.454 75.251C330.454 72.9111 328.553 71.0142 326.208 71.0142C323.862 71.0142 321.961 72.9111 321.961 75.251C321.961 77.5909 323.862 79.4878 326.208 79.4878Z" fill="#5C667D"/>
<path d="M444.088 131.353C446.433 131.353 448.335 129.456 448.335 127.116C448.335 124.776 446.433 122.879 444.088 122.879C441.743 122.879 439.841 124.776 439.841 127.116C439.841 129.456 441.743 131.353 444.088 131.353Z" fill="#E0E9F6"/>
<path d="M450.385 121.564C452.73 121.564 454.631 119.667 454.631 117.327C454.631 114.987 452.73 113.09 450.385 113.09C448.039 113.09 446.138 114.987 446.138 117.327C446.138 119.667 448.039 121.564 450.385 121.564Z" fill="#8BA8D5"/>
<path d="M460.147 126.434C462.492 126.434 464.393 124.537 464.393 122.197C464.393 119.857 462.492 117.96 460.147 117.96C457.801 117.96 455.9 119.857 455.9 122.197C455.9 124.537 457.801 126.434 460.147 126.434Z" fill="#E0E9F6"/>
<path d="M454.631 136.319C456.976 136.319 458.878 134.422 458.878 132.083C458.878 129.743 456.976 127.846 454.631 127.846C452.286 127.846 450.385 129.743 450.385 132.083C450.385 134.422 452.286 136.319 454.631 136.319Z" fill="#8796B8"/>
<path d="M436.766 142.894C439.111 142.894 441.013 140.997 441.013 138.657C441.013 136.317 439.111 134.42 436.766 134.42C434.421 134.42 432.52 136.317 432.52 138.657C432.52 140.997 434.421 142.894 436.766 142.894Z" fill="#8C95AB"/>
<path d="M447.798 147.521C450.143 147.521 452.044 145.624 452.044 143.284C452.044 140.944 450.143 139.047 447.798 139.047C445.452 139.047 443.551 140.944 443.551 143.284C443.551 145.624 445.452 147.521 447.798 147.521Z" fill="#8BA8D5"/>
<path d="M458.829 153.706C461.174 153.706 463.076 151.809 463.076 149.469C463.076 147.129 461.174 145.232 458.829 145.232C456.484 145.232 454.583 147.129 454.583 149.469C454.583 151.809 456.484 153.706 458.829 153.706Z" fill="#E0E9F6"/>
<path d="M466.395 141.628C468.74 141.628 470.641 139.732 470.641 137.392C470.641 135.052 468.74 133.155 466.395 133.155C464.049 133.155 462.148 135.052 462.148 137.392C462.148 139.732 464.049 141.628 466.395 141.628Z" fill="#8BA8D5"/>
<path d="M473.082 133.154C475.427 133.154 477.329 131.257 477.329 128.917C477.329 126.578 475.427 124.681 473.082 124.681C470.737 124.681 468.835 126.578 468.835 128.917C468.835 131.257 470.737 133.154 473.082 133.154Z" fill="#5C667D"/>
<path d="M482.21 154.533C484.555 154.533 486.457 152.636 486.457 150.296C486.457 147.956 484.555 146.06 482.21 146.06C479.865 146.06 477.963 147.956 477.963 150.296C477.963 152.636 479.865 154.533 482.21 154.533Z" fill="#E0E9F6"/>
<path d="M488.458 144.745C490.803 144.745 492.704 142.848 492.704 140.508C492.704 138.168 490.803 136.271 488.458 136.271C486.112 136.271 484.211 138.168 484.211 140.508C484.211 142.848 486.112 144.745 488.458 144.745Z" fill="#8BA8D5"/>
<path d="M498.269 149.614C500.614 149.614 502.515 147.717 502.515 145.377C502.515 143.038 500.614 141.141 498.269 141.141C495.923 141.141 494.022 143.038 494.022 145.377C494.022 147.717 495.923 149.614 498.269 149.614Z" fill="#E0E9F6"/>
<path d="M492.704 159.5C495.049 159.5 496.951 157.603 496.951 155.263C496.951 152.923 495.049 151.026 492.704 151.026C490.359 151.026 488.458 152.923 488.458 155.263C488.458 157.603 490.359 159.5 492.704 159.5Z" fill="#8796B8"/>
<path d="M474.888 166.075C477.234 166.075 479.135 164.178 479.135 161.838C479.135 159.498 477.234 157.601 474.888 157.601C472.543 157.601 470.642 159.498 470.642 161.838C470.642 164.178 472.543 166.075 474.888 166.075Z" fill="#8C95AB"/>
<path d="M485.919 170.701C488.265 170.701 490.166 168.804 490.166 166.464C490.166 164.124 488.265 162.228 485.919 162.228C483.574 162.228 481.673 164.124 481.673 166.464C481.673 168.804 483.574 170.701 485.919 170.701Z" fill="#8BA8D5"/>
<path d="M496.951 176.886C499.296 176.886 501.197 174.989 501.197 172.649C501.197 170.31 499.296 168.413 496.951 168.413C494.605 168.413 492.704 170.31 492.704 172.649C492.704 174.989 494.605 176.886 496.951 176.886Z" fill="#E0E9F6"/>
<path d="M504.468 164.809C506.813 164.809 508.714 162.912 508.714 160.572C508.714 158.232 506.813 156.335 504.468 156.335C502.122 156.335 500.221 158.232 500.221 160.572C500.221 162.912 502.122 164.809 504.468 164.809Z" fill="#8BA8D5"/>
<path d="M511.155 156.335C513.5 156.335 515.402 154.438 515.402 152.098C515.402 149.758 513.5 147.861 511.155 147.861C508.81 147.861 506.908 149.758 506.908 152.098C506.908 154.438 508.81 156.335 511.155 156.335Z" fill="#5C667D"/>
<path d="M518.476 174.841C520.822 174.841 522.723 172.944 522.723 170.604C522.723 168.264 520.822 166.367 518.476 166.367C516.131 166.367 514.23 168.264 514.23 170.604C514.23 172.944 516.131 174.841 518.476 174.841Z" fill="#E0E9F6"/>
<path d="M524.773 165.052C527.119 165.052 529.02 163.155 529.02 160.815C529.02 158.475 527.119 156.578 524.773 156.578C522.428 156.578 520.527 158.475 520.527 160.815C520.527 163.155 522.428 165.052 524.773 165.052Z" fill="#8BA8D5"/>
<path d="M534.535 169.922C536.881 169.922 538.782 168.026 538.782 165.686C538.782 163.346 536.881 161.449 534.535 161.449C532.19 161.449 530.289 163.346 530.289 165.686C530.289 168.026 532.19 169.922 534.535 169.922Z" fill="#E0E9F6"/>
<path d="M529.02 179.808C531.365 179.808 533.266 177.911 533.266 175.571C533.266 173.231 531.365 171.334 529.02 171.334C526.674 171.334 524.773 173.231 524.773 175.571C524.773 177.911 526.674 179.808 529.02 179.808Z" fill="#8796B8"/>
<path d="M511.155 186.383C513.5 186.383 515.402 184.486 515.402 182.146C515.402 179.806 513.5 177.909 511.155 177.909C508.81 177.909 506.908 179.806 506.908 182.146C506.908 184.486 508.81 186.383 511.155 186.383Z" fill="#8C95AB"/>
<path d="M522.186 191.008C524.532 191.008 526.433 189.111 526.433 186.771C526.433 184.432 524.532 182.535 522.186 182.535C519.841 182.535 517.94 184.432 517.94 186.771C517.94 189.111 519.841 191.008 522.186 191.008Z" fill="#8BA8D5"/>
<path d="M533.218 197.194C535.563 197.194 537.464 195.297 537.464 192.957C537.464 190.617 535.563 188.72 533.218 188.72C530.872 188.72 528.971 190.617 528.971 192.957C528.971 195.297 530.872 197.194 533.218 197.194Z" fill="#E0E9F6"/>
<path d="M540.783 185.116C543.129 185.116 545.03 183.219 545.03 180.879C545.03 178.539 543.129 176.643 540.783 176.643C538.438 176.643 536.537 178.539 536.537 180.879C536.537 183.219 538.438 185.116 540.783 185.116Z" fill="#8BA8D5"/>
<path d="M547.47 176.643C549.816 176.643 551.717 174.746 551.717 172.406C551.717 170.066 549.816 168.169 547.47 168.169C545.125 168.169 543.224 170.066 543.224 172.406C543.224 174.746 545.125 176.643 547.47 176.643Z" fill="#5C667D"/>
<path d="M554.744 193.784C557.089 193.784 558.99 191.887 558.99 189.547C558.99 187.207 557.089 185.311 554.744 185.311C552.398 185.311 550.497 187.207 550.497 189.547C550.497 191.887 552.398 193.784 554.744 193.784Z" fill="#E0E9F6"/>
<path d="M561.04 183.996C563.385 183.996 565.287 182.099 565.287 179.759C565.287 177.419 563.385 175.522 561.04 175.522C558.695 175.522 556.793 177.419 556.793 179.759C556.793 182.099 558.695 183.996 561.04 183.996Z" fill="#8BA8D5"/>
<path d="M570.803 188.866C573.148 188.866 575.049 186.969 575.049 184.629C575.049 182.289 573.148 180.393 570.803 180.393C568.457 180.393 566.556 182.289 566.556 184.629C566.556 186.969 568.457 188.866 570.803 188.866Z" fill="#E0E9F6"/>
<path d="M565.287 198.752C567.632 198.752 569.533 196.855 569.533 194.515C569.533 192.175 567.632 190.278 565.287 190.278C562.942 190.278 561.04 192.175 561.04 194.515C561.04 196.855 562.942 198.752 565.287 198.752Z" fill="#8796B8"/>
<path d="M547.47 205.326C549.816 205.326 551.717 203.429 551.717 201.089C551.717 198.749 549.816 196.853 547.47 196.853C545.125 196.853 543.224 198.749 543.224 201.089C543.224 203.429 545.125 205.326 547.47 205.326Z" fill="#8C95AB"/>
<path d="M558.453 209.953C560.798 209.953 562.7 208.056 562.7 205.716C562.7 203.376 560.798 201.479 558.453 201.479C556.108 201.479 554.207 203.376 554.207 205.716C554.207 208.056 556.108 209.953 558.453 209.953Z" fill="#8BA8D5"/>
<path d="M569.533 216.138C571.879 216.138 573.78 214.241 573.78 211.901C573.78 209.561 571.879 207.664 569.533 207.664C567.188 207.664 565.287 209.561 565.287 211.901C565.287 214.241 567.188 216.138 569.533 216.138Z" fill="#E0E9F6"/>
<path d="M577.051 204.061C579.396 204.061 581.297 202.164 581.297 199.824C581.297 197.484 579.396 195.587 577.051 195.587C574.705 195.587 572.804 197.484 572.804 199.824C572.804 202.164 574.705 204.061 577.051 204.061Z" fill="#8BA8D5"/>
<path d="M583.738 195.586C586.083 195.586 587.984 193.69 587.984 191.35C587.984 189.01 586.083 187.113 583.738 187.113C581.392 187.113 579.491 189.01 579.491 191.35C579.491 193.69 581.392 195.586 583.738 195.586Z" fill="#5C667D"/>
<path d="M588.717 214.725C591.062 214.725 592.963 212.828 592.963 210.488C592.963 208.148 591.062 206.251 588.717 206.251C586.371 206.251 584.47 208.148 584.47 210.488C584.47 212.828 586.371 214.725 588.717 214.725Z" fill="#E0E9F6"/>
<path d="M594.964 204.937C597.31 204.937 599.211 203.04 599.211 200.7C599.211 198.36 597.31 196.463 594.964 196.463C592.619 196.463 590.718 198.36 590.718 200.7C590.718 203.04 592.619 204.937 594.964 204.937Z" fill="#8BA8D5"/>
<path d="M604.775 209.807C607.121 209.807 609.022 207.91 609.022 205.57C609.022 203.23 607.121 201.333 604.775 201.333C602.43 201.333 600.529 203.23 600.529 205.57C600.529 207.91 602.43 209.807 604.775 209.807Z" fill="#E0E9F6"/>
<path d="M599.211 219.692C601.556 219.692 603.458 217.796 603.458 215.456C603.458 213.116 601.556 211.219 599.211 211.219C596.866 211.219 594.964 213.116 594.964 215.456C594.964 217.796 596.866 219.692 599.211 219.692Z" fill="#8796B8"/>
<path d="M581.395 226.267C583.74 226.267 585.641 224.37 585.641 222.03C585.641 219.69 583.74 217.793 581.395 217.793C579.049 217.793 577.148 219.69 577.148 222.03C577.148 224.37 579.049 226.267 581.395 226.267Z" fill="#8C95AB"/>
<path d="M592.426 230.894C594.771 230.894 596.672 228.997 596.672 226.657C596.672 224.317 594.771 222.42 592.426 222.42C590.08 222.42 588.179 224.317 588.179 226.657C588.179 228.997 590.08 230.894 592.426 230.894Z" fill="#8BA8D5"/>
<path d="M603.458 237.078C605.803 237.078 607.704 235.181 607.704 232.841C607.704 230.501 605.803 228.604 603.458 228.604C601.112 228.604 599.211 230.501 599.211 232.841C599.211 235.181 601.112 237.078 603.458 237.078Z" fill="#E0E9F6"/>
<path d="M610.974 225.001C613.32 225.001 615.221 223.104 615.221 220.764C615.221 218.424 613.32 216.527 610.974 216.527C608.629 216.527 606.728 218.424 606.728 220.764C606.728 223.104 608.629 225.001 610.974 225.001Z" fill="#8BA8D5"/>
<path d="M617.662 216.527C620.007 216.527 621.909 214.63 621.909 212.291C621.909 209.951 620.007 208.054 617.662 208.054C615.317 208.054 613.415 209.951 613.415 212.291C613.415 214.63 615.317 216.527 617.662 216.527Z" fill="#5C667D"/>
</g>
<defs>
<clipPath id="clip0_240_263">
<rect width="621.273" height="480.758" fill="white" transform="translate(100.455 0.595215)"/>
</clipPath>
</defs>
</svg>
